<?xml version="1.0" encoding="utf-8"?>
<!-- Generator: Adobe Illustrator 28.0.0, SVG Export Plug-In . SVG Version: 6.00 Build 0)  -->
<svg version="1.1" id="Layer_1" xmlns="http://www.w3.org/2000/svg" xmlns:xlink="http://www.w3.org/1999/xlink" x="0px" y="0px"
	 viewBox="0 0 64 80" style="enable-background:new 0 0 64 80;" xml:space="preserve">
<style type="text/css">
	.st0{fill:#7C7C7C;}
</style>
<g>
	<path class="st0" d="M43.6,23.9L32.8,18c-0.5-0.3-1-0.3-1.4,0l-10.5,5.7c-0.2,0.1-0.4,0.2-0.5,0.4h-0.3v0.5c0,0.1-0.1,0.2-0.1,0.4
		v13.5c0,0.3,0.1,0.5,0.2,0.6c0,0,0,0.1,0.1,0.1l0.1,0.2l10.9,6.2l0.2,0c0.1,0,0.2,0.1,0.5,0.1c0.1,0,0.3,0,0.5-0.1h0.1l10.7-5.8
		l0.3-0.3c0.1-0.1,0.2-0.2,0.2-0.3l0.2,0V25c0-0.1,0-0.2-0.1-0.3c0-0.1,0-0.1,0-0.2C44,24.2,43.8,24,43.6,23.9z M30.5,31.5v10.1
		l-7.6-4.1V27.4L30.5,31.5z M39.4,25L32,28.9L24.6,25l7.4-4L39.4,25z M41.1,27.4v10.1l-7.6,4.2V31.5L41.1,27.4z"/>
	<path class="st0" d="M43.5,22c0.4,0,0.7-0.1,1.1-0.4l5.4-5.4h8.8c0.8,0,1.5-0.7,1.5-1.5V5.3c0-0.8-0.7-1.5-1.5-1.5h-9.4
		c-0.8,0-1.5,0.7-1.5,1.5v8.8l-5.4,5.4c-0.6,0.6-0.6,1.5,0,2.1C42.7,21.8,43.1,22,43.5,22z M50.8,13.1V6.7h6.4v6.4H50.8z"/>
	<path class="st0" d="M19.4,42.4l-5.4,5.4H5.3c-0.8,0-1.5,0.7-1.5,1.5v9.4c0,0.8,0.7,1.5,1.5,1.5h9.4c0.8,0,1.5-0.7,1.5-1.5v-8.8
		l5.4-5.4c0.6-0.6,0.6-1.5,0-2.1C21,41.9,20,41.9,19.4,42.4z M13.2,57.3H6.7v-6.4h6.4C13.2,52,13.2,55.1,13.2,57.3z"/>
	<path class="st0" d="M10.9,36.9c0.9,0,1.5-0.6,1.5-1.4v-2h3.3c0.8,0,1.5-0.7,1.5-1.5c0-0.9-0.6-1.5-1.5-1.5h-3.3v-2
		c0-0.8-0.7-1.5-1.5-1.5H4c-0.8,0-1.5,0.7-1.5,1.5v6.9c0,0.8,0.7,1.5,1.5,1.5H10.9z M5.5,34v-4h4v4H5.5z"/>
	<path class="st0" d="M60,27.1h-6.9c-0.8,0-1.5,0.7-1.5,1.5v1.9h-3.3c-0.8,0-1.5,0.7-1.5,1.5s0.7,1.5,1.5,1.5h3.3v2
		c0,0.8,0.7,1.5,1.5,1.5H60c0.8,0,1.5-0.7,1.5-1.5v-6.9C61.5,27.7,60.9,27.1,60,27.1z M58.5,30v4h-4v-4H58.5z"/>
	<path class="st0" d="M28.5,12.4h2v3.3c0,0.8,0.7,1.5,1.5,1.5c0.9,0,1.5-0.6,1.5-1.5v-3.3h2c0.8,0,1.5-0.7,1.5-1.5V4
		c0-0.8-0.7-1.5-1.5-1.5h-6.9c-0.8,0-1.5,0.7-1.5,1.5v6.9C27.1,11.8,27.7,12.4,28.5,12.4z M34,5.5v4h-4v-4H34z"/>
	<path class="st0" d="M35.5,51.6h-2v-3.3c0-0.8-0.7-1.5-1.5-1.5c-0.9,0-1.5,0.6-1.5,1.5v3.3h-2c-0.8,0-1.5,0.7-1.5,1.5V60
		c0,0.8,0.7,1.5,1.5,1.5h6.9c0.8,0,1.5-0.7,1.5-1.5v-6.9C36.9,52.2,36.3,51.6,35.5,51.6z M34,54.5v4h-4v-4H34z"/>
	<path class="st0" d="M5.3,16.1h8.8l5.5,5.4c0.3,0.3,0.6,0.4,1.1,0.4c0.4,0,0.7-0.1,1.1-0.4c0.3-0.3,0.4-0.7,0.4-1.1
		c0-0.4-0.2-0.8-0.4-1.1L16.3,14V5.2c0-0.8-0.7-1.5-1.5-1.5H5.3c-0.8,0-1.5,0.7-1.5,1.5v9.4C3.8,15.5,4.4,16.1,5.3,16.1z M6.7,13.1
		V6.7h6.4v6.4H6.7z"/>
	<path class="st0" d="M58.7,47.9h-8.8l-5.4-5.4C44,42,43,42,42.4,42.5c-0.3,0.3-0.4,0.7-0.4,1.1c0,0.4,0.2,0.8,0.4,1.1l5.4,5.4v8.8
		c0,0.8,0.7,1.5,1.5,1.5h9.4c0.8,0,1.5-0.7,1.5-1.5v-9.4C60.2,48.5,59.6,47.9,58.7,47.9z M57.2,50.9v6.4h-6.4v-6.4H57.2z"/>
</g>
</svg>
