<?xml version="1.0" encoding="utf-8"?>
<!-- Generator: Adobe Illustrator 28.0.0, SVG Export Plug-In . SVG Version: 6.00 Build 0)  -->
<svg version="1.1" id="Layer_1" xmlns="http://www.w3.org/2000/svg" xmlns:xlink="http://www.w3.org/1999/xlink" x="0px" y="0px"
	 viewBox="0 0 512 640" style="enable-background:new 0 0 512 640;" xml:space="preserve">
<style type="text/css">
	.st0{fill:#7C7C7C;}
</style>
<g>
	<path class="st0" d="M259.3,46.5c2.7,0,5.4-1.1,7.5-3.1c1.9-2,3-4.8,3-7.4c0-2.8-1.1-5.5-3.1-7.5c-2-1.9-4.8-3-7.4-3
		c-2.8,0-5.5,1.1-7.5,3.1c-1.9,2-3,4.8-3,7.4c0,2.8,1.1,5.5,3.1,7.5C253.9,45.4,256.6,46.5,259.3,46.5z"/>
	<path class="st0" d="M259.3,76.5c2.7,0,5.4-1.1,7.5-3.1c1.9-2,3-4.8,3-7.4c0-2.8-1.1-5.5-3.1-7.5c-2-1.9-4.8-3-7.4-3
		c-2.8,0-5.5,1.1-7.5,3.1c-1.9,2-3,4.8-3,7.4c0,2.8,1.1,5.5,3.1,7.5C253.9,75.4,256.6,76.5,259.3,76.5z"/>
	<path class="st0" d="M259.3,106.5c2.7,0,5.4-1.1,7.5-3.1c1.9-2,3-4.8,3-7.4c0-2.8-1.1-5.5-3.1-7.5c-2-1.9-4.8-3-7.4-3
		c-2.8,0-5.5,1.1-7.5,3.1c-1.9,2-3,4.8-3,7.4c0,2.8,1.1,5.5,3.1,7.5C253.9,105.4,256.6,106.5,259.3,106.5z"/>
	<path class="st0" d="M259.3,136.5c2.7,0,5.4-1.1,7.5-3.1c1.9-2,3-4.8,3-7.4c0-2.8-1.1-5.5-3.1-7.5c-2-1.9-4.8-3-7.4-3
		c-2.8,0-5.5,1.1-7.5,3.1c-1.9,2-3,4.8-3,7.4c0,2.8,1.1,5.5,3.1,7.5C253.9,135.4,256.6,136.5,259.3,136.5z"/>
	<path class="st0" d="M416.3,109.5c2.7,0,5.4-1.1,7.5-3.1c2-2.1,3-4.7,3-7.4c0-2.8-1.1-5.5-3.1-7.5c-2-1.9-4.8-3-7.4-3
		c-2.8,0-5.5,1.1-7.5,3.1c-2,2.1-3,4.7-3,7.4c0,2.8,1.1,5.5,3.1,7.5C410.9,108.4,413.6,109.5,416.3,109.5z"/>
	<path class="st0" d="M395.1,109.7c-2.8,0-5.5,1.1-7.5,3.1c-2,2.1-3,4.7-3,7.4c0,2.9,1.1,5.6,3.1,7.5c2,1.9,4.8,3,7.4,3
		c2.7,0,5.4-1.1,7.5-3.1c2-2.1,3-4.7,3-7.4c0-2.8-1.1-5.5-3.1-7.5C400.5,110.8,397.8,109.7,395.1,109.7z"/>
	<path class="st0" d="M373.9,151.9c2.7,0,5.4-1.1,7.5-3.1c1.9-2,3-4.8,3-7.4c0-2.8-1.1-5.5-3.1-7.5c-2-1.9-4.8-3-7.4-3
		c-2.8,0-5.5,1.1-7.5,3.1c-1.9,2-3,4.8-3,7.4c0,2.8,1.1,5.5,3.1,7.5C368.5,150.8,371.2,151.9,373.9,151.9z"/>
	<path class="st0" d="M352.7,152.1c-2.9,0-5.6,1.1-7.5,3.1s-3,4.8-3,7.4c0,2.9,1.1,5.6,3.1,7.5s4.8,3,7.4,3s5.4-1.1,7.5-3.1
		c2-2.1,3-4.7,3-7.4c0-2.8-1.1-5.5-3.1-7.5C358.1,153.2,355.4,152.1,352.7,152.1z"/>
	<path class="st0" d="M159.3,328.9c-2.8,0-5.5,1.1-7.5,3.1c-1.9,2-3,4.8-3,7.4c0,2.8,1.1,5.5,3.1,7.5c2,1.9,4.8,3,7.4,3
		s5.4-1.1,7.5-3.1c1.9-2,3-4.8,3-7.4c0-2.9-1.1-5.6-3.1-7.5S162,328.9,159.3,328.9z"/>
	<path class="st0" d="M138.1,350.1c-2.8,0-5.5,1.1-7.5,3.1c-2,2.1-3,4.7-3,7.4c0,2.8,1.1,5.5,3.1,7.5c2,1.9,4.8,3,7.4,3
		c2.7,0,5.4-1.1,7.5-3.1c2-2.1,3-4.7,3-7.4c0-2.9-1.1-5.6-3.1-7.5S140.8,350.1,138.1,350.1z"/>
	<path class="st0" d="M116.9,371.3c-2.8,0-5.5,1.1-7.5,3.1c-2,2.1-3,4.7-3,7.4c0,2.8,1.1,5.5,3.1,7.5c2,1.9,4.8,3,7.4,3
		c2.7,0,5.4-1.1,7.5-3.1c2-2.1,3-4.7,3-7.4c0-2.8-1.1-5.5-3.1-7.5C122.3,372.4,119.6,371.3,116.9,371.3z"/>
	<path class="st0" d="M95.7,392.5c-2.8,0-5.5,1.1-7.5,3.1c-1.9,2-3,4.7-3,7.4c0,2.8,1.1,5.5,3.1,7.5c2,1.9,4.7,3,7.4,3
		c2.8,0,5.5-1.1,7.5-3.1c1.9-2,3-4.8,3-7.4c0-2.8-1.1-5.5-3.1-7.5C101.1,393.6,98.4,392.5,95.7,392.5z"/>
	<path class="st0" d="M486.7,243.5c-2-1.9-4.8-3-7.4-3c-2.8,0-5.5,1.1-7.5,3.1c-2,2.1-3,4.7-3,7.4c0,2.8,1.1,5.5,3.1,7.5
		c2,1.9,4.8,3,7.4,3s5.4-1.1,7.5-3.1c2-2.1,3-4.7,3-7.4C489.8,248.2,488.7,245.5,486.7,243.5z"/>
	<path class="st0" d="M449.3,240.5c-2.8,0-5.5,1.1-7.5,3.1c-1.9,2-3,4.8-3,7.4c0,2.8,1.1,5.5,3.1,7.5c2,1.9,4.8,3,7.4,3
		s5.4-1.1,7.5-3.1c2-2.1,3-4.7,3-7.4c0-2.8-1.1-5.5-3.1-7.5C454.7,241.6,452,240.5,449.3,240.5z"/>
	<path class="st0" d="M419.3,240.5c-2.8,0-5.5,1.1-7.5,3.1c-1.9,2-3,4.8-3,7.4c0,2.8,1.1,5.5,3.1,7.5c2,1.9,4.8,3,7.4,3
		s5.4-1.1,7.5-3.1c1.9-2,3-4.8,3-7.4c0-2.8-1.1-5.5-3.1-7.5C424.7,241.6,422,240.5,419.3,240.5z"/>
	<path class="st0" d="M381.9,258.5c2,1.9,4.8,3,7.4,3s5.4-1.1,7.5-3.1c1.9-2,3-4.8,3-7.4c0-2.8-1.1-5.5-3.1-7.5c-2-1.9-4.8-3-7.4-3
		c-2.8,0-5.5,1.1-7.5,3.1c-1.9,2-3,4.8-3,7.4C378.8,253.8,379.9,256.5,381.9,258.5z"/>
	<path class="st0" d="M115.2,243.6c-2,2.1-3,4.7-3,7.4c0,2.8,1.1,5.5,3.1,7.5c2,1.9,4.8,3,7.4,3c2.7,0,5.4-1.1,7.5-3.1
		c1.9-2,3-4.8,3-7.4c0-2.8-1.1-5.5-3.1-7.5c-2.1-2-4.7-3-7.4-3C119.9,240.5,117.2,241.6,115.2,243.6z"/>
	<path class="st0" d="M92.7,261.5c2.7,0,5.4-1.1,7.5-3.1c1.9-2,3-4.8,3-7.4c0-2.8-1.1-5.5-3.1-7.5c-2.1-2-4.7-3-7.4-3
		c-2.8,0-5.5,1.1-7.5,3.1c-1.9,2-3,4.8-3,7.4c0,2.8,1.1,5.5,3.1,7.5C87.3,260.4,90,261.5,92.7,261.5z"/>
	<path class="st0" d="M62.7,240.5c-2.8,0-5.5,1.1-7.5,3.1c-1.9,2-3,4.8-3,7.4c0,2.8,1.1,5.5,3.1,7.5c2,1.9,4.8,3,7.4,3
		c2.7,0,5.4-1.1,7.5-3.1c1.9-2,3-4.8,3-7.4c0-2.8-1.1-5.5-3.1-7.5C68.1,241.6,65.4,240.5,62.7,240.5z"/>
	<path class="st0" d="M32.7,240.5c-2.9,0-5.6,1.1-7.5,3.1s-3,4.8-3,7.4c0,2.8,1.1,5.5,3.1,7.5c2,1.9,4.8,3,7.4,3
		c2.7,0,5.4-1.1,7.5-3.1c1.9-2,3-4.8,3-7.4c0-2.8-1.1-5.5-3.1-7.5C38.1,241.6,35.4,240.5,32.7,240.5z"/>
	<path class="st0" d="M95.7,88.5c-2.9,0-5.6,1.1-7.5,3.1c-2,2.1-3,4.7-3,7.4c0,2.9,1.1,5.6,3.1,7.5s4.8,3,7.4,3
		c2.7,0,5.4-1.1,7.5-3.1c2-2.1,3-4.7,3-7.4c0-2.9-1.1-5.6-3.1-7.5S98.4,88.5,95.7,88.5z"/>
	<path class="st0" d="M116.9,130.7c2.7,0,5.4-1.1,7.5-3.1c2-2.1,3-4.7,3-7.4c0-2.8-1.1-5.5-3.1-7.5c-2-1.9-4.8-3-7.4-3
		c-2.9,0-5.6,1.1-7.5,3.1c-2,2.1-3,4.7-3,7.4c0,2.8,1.1,5.5,3.1,7.5C111.5,129.6,114.2,130.7,116.9,130.7z"/>
	<path class="st0" d="M138.1,130.9c-2.8,0-5.5,1.1-7.5,3.1c-1.9,2-3,4.8-3,7.4c0,2.8,1.1,5.5,3.1,7.5c2,1.9,4.8,3,7.4,3
		c2.7,0,5.4-1.1,7.5-3.1c1.9-2,3-4.8,3-7.4c0-2.8-1.1-5.5-3.1-7.5C143.5,132,140.8,130.9,138.1,130.9z"/>
	<path class="st0" d="M159.3,152.1c-2.8,0-5.5,1.1-7.5,3.1c-2,2.1-3,4.7-3,7.4c0,2.8,1.1,5.5,3.1,7.5c2,1.9,4.8,3,7.4,3
		c2.9,0,5.7-1.1,7.5-3.1c2-2.1,3-4.7,3-7.4c0-2.9-1.1-5.6-3.1-7.5C164.7,153.2,162,152.1,159.3,152.1z"/>
	<path class="st0" d="M352.7,328.9c-2.8,0-5.5,1.1-7.5,3.1c-1.9,2-3,4.8-3,7.4c0,2.8,1.1,5.5,3.1,7.5c2,1.9,4.8,3,7.4,3
		c2.7,0,5.4-1.1,7.5-3.1c1.9-2,3-4.8,3-7.4c0-2.8-1.1-5.5-3.1-7.5C358.1,330,355.4,328.9,352.7,328.9z"/>
	<path class="st0" d="M373.9,350.1c-2.8,0-5.5,1.1-7.5,3.1c-1.9,2-3,4.8-3,7.4c0,2.8,1.1,5.5,3.1,7.5c2,1.9,4.8,3,7.4,3
		s5.4-1.1,7.5-3.1c2-2.1,3-4.7,3-7.4c0-2.8-1.1-5.5-3.1-7.5C379.3,351.2,376.6,350.1,373.9,350.1z"/>
	<path class="st0" d="M395.1,371.3c-2.8,0-5.5,1.1-7.5,3.1c-2,2.1-3,4.7-3,7.4c0,2.8,1.1,5.5,3.1,7.5c2,1.9,4.8,3,7.4,3
		c2.7,0,5.4-1.1,7.5-3.1c2-2.1,3-4.7,3-7.4c0-2.8-1.1-5.5-3.1-7.5C400.5,372.4,397.8,371.3,395.1,371.3z"/>
	<path class="st0" d="M416.3,392.5c-2.8,0-5.5,1.1-7.5,3.1c-1.9,2-3,4.8-3,7.4c0,2.8,1.1,5.5,3.1,7.5c2,1.9,4.7,3,7.4,3
		c2.8,0,5.5-1.1,7.5-3.1c1.9-2,3-4.7,3-7.4c0-2.8-1.1-5.5-3.1-7.5C421.7,393.6,419,392.5,416.3,392.5z"/>
	<path class="st0" d="M278,245.5h-47.4c-28.6,0-51.8,23.2-51.8,51.8V386c0,5.8,4.7,10.5,10.5,10.5h9.5V476c0,5.8,4.7,10.5,10.5,10.5
		h90c5.8,0,10.5-4.7,10.5-10.5v-79.5h9.5c5.8,0,10.5-4.7,10.5-10.5v-88.7C329.8,268.7,306.6,245.5,278,245.5z M254.3,405.5
		c-5.8,0-10.5,4.7-10.5,10.5v49.5h-24v-69h69v69h-24V416C264.8,410.2,260.1,405.5,254.3,405.5z M289.3,305.5
		c-5.8,0-10.5,4.7-10.5,10.5v59.5h-49V316c0-5.8-4.7-10.5-10.5-10.5s-10.5,4.7-10.5,10.5v59.5h-9l0.1-78.2c0-17,13.8-30.8,30.8-30.8
		H278c17,0,30.8,13.8,30.8,30.8v78.2h-9V316C299.8,310.2,295.1,305.5,289.3,305.5z"/>
	<path class="st0" d="M254.3,236.5c25.1,0,45.5-20.4,45.5-45.5s-20.4-45.5-45.5-45.5s-45.5,20.4-45.5,45.5S229.2,236.5,254.3,236.5z
		 M229.8,191c0-13.5,11-24.5,24.5-24.5c13.5,0,24.5,11,24.5,24.5s-11,24.5-24.5,24.5C240.8,215.5,229.8,204.5,229.8,191z"/>
</g>
</svg>
