<?xml version="1.0" encoding="utf-8"?>
<!-- Generator: Adobe Illustrator 28.0.0, SVG Export Plug-In . SVG Version: 6.00 Build 0)  -->
<svg version="1.1" id="Layer_1" xmlns="http://www.w3.org/2000/svg" xmlns:xlink="http://www.w3.org/1999/xlink" x="0px" y="0px"
	 viewBox="0 0 70 87.5" style="enable-background:new 0 0 70 87.5;" xml:space="preserve">
<style type="text/css">
	.st0{fill:#7C7C7C;}
</style>
<g>
	<path class="st0" d="M34.3,18.9c0-0.8-0.6-1.4-1.4-1.4s-1.4,0.6-1.4,1.4v14.8l-9.3,9.3c-0.3,0.3-0.4,0.6-0.4,1s0.1,0.7,0.4,1
		c0.3,0.3,0.6,0.4,1,0.4c0.3,0,0.5-0.1,0.7-0.2l10-9.9c0.3-0.3,0.4-0.6,0.4-1V18.9z"/>
	<path class="st0" d="M60.7,45.4c1.4-3.6,2.1-7.4,2.1-11.1c0-16.5-13.4-29.9-29.9-29.9C16.4,4.4,3,17.8,3,34.3
		c0,16.5,13.4,29.8,29.9,29.8c3.9,0,7.6-0.7,11-2.1c2.2,2.2,5.2,3.6,8.5,3.6c6.5,0,11.9-5.3,11.9-11.9
		C64.2,50.5,62.9,47.5,60.7,45.4z M45.4,59.7c-0.1-0.1-0.2-0.2-0.3-0.3c-1.2-1.5-1.9-3.4-1.9-5.5c0-5,4.1-9.1,9.1-9.1
		c2.2,0,4.2,0.8,5.8,2.1c0,0,0,0,0,0c2,1.7,3.3,4.2,3.3,7c0,5-4.1,9.1-9.1,9.1C49.6,62.9,47.1,61.7,45.4,59.7z M32.9,52.7
		c-0.8,0-1.4,0.6-1.4,1.4v2.6c-2.6-0.1-5.1-0.7-7.6-1.7c-2.3-1-4.3-2.3-6.1-3.8l2-2c0.4-0.5,0.4-1.2,0-1.7c-0.2-0.3-0.6-0.5-1-0.5
		c-0.4,0-0.7,0.1-1,0.4L16,49.2c-3.4-3.8-5.4-8.5-5.7-13.5h2.8c0.8,0,1.4-0.6,1.4-1.4S13.9,33,13.1,33h-2.8c0.1-2.5,0.7-5,1.7-7.5
		c1-2.3,2.3-4.4,3.9-6.2l2,2c0.3,0.3,0.6,0.4,1,0.4c0.4,0,0.7-0.1,1-0.4c0.5-0.5,0.5-1.4,0-1.9l-2-2c3.8-3.3,8.6-5.3,13.7-5.6v3
		c0,0.8,0.6,1.4,1.4,1.4c0.8,0,1.4-0.6,1.4-1.4v-3c2.4,0.2,4.9,0.7,7.2,1.7c2.4,1,4.4,2.4,6.2,4l-1.8,1.9c-0.3,0.3-0.4,0.6-0.4,1
		c0,0.8,0.6,1.4,1.4,1.4c0.4,0,0.8-0.2,1-0.5l1.8-1.8c3.3,3.8,5.2,8.5,5.5,13.5h-2.8c-0.8,0-1.4,0.6-1.4,1.4s0.6,1.4,1.4,1.4h2.8
		c-0.1,2.1-0.6,4.2-1.3,6.3c-0.5-0.1-1-0.1-1.5-0.1c-6.5,0-11.9,5.3-11.9,11.9c0,0.5,0,1,0.1,1.5c-2,0.8-4.2,1.2-6.3,1.4V54
		C34.3,53.2,33.7,52.7,32.9,52.7z M58.5,43.6c-0.6-0.4-1.3-0.7-2-1c1-2.7,1.5-5.5,1.5-8.3c0-6.7-2.7-12.8-7-17.3
		c-0.1-0.2-0.2-0.3-0.3-0.5c-0.1-0.1-0.3-0.2-0.5-0.3c-4.5-4.3-10.6-7-17.3-7C19,9.2,7.7,20.5,7.7,34.3c0,6.9,2.8,13.1,7.3,17.6
		c0.1,0.1,0.1,0.1,0.2,0.2c4.6,4.5,10.8,7.3,17.7,7.3c2.9,0,5.7-0.5,8.4-1.5c0.2,0.6,0.5,1.3,0.9,1.8C35.7,62.2,28.4,62,22,59.1
		c-6.7-2.9-11.8-8.3-14.5-15C4.9,37.4,5.1,30,8,23.4C14,9.8,30.1,3.5,43.8,9.5C57,15.2,63.3,30.3,58.5,43.6z"/>
	<path class="st0" d="M49.3,58.2c0.3,0.3,0.6,0.4,1,0.4c0.4,0,0.8-0.2,1-0.4l6.9-6.9c0.4-0.5,0.4-1.2,0-1.7c-0.2-0.3-0.6-0.5-1-0.5
		c-0.4,0-0.7,0.1-1,0.4l-5.9,5.9l-1.9-1.9c-0.5-0.5-1.3-0.5-1.9,0.1c-0.2,0.2-0.4,0.5-0.4,0.9c0,0.4,0.2,0.7,0.5,1L49.3,58.2z"/>
</g>
</svg>
