<?xml version="1.0" encoding="utf-8"?>
<!-- Generator: Adobe Illustrator 28.0.0, SVG Export Plug-In . SVG Version: 6.00 Build 0)  -->
<svg version="1.1" id="Layer_1" xmlns="http://www.w3.org/2000/svg" xmlns:xlink="http://www.w3.org/1999/xlink" x="0px" y="0px"
	 viewBox="0 0 95 118.8" style="enable-background:new 0 0 95 118.8;" xml:space="preserve">
<style type="text/css">
	.st0{fill:#7C7C7C;}
</style>
<g>
	<path class="st0" d="M11.9,16.1H29c0.8,0,1.5-0.7,1.5-1.5c0-0.9-0.6-1.6-1.5-1.6H12c-0.9,0-1.6,0.7-1.6,1.6
		C10.4,15.5,11,16.1,11.9,16.1z"/>
	<path class="st0" d="M11.9,11.9H29c0.8,0,1.5-0.7,1.5-1.5c0-0.9-0.6-1.6-1.5-1.6H12c-0.9,0-1.6,0.7-1.6,1.6
		C10.4,11.2,11.1,11.9,11.9,11.9z"/>
	<path class="st0" d="M67.3,29.7c5.7,0,10.4-4.7,10.4-10.4c0-5.7-4.7-10.4-10.4-10.4c-5.6,0-10.4,4.8-10.4,10.4
		C56.9,25,61.6,29.7,67.3,29.7z M66.9,17.2c0-0.3,0.2-0.5,0.5-0.5s0.5,0.2,0.5,0.6c0,0.2,0,0.3,0.1,0.4c-0.2,0-0.4,0-0.6,0
		C67.1,17.7,66.9,17.5,66.9,17.2z M67.8,21.3c0,0.3-0.2,0.5-0.5,0.5c-0.2,0-0.5-0.2-0.5-0.6c0-0.2,0-0.3-0.1-0.4c0.2,0,0.4,0,0.6,0
		C67.5,20.8,67.8,21,67.8,21.3z M68.9,25v-0.5c1.3-0.5,2.1-1.8,2.1-3.2c0-1-0.4-1.9-1.1-2.6c0.6-0.2,1.1-0.8,1.1-1.5
		c0-1.4-0.9-2.7-2.1-3.2v-0.6c0-0.9-0.7-1.5-1.6-1.5c-0.9,0-1.5,0.7-1.5,1.6V14c-1.3,0.5-2.1,1.8-2.1,3.2c0,1,0.4,1.9,1.1,2.6
		c-0.6,0.2-1.1,0.8-1.1,1.5c0,1.4,0.9,2.7,2.1,3.2v0.6c0,0.6,0.4,1.2,0.9,1.4C63,26.2,60,23,60,19.2c0-4,3.3-7.3,7.3-7.3
		s7.3,3.3,7.3,7.3c0,3.8-2.9,6.9-6.6,7.3C68.6,26.2,68.9,25.7,68.9,25z"/>
	<path class="st0" d="M11.8,20.3c0.1,0,0.1,0,0.2,0h8.7c0.8,0,1.5-0.7,1.5-1.5c0-0.9-0.6-1.6-1.5-1.6H12c-0.9,0-1.6,0.7-1.6,1.6
		c0,0.5,0.2,0.9,0.5,1.2C11.2,20.2,11.5,20.3,11.8,20.3z"/>
	<path class="st0" d="M20.6,83.1h-8.8c-0.9,0-1.5,0.7-1.5,1.6c0,0.9,0.7,1.5,1.6,1.5h8.7c0.9,0,1.6-0.7,1.6-1.6
		C22.2,83.8,21.5,83.1,20.6,83.1z"/>
	<path class="st0" d="M60.2,86.2h12.4V48H60.2V86.2z M69.5,51.1v32h-6.2v-32H69.5z"/>
	<path class="st0" d="M77.3,34.1c0.7,0.5,1.6,0.8,2.5,0.8c2.5,0,4.5-2,4.5-4.5s-2-4.5-4.5-4.5s-4.5,2-4.5,4.5c0,0.3,0,0.7,0.1,1.1
		l-4.7,3.3c-2.1-1.7-5-1.7-7.1,0L61,32.9c0.1-0.3,0.1-0.7,0.1-1.1c0-2.5-1.9-4.4-4.4-4.5c-0.8,0-1.5,0.2-2.2,0.6
		c-4.9-8.7-16-12-24.9-7.3c-9.1,4.7-12.6,16-7.8,25.2c0.9,1.6,1.7,2.8,2.6,3.8l-1.5,2.1l-0.5-0.4c-0.6-0.5-1.5-0.4-2,0.1l-9.4,9
		c-1.4,1.3-2.2,2.9-2.3,4.7c-0.2,1.8,0.5,3.5,2,4.7l2.6,2c0.9,0.7,2,1.1,3.1,1.1c0.6,0,1.2-0.1,1.8-0.3c1.8-0.6,3.3-1.8,4.1-3.3
		l6.5-11.3c0.4-0.7,0.3-1.5-0.4-2.1l-0.5-0.4l1.4-1.9c2.6,1.5,5.7,2.2,8.9,2.2c0.7,0,1.4,0,2.2-0.1c9.9-1.1,17-9.6,16.5-19.5
		c0.9,0,1.7-0.3,2.3-0.9l2.7,1.9c-0.4,1.3-0.4,2.6,0.2,3.9c0.6,1.4,1.7,2.4,3.1,3c1.4,0.6,2.9,0.6,4.3,0c1.4-0.6,2.4-1.7,3-3.1
		c0.5-1.2,0.5-2.6,0.1-3.9L77.3,34.1z M78.4,30.5c0-0.7,0.7-1.4,1.4-1.4c0.7,0,1.4,0.5,1.4,1.4c0,0.7-0.5,1.4-1.4,1.4
		C79.1,31.9,78.4,31.4,78.4,30.5z M69.8,39.1c0,1.4-1.1,2.5-2.5,2.5c-1.4,0-2.5-1.1-2.5-2.5s1.1-2.5,2.5-2.5S69.8,37.7,69.8,39.1z
		 M26.7,51.9c0,0,0.1,0.1,0.1,0.1l-1.3,1.6l-0.1-0.1L26.7,51.9z M27.6,48.5l-0.4-0.4c-2.9-3-4.5-6.9-4.4-11c0-4.2,1.7-8.1,4.7-11
		c3-2.9,6.8-4.4,10.9-4.4c0.1,0,0.1,0,0.2,0c4.1,0.1,8,1.7,10.9,4.7c1.4,1.5,2.3,2.9,3,4.4c-0.1,0.5-0.1,0.9-0.1,1.3l-0.8,0.3
		c-0.9-2.4-2.4-4.6-4.4-6.1c-6.1-4.8-15-3.9-19.9,2.2c-2.4,2.9-3.4,6.6-3,10.3c0.4,3.7,2.3,7.1,5.2,9.5c2.9,2.4,6.6,3.4,10.3,3
		c3.7-0.4,7.1-2.3,9.5-5.2c2.4-3,3.5-6.8,3-10.6l1.3-0.5c0,0,0,0,0,0c0.1,0.1,0.1,0.2,0.2,0.2c0.7,4.1-0.4,8.4-3.1,11.8l0,0
		c-4.8,6.1-13.5,7.6-20.2,3.7l-0.5-0.3c-0.2-0.2-0.4-0.3-0.7-0.5c-0.2-0.1-0.4-0.3-0.6-0.4C28.2,49.2,27.9,48.9,27.6,48.5z
		 M39.6,48.3c-6,0.7-11.5-3.6-12.1-9.6c-0.3-2.9,0.5-5.7,2.3-8c1.8-2.3,4.4-3.8,7.2-4.1c0.4,0,0.8-0.1,1.2-0.1
		c4.6,0,8.8,2.9,10.4,7.3l-3.1,1.3c-1.1-1.5-2.6-2.3-4.4-2.3c-3.1,0-5.6,2.5-5.6,5.6s2.5,5.6,5.6,5.6c3.1,0,5.6-2.5,5.6-5.6
		c0-0.2,0-0.4,0-0.6l2.5-1C49.6,42.6,45.4,47.7,39.6,48.3z M41.2,40.8c-1.4,0-2.5-1.1-2.5-2.5c0-1.4,1.1-2.5,2.5-2.5
		c1.4,0.1,2.5,1.2,2.5,2.5C43.7,39.7,42.6,40.8,41.2,40.8z M25.4,57.7l-5.8,10c-0.6,0.9-1.4,1.6-2.3,2c-0.8,0.3-1.6,0.2-2.1-0.3
		l-2.6-2c-0.6-0.5-0.9-1.2-0.8-2c0.1-1.1,0.6-2.1,1.3-2.8l8.5-8L25.4,57.7z M58.2,31.9c-0.1,0.8-0.7,1.4-1.4,1.4
		c-0.7,0-1.4-0.5-1.4-1.4c0-0.7,0.5-1.4,1.4-1.4C57.5,30.5,58.2,31,58.2,31.9z"/>
	<path class="st0" d="M73.9,41.4v44.8h12.4V41.4H73.9z M77,83.1V44.5h6.2v38.6H77z"/>
	<path class="st0" d="M32.8,86.2h12.4V64.6H32.8V86.2z M42.1,67.7v15.4h-6.2V67.7H42.1z"/>
	<path class="st0" d="M29,74.7H11.8c-0.9,0-1.5,0.7-1.5,1.6c0,0.9,0.7,1.5,1.6,1.5h17c0.9,0,1.6-0.7,1.6-1.6c0-0.5-0.2-0.9-0.5-1.2
		C29.7,74.7,29.3,74.6,29,74.7z"/>
	<path class="st0" d="M29,78.9H11.8c-0.9,0-1.5,0.7-1.5,1.6c0,0.9,0.7,1.5,1.6,1.5h17c0.9,0,1.6-0.7,1.6-1.6
		C30.5,79.5,29.9,78.9,29,78.9z"/>
	<path class="st0" d="M46.5,86.2h12.4V55H46.5V86.2z M55.8,58.1v25h-6.2v-25H55.8z"/>
</g>
</svg>
