<?xml version="1.0" encoding="utf-8"?>
<!-- Generator: Adobe Illustrator 28.0.0, SVG Export Plug-In . SVG Version: 6.00 Build 0)  -->
<svg version="1.1" id="Layer_1" xmlns="http://www.w3.org/2000/svg" xmlns:xlink="http://www.w3.org/1999/xlink" x="0px" y="0px"
	 viewBox="0 0 64 80" style="enable-background:new 0 0 64 80;" xml:space="preserve">
<style type="text/css">
	.st0{fill:#7C7C7C;}
</style>
<g>
	<path class="st0" d="M42,18.5H22c-2,0-3.5,1.5-3.5,3.5v36c0,2,1.5,3.5,3.5,3.5h20c2,0,3.5-1.5,3.5-3.5V22C45.5,20,44,18.5,42,18.5z
		 M21.5,22c0-0.3,0.2-0.5,0.5-0.5h20c0.3,0,0.5,0.2,0.5,0.5v36c0,0.3-0.2,0.5-0.5,0.5H22c-0.3,0-0.5-0.2-0.5-0.5V22z"/>
	<path class="st0" d="M35.5,36.7h-7v5.8h-5.8v7h5.8v5.8h7v-5.8h5.8v-7h-5.8V36.7z M31.5,40.7v-1h1v1H31.5z M34.3,43.7v4.6h-4.6v-4.6
		H34.3z M32.5,51.3v1h-1v-1H32.5z M26.7,45.5v1h-1v-1H26.7z M37.3,46.5v-1h1v1H37.3z"/>
	<path class="st0" d="M41.5,22.5h-7v7h7V22.5z M37.5,26.5v-1h1v1H37.5z"/>
	<path class="st0" d="M29.5,22.5h-7v7h7V22.5z M25.5,26.5v-1h1v1H25.5z"/>
	<path class="st0" d="M34.2,15.5l2.1-2.1l-0.5-0.5c-1-1-2.4-1.6-3.9-1.6c-1.5,0-2.9,0.6-3.9,1.7l-0.3,0.4l2.1,2.1l0.4-0.4
		c1-1,2.7-1,3.7,0L34.2,15.5z"/>
	<path class="st0" d="M37.4,12.3l2.1-2.1l-0.4-0.4c-1.9-1.9-4.4-2.9-7.1-2.9c-2.8,0-5.3,1.1-7.1,3l-0.3,0.4l1.9,1.9h0.2
		c0.2,0,0.3-0.1,0.4-0.2c0,0,0.1,0,0.1-0.1l0.2-0.1c2.7-2.6,6.9-2.5,9.5,0.2L37.4,12.3z"/>
	<path class="st0" d="M24.4,8.6c2.1-2,4.9-3.1,7.8-3c2.9,0.1,5.7,1.2,7.7,3.3l0.3,0.3l2.1-2l-0.2-0.3c-0.1-0.2-0.3-0.4-0.5-0.5
		C36.2,1.1,27.3,1.3,22,6.8l-0.3,0.4l2.1,2.1L24.4,8.6z"/>
	<circle class="st0" cx="32" cy="16.6" r="1.5"/>
</g>
</svg>
