<?xml version="1.0" encoding="utf-8"?>
<!-- Generator: Adobe Illustrator 28.0.0, SVG Export Plug-In . SVG Version: 6.00 Build 0)  -->
<svg version="1.1" id="Layer_1" xmlns="http://www.w3.org/2000/svg" xmlns:xlink="http://www.w3.org/1999/xlink" x="0px" y="0px"
	 viewBox="0 0 100 125" style="enable-background:new 0 0 100 125;" xml:space="preserve">
<style type="text/css">
	.st0{fill:#FFFFFF;}
</style>
<g>
	<path class="st0" d="M86.7,60.1C86.7,60,86.7,60,86.7,60.1c0-0.1,0.1-0.2,0.1-0.3h5.8c1.3,0,2.3-1,2.3-2.3v-15c0-1.3-1-2.3-2.3-2.3
		h-5.8c-1-4-2.6-7.8-4.7-11.1l4.1-4.1c0.9-0.9,0.9-2.3,0-3.2L75.6,11c-0.4-0.4-1-0.6-1.6-0.6s-1.2,0.3-1.6,0.6l-4.1,4.1
		c-3.5-2.1-7.3-3.7-11.1-4.7V4.8c0-1.3-1-2.3-2.3-2.3H39.8c-1.3,0-2.3,1-2.3,2.3v5.8c-4,1-7.8,2.6-11.1,4.7l-4-4.2
		c-0.9-0.9-2.3-0.9-3.2,0L8.4,21.7c-0.4,0.4-0.6,1-0.6,1.6c0,0.6,0.2,1.1,0.6,1.6l4.1,4.1c-2.1,3.3-3.6,7-4.7,11.1H2.1
		c-1.3,0-2.3,1-2.3,2.3v15.1c0,1.3,1,2.3,2.3,2.3h5.8c1,4,2.6,7.8,4.7,11.1L8.4,75c-0.4,0.4-0.7,1-0.7,1.6c0,0.6,0.2,1.2,0.7,1.6
		L19.1,89c0.4,0.4,1,0.6,1.6,0.6c0.6,0,1.1-0.2,1.6-0.6l4.1-4.1c3.5,2.1,7.3,3.7,11.1,4.7v5.8c0,1.3,1,2.3,2.3,2.3h15.1
		c1.3,0,2.3-1,2.3-2.3v-5.8c2.2-0.5,4.5-1.3,6.8-2.3c3.3,6.3,9.9,10.3,17,10.3c10.6,0,19.2-8.6,19.2-19.2
		C100.1,69.9,94.7,62.6,86.7,60.1z M81,93c-8.1,0-14.7-6.6-14.7-14.7c0-8,6.6-14.6,14.7-14.6c4.3,0,8.1,1.8,10.8,4.8
		c-0.8-0.5-1.6-0.8-2.7-0.8c-1.3,0-2.5,0.5-3.4,1.3l-8.2,8.2l-1.9-2.4c-0.9-1.1-2.3-1.8-3.7-1.8c-1.1,0-2.2,0.4-2.9,1
		c-0.9,0.7-1.5,1.8-1.8,3.1c-0.2,1.2,0.1,2.4,1,3.5l5,6.3c0.9,1.2,2.4,2,3.8,2c1.3,0,2.5-0.5,3.4-1.3l11.9-11.9
		c0.9-0.9,1.4-2.1,1.4-3.4c0-0.5-0.1-0.9-0.2-1.4c1.3,2.2,2,4.7,2,7.4C95.6,86.5,89,93,81,93z M40.2,85.3c-4.7-0.9-9-2.7-12.9-5.3
		c-0.9-0.6-2.1-0.5-2.8,0.3L20.7,84l-7.5-7.5l3.7-3.7c0.8-0.8,0.9-2,0.3-2.8c-2.7-4.1-4.5-8.5-5.3-12.9c-0.1-1-1.1-1.8-2.2-1.8H4.4
		V44.6h5.4c1,0,1.9-0.7,2.2-1.8c0.9-4.7,2.7-9,5.3-12.9c0.6-0.9,0.5-2.1-0.3-2.8l-3.7-3.7l7.5-7.5l3.7,3.7c0.8,0.8,2,0.9,2.8,0.3
		c4.1-2.7,8.5-4.5,12.9-5.3c1-0.1,1.8-1.1,1.8-2.2V7h10.6v5.4c0,1,0.7,1.9,1.8,2.2c4.7,0.9,9,2.7,12.9,5.3c0.9,0.6,2.1,0.5,2.8-0.3
		l3.7-3.7l7.5,7.5l-3.7,3.7c-0.8,0.8-0.9,2-0.3,2.8c2.7,4.1,4.5,8.5,5.3,12.9c0.1,1,1.1,1.8,2.2,1.8h5.4v10.6h-5.3
		c-1,0-1.9,0.7-2.2,1.8c-0.1,0.4-0.2,0.8-0.3,1.3c-0.1,0.3-0.1,0.5-0.2,0.8c-1.8-0.2-3.8,0-5.8,0.5c1.1-3.3,1.7-6.8,1.7-10.2
		c0-17-13.8-30.8-30.8-30.8c-17,0-30.8,13.8-30.8,30.8c0,17,13.8,30.8,30.8,30.8c5,0,10-1.2,14.5-3.6c-0.1,0.5-0.1,1.1-0.1,1.6
		c0,1.5,0.2,3.1,0.5,4.5c-2.5,1.1-5,2-7.9,2.6l0,0c-1,0.2-1.7,1-1.9,2.1v5.3H42v-5.3C42,86.5,41.3,85.6,40.2,85.3z M21.1,49.6
		c0-14.5,11.8-26.3,26.3-26.3c14.5,0,26.3,11.8,26.3,26.3c0,4.5-1.2,9-3.4,12.8c-2.9,1.9-5.2,4.6-6.7,7.8
		c-4.5,3.5-10.3,5.5-16.2,5.6C32.9,75.9,21.1,64.1,21.1,49.6z M89.1,72.3c0.1,0.1,0.1,0.1,0.1,0.1c0,0,0,0.1,0,0.1l-12,11.9
		c-0.1,0.1-0.2,0.1-0.3,0c0-0.1-0.1-0.2-0.2-0.3l-4.9-6.2l0-0.1c0,0,0-0.1,0.1-0.2c0,0,0.1,0,0.2,0l3.4,4.4c0.3,0.4,0.9,0.7,1.6,0.9
		c0.9,0.2,1.6-0.4,1.8-0.6l10-10C89,72.1,89,72.1,89.1,72.3z"/>
	<path class="st0" d="M71.5,49.5c0-13.3-10.8-24.1-24.1-24.1c-13.3,0-24.2,10.9-24.2,24.2c0,13.2,10.9,24,24.2,24
		C60.7,73.6,71.5,62.8,71.5,49.5z M67,49.6c0,10.8-8.8,19.6-19.6,19.6c-10.8,0-19.6-8.8-19.6-19.6S36.6,30,47.4,30
		C58.2,30,67,38.8,67,49.6z"/>
	<path class="st0" d="M49.6,46.6V33.9c0-1.3-1-2.3-2.3-2.3c-1.3,0-2.3,1-2.3,2.3v14.7l-8.7,5.1c-0.5,0.3-0.9,0.8-1,1.4
		c-0.2,0.6-0.1,1.2,0.2,1.7c0.4,0.7,1.1,1.2,1.9,1.2c0.3,0,0.8,0,1.1-0.3l6.8-3.9c0.4,0.6,1.1,0.9,1.8,0.9c1.3,0,2.3-1,2.3-2.3v-1
		l1-0.5c0.5-0.3,0.9-0.8,1-1.4c0.2-0.6,0.1-1.2-0.2-1.7C50.9,47.1,50.3,46.7,49.6,46.6z"/>
</g>
</svg>
