<?xml version="1.0" encoding="utf-8"?>
<!-- Generator: Adobe Illustrator 28.0.0, SVG Export Plug-In . SVG Version: 6.00 Build 0)  -->
<svg version="1.1" id="Layer_1" xmlns="http://www.w3.org/2000/svg" xmlns:xlink="http://www.w3.org/1999/xlink" x="0px" y="0px"
	 viewBox="0 0 66 82.5" style="enable-background:new 0 0 66 82.5;" xml:space="preserve">
<style type="text/css">
	.st0{fill:#FFFFFF;}
</style>
<g>
	<path class="st0" d="M57.8,1H8.2C4.2,1,1,4.2,1,8.2v40.1c0,4,3.2,7.2,7.2,7.2h32.7l8,8c1.1,1.1,2.5,1.6,4,1.6c1.5,0,2.9-0.6,4-1.6
		c2.2-2.2,2.2-5.7,0-7.9l0,0h1.1c4,0,7.2-3.2,7.2-7.2V8.2C65,4.2,61.8,1,57.8,1z M18.5,44.7c-5.4-5.4-5.4-14.2,0-19.7
		c2.6-2.6,6.1-4.1,9.8-4.1s7.2,1.4,9.8,4.1c4.6,4.7,5.3,12.2,1.5,17.8c-0.5,0.7-1,1.3-1.6,1.9c-0.2,0.2-0.4,0.4-0.7,0.6
		c-0.4,0.4-0.9,0.8-1.3,1.1C30.6,50.2,23.2,49.5,18.5,44.7z M39.4,47.5c0.3-0.2,0.5-0.5,0.8-0.7c0.4-0.4,0.6-0.7,0.9-1l0.6,0.6
		l-1.9,2l-0.6-0.6C39.2,47.6,39.3,47.6,39.4,47.5z M44.4,44c-0.3,0-0.5,0.1-0.7,0.3l-1-1c3.9-6.5,2.8-14.9-2.6-20.4
		C37,19.8,32.8,18,28.3,18c0,0,0,0,0,0c-4.5,0-8.7,1.8-11.9,4.9c-6.5,6.6-6.5,17.3,0,23.7c3.2,3.2,7.4,4.9,11.9,4.9
		c3,0,5.8-0.8,8.4-2.3l1,1c-0.2,0.3-0.3,0.6-0.3,1c0,0.4,0.2,0.7,0.4,0.9l0.2,0.2H8.3c-2.4,0-4.3-1.9-4.3-4.3v-31h31.5
		c1.2,0,2.3-0.7,2.9-1.8l0.8-1.5c0.1-0.2,0.3-0.3,0.4-0.3h12.5c0.1,0,0.3,0.1,0.4,0.2l0.8,1.5c0.6,1.1,1.8,1.8,2.9,1.8H62l0.1,31.2
		c0,2.4-1.9,4.3-4.3,4.3h-4.1l-8.2-8.2C45.2,44.1,44.8,44,44.4,44z M55.1,12.5c-0.6-1.1-1.8-1.8-2.9-1.8H39.6
		c-1.2,0-2.3,0.7-2.9,1.8l-0.8,1.5c-0.1,0.2-0.3,0.3-0.4,0.3H4V7.7H3.9C4.2,5.6,6,3.9,8.2,3.9h49.6c2.4,0,4.3,1.9,4.3,4.3v6h-5.8
		c-0.1,0-0.3-0.1-0.4-0.2L55.1,12.5z M44.5,47.6l10.1,10.1c0.5,0.5,0.8,1.1,0.8,1.8c0,0.7-0.3,1.3-0.7,1.9c-1,1-2.7,1-3.8,0l-10-10
		L44.5,47.6z"/>
	<path class="st0" d="M10.4,5.2C8.3,5.2,6.6,6.9,6.6,9s1.7,3.8,3.8,3.8c2.1,0,3.8-1.7,3.8-3.8C14.2,6.9,12.5,5.2,10.4,5.2z
		 M11.3,9.1c0,0.5-0.4,0.9-0.9,0.9c-0.5,0-0.9-0.5-0.9-0.9s0.4-0.9,0.9-0.9C10.9,8.2,11.3,8.6,11.3,9.1z"/>
	<path class="st0" d="M20,5.2c-2.1,0-3.8,1.7-3.8,3.8s1.7,3.8,3.8,3.8s3.8-1.7,3.8-3.8S22.1,5.2,20,5.2z M20,8.2
		c0.5,0,0.9,0.4,0.9,0.9c0,0.5-0.5,0.9-0.9,0.9c-0.5,0-0.9-0.4-0.9-0.9S19.5,8.2,20,8.2z"/>
	<path class="st0" d="M29.5,5.2c-2.1,0-3.8,1.7-3.8,3.8s1.7,3.8,3.8,3.8s3.8-1.7,3.8-3.8S31.6,5.2,29.5,5.2z M29.5,8.2
		c0.5,0,0.9,0.4,0.9,0.9S30,10,29.5,10s-0.9-0.4-0.9-0.9S29,8.2,29.5,8.2z"/>
	<path class="st0" d="M37.9,40.5c0-0.1-0.1-0.3-0.1-0.3V40l-0.7-1c0.1-0.1,0.1-0.3,0.2-0.4c0.1-0.2,0.1-0.3,0.2-0.5l1-0.2
		c1.1-0.1,1.8-1.1,1.8-2.2l0-1.9c-0.1-1.1-0.9-1.9-2-2.1l-1-0.2c0-0.1,0-0.1-0.1-0.2c-0.1-0.3-0.2-0.5-0.3-0.8l0.6-0.8
		c0.6-0.9,0.5-2.1-0.3-2.8l-1.2-1.2c-0.8-0.8-2-0.9-2.8-0.3l-0.9,0.6c-0.1-0.1-0.3-0.1-0.4-0.2c-0.1-0.1-0.3-0.1-0.5-0.2l-0.2-1
		c-0.1-1.1-1.1-1.9-2.2-1.9h-1.8c-1,0-1.9,0.8-2.2,1.9l-0.2,1c-0.1,0-0.2,0.1-0.3,0.1c-0.1,0-0.1,0.1-0.1,0.1c0,0,0,0,0,0h-0.1
		l-0.4,0.2l-0.8-0.6c-0.9-0.6-2.1-0.5-2.8,0.3L19.2,27c-0.8,0.8-0.9,2-0.3,2.8l0.6,0.9c-0.1,0.1-0.1,0.3-0.2,0.4
		c-0.1,0.1-0.1,0.3-0.2,0.5l-1,0.2c-1.1,0.1-1.9,1.1-1.9,2.2v1.8c0,1,0.8,1.9,1.9,2.2l1,0.2c0.1,0.3,0.3,0.6,0.4,0.9L19,39.9
		c-0.3,0.4-0.4,0.8-0.4,1.3c0,0.7,0.3,1.2,0.6,1.7l1.2,1.2c0.8,0.8,2,0.9,2.8,0.3l0.9-0.6c0.3,0.1,0.6,0.3,0.9,0.4l0.2,1
		c0.1,1,1.1,1.8,2.2,1.8h1.8c1.1,0,2.1-0.8,2.2-1.8l0.2-1c0,0,0.1,0,0.1,0c0.3-0.1,0.5-0.2,0.8-0.3l0.8,0.6c0.9,0.6,2.1,0.5,2.8-0.3
		l1.3-1.3C38.1,42.1,38.2,41.4,37.9,40.5z M22.5,40.1c0.3-0.5,0.3-1,0-1.7c-0.3-0.5-0.6-1.2-0.8-1.8c-0.2-0.6-0.7-1.1-1.2-1.1
		c0,0,0,0,0,0l-1.4-0.2v-0.6l1.4-0.2c0.6-0.2,1-0.5,1.2-1c0.2-0.7,0.5-1.3,0.8-1.9c0.3-0.5,0.3-1.2,0-1.7l-0.8-1.2l0.4-0.4l1.1,0.8
		c0.5,0.3,1,0.3,1.7,0c0.1-0.1,0.3-0.2,0.4-0.2c0.1-0.1,0.2-0.1,0.4-0.2l1.1-0.3c0.6-0.2,1.1-0.7,1.1-1.2l0.2-1.4h0.7l0.2,1.4
		c0.1,0.5,0.5,1,1,1.2c0.6,0.2,1.2,0.4,1.9,0.7c0.5,0.3,1.2,0.3,1.7,0l1.1-0.8l0.4,0.4L34,29.8c-0.3,0.5-0.3,1,0,1.7
		c0.4,0.5,0.6,1.2,0.8,1.9c0.2,0.6,0.7,1.1,1.2,1.1c0,0,0,0,0,0l1.3,0.2l0,0.5l-1.5,0.2c-0.8,0.2-1.1,0.7-1.2,1
		c-0.2,0.7-0.5,1.3-0.8,2c-0.3,0.5-0.3,1.2,0,1.7l0.8,1.1l-0.4,0.4l-1.1-0.8c-0.5-0.3-1.1-0.3-1.6,0c-0.6,0.4-1.2,0.6-1.8,0.7
		c-0.4,0.1-0.9,0.4-1.1,1.2L28.6,44H28l-0.2-1.4c-0.2-0.8-0.7-1.1-1-1.2c-0.6-0.2-1.2-0.4-1.9-0.7c-0.5-0.3-1.2-0.3-1.7,0l-1.2,0.8
		l-0.4-0.4L22.5,40.1z"/>
	<path class="st0" d="M28.2,40.1c2.9,0,5.2-2.3,5.2-5.2c0.1-1.3-0.4-2.6-1.4-3.6c-1-1-2.4-1.6-3.8-1.6c-2.9,0-5.2,2.3-5.2,5.2
		S25.3,40.1,28.2,40.1z M25.9,34.9c0-1.3,1-2.3,2.3-2.3c1.3,0,2.3,1,2.3,2.3c0,0.6-0.2,1.1-0.5,1.5c-0.4,0.5-1.1,0.7-1.8,0.7
		C26.9,37.2,25.9,36.2,25.9,34.9z"/>
</g>
</svg>
