<svg width="35" height="17" viewBox="0 0 35 17" fill="none" xmlns="http://www.w3.org/2000/svg">
<path d="M2.28155 8.68281C4.96404 5.64266 7.89135 7.41608 9.01969 8.68281C9.9394 8.96384 10.0203 8.33152 9.94577 7.98024C8.4129 5.83425 5.8156 5.68097 4.70856 5.87257C3.40564 6.00031 2.35606 6.71351 1.99413 7.05414C0.05252 8.4848 -0.113538 10.9927 0.0461331 12.0678C0.48044 15.0824 3.07989 16.4109 4.32533 16.6983C7.46767 17.2859 9.38159 15.6445 9.94577 14.7503C10.2268 13.6773 9.44548 13.7497 9.01969 13.92C5.95402 16.8069 3.25024 15.1229 2.28155 13.92C0.646519 11.8762 1.60029 9.57696 2.28155 8.68281Z" fill="#115DA0"/>
<path d="M11.9257 16.2512V9.16181C12.5133 8.39538 13.0008 8.84247 13.1712 9.16181V16.2512C12.6347 17.1965 12.1173 16.6451 11.9257 16.2512Z" fill="#115DA0"/>
<path d="M17.8016 13.441C17.7505 12.2403 18.6106 12.1104 19.0471 12.1956L20.548 10.3434C19.2706 9.29593 17.7803 10.056 17.1949 10.5669C15.7131 12.0487 16.2368 13.6752 16.6839 14.3032C17.7314 15.7594 19.0364 15.7616 19.558 15.5806C20.2989 15.6062 21.1441 14.91 21.4741 14.5587C22.266 14.4054 22.3576 14.9632 22.3044 15.2613C21.3847 16.5642 19.7496 16.826 19.0471 16.7941C17.1821 16.743 15.992 15.538 15.6301 14.9419C14.5827 13.5624 15.0233 11.6633 15.3746 10.8863C16.1921 9.32787 17.8868 8.78924 18.6319 8.71473C20.3947 8.51035 21.6018 9.33212 21.985 9.76856C22.215 10.1007 22.0808 10.354 21.985 10.4392L19.8454 12.9301C19.9476 13.6198 19.5048 13.9839 19.2706 14.0797C18.3509 14.4374 17.9081 13.8029 17.8016 13.441Z" fill="#115DA0"/>
<path d="M24.0927 16.2512V6.35159C24.6803 5.45743 25.1891 5.97902 25.3701 6.35159V16.2512C24.8336 17.1454 24.2949 16.6238 24.0927 16.2512Z" fill="#115DA0"/>
<g clip-path="url(#clip0_9247_36038)">
<path fill-rule="evenodd" clip-rule="evenodd" d="M27.9503 15.4772C26.3905 13.7273 27.0884 10.8719 27.2153 8.75C29.0183 8.86002 29.0276 8.74993 31.0395 8.75C30.8491 8.97529 33.0714 10.6799 32.8917 10.8895C31.2737 9.26011 29.4202 10.1908 29.4889 10.1908C29.3567 10.1908 28.7698 10.699 28.8174 10.6623C27.6383 11.7259 27.4744 13.6277 28.6059 14.9008C29.7533 16.1897 31.7942 16.3102 33.0949 15.0213C33.2747 15.2362 33.465 15.4614 33.6607 15.6867C32.1273 17.2061 29.4836 17.1904 27.9555 15.4719L27.9503 15.4772Z" fill="#115DA0"/>
<path fill-rule="evenodd" clip-rule="evenodd" d="M34.9981 11.8774L33.9512 12.3804C34.0093 12.721 34.0093 13.0667 33.9512 13.4073L34.9981 13.9103C34.9981 12.6895 34.9981 13.1558 34.9981 11.8774Z" fill="#115DA0"/>
<path fill-rule="evenodd" clip-rule="evenodd" d="M33.8931 12.1193L34.9981 11.5325V10.1284C34.9188 10.1808 34.2209 10.9929 33.708 11.6059C33.8561 11.9255 33.8878 12.1193 33.8931 12.1193Z" fill="#115DA0"/>
<path fill-rule="evenodd" clip-rule="evenodd" d="M33.8931 13.6699L34.9981 14.2515V15.6556C34.9188 15.6032 34.2209 14.7911 33.708 14.1781C33.8561 13.8585 33.8878 13.6699 33.8931 13.6699Z" fill="#115DA0"/>
<circle cx="31" cy="13" r="2" fill="#115DA0"/>
</g>
<path d="M4.60195 6.77056H5.75158C5.75158 6.46397 5.87931 5.89769 5.94318 5.65287C6.37749 3.76236 7.76343 2.5446 8.40212 2.17203C11.0897 0.409258 13.8224 1.43754 14.8529 2.17203C16.2324 2.81072 17.0883 4.75871 17.3437 5.65287C17.497 5.98499 17.5566 6.7067 17.5673 7.02605C17.7972 7.66473 18.323 7.52635 18.5572 7.37732L19.132 6.7067C19.2853 6.17021 20.3668 5.31224 20.8884 4.95032C22.549 3.80068 24.7099 4.02422 25.5828 4.2797C27.1923 4.61181 28.4675 6.03608 28.9039 6.7067C29.6193 7.52422 29.8833 9.19758 29.9258 9.93207C30.028 9.80433 30.7348 9.79368 31.0755 9.80433C31.1777 9.03791 30.82 7.86698 30.6284 7.37732C30.0919 5.71674 28.4036 4.34356 27.6266 3.86455C25.9149 2.63827 23.2303 2.82135 22.1019 3.06618C20.5435 3.34719 19.0895 4.73741 18.5572 5.3974C18.4806 4.8609 18.0356 3.91777 17.8227 3.51327C16.8775 1.87824 15.2361 0.894649 14.5335 0.607236C12.9751 -0.23583 10.7546 -0.0208057 9.83916 0.19209C7.79537 0.651944 6.26253 2.29975 5.75158 3.06618C4.75523 4.42019 4.57001 6.09994 4.60195 6.77056Z" fill="#115DA0"/>
<defs>
<clipPath id="clip0_9247_36038">
<rect width="8.04745" height="8.04745" fill="white" transform="translate(26.9521 8.75)"/>
</clipPath>
</defs>
</svg>
