<?xml version="1.0" encoding="UTF-8"?>
<svg id="Layer_1" data-name="Layer 1" xmlns="http://www.w3.org/2000/svg" viewBox="0 0 432 288">
  <defs>
    <style>
      .cls-1 {
        fill: #e05b36;
      }

      .cls-2 {
        fill: #215688;
      }
    </style>
  </defs>
  <path class="cls-2" d="M221.51,56.83c27.35,1.49,53.69,18.35,67.06,42.09,1.07,1.9,3.58,6.54,3.76,8.55.23,2.68-2.79,2.57-4.86,2.9-26.13,4.17-40.47-7.4-62.41-17.42-28.49-13.01-56.28-9.06-77.66,14.23-5.34,5.81-9.19,12.41-13.25,19.12-.41.07-.3-.19-.28-.47.2-3.22,1.46-7.71,2.41-10.84,9.84-32.38,40.4-56.34,74.27-58.16,3.32-.18,7.66-.18,10.98,0Z"/>
  <path class="cls-2" d="M297.95,155.33c.37.3.63,1.62.63,2.11-.14,15.7-10.75,34.97-20.92,46.49-34.22,38.73-97.97,35.84-128.92-5.32-1.84-2.45-7.24-10.26-7.45-13-.02-.21.05-.96.42-.8.22.1,1.69,1.33,2,1.6,3.44,3.02,6.17,6.01,9.97,8.77,18.83,13.7,42.05,18.55,64.05,9.21,22.35-9.49,34.15-33.19,56.11-43.28,5.24-2.41,11.85-4.63,17.54-5.56,1.26-.2,5.73-.92,6.58-.22Z"/>
  <path class="cls-1" d="M192.7,112.17c27.76-1.7,46.32,29.09,31.36,52.75-12.4,19.61-40.69,21.67-55.65,3.8-18.03-21.54-3.64-54.84,24.29-56.55Z"/>
</svg>