<?xml version="1.0" encoding="UTF-8"?>
<svg id="Layer_2" xmlns="http://www.w3.org/2000/svg" xmlns:xlink="http://www.w3.org/1999/xlink" version="1.1" viewBox="0 0 1206 365">
  <!-- Generator: Adobe Illustrator 29.0.1, SVG Export Plug-In . SVG Version: 2.1.0 Build 192)  -->
  <defs>
    <style>
      .st0 {
        fill: #ebedef;
      }

      .st1 {
        fill: url(#linear-gradient2);
      }

      .st2 {
        fill: url(#linear-gradient1);
      }

      .st3 {
        fill: url(#linear-gradient9);
      }

      .st4 {
        fill: url(#linear-gradient3);
      }

      .st5 {
        fill: url(#linear-gradient6);
      }

      .st6 {
        fill: url(#linear-gradient8);
      }

      .st7 {
        fill: url(#linear-gradient7);
      }

      .st8 {
        fill: url(#linear-gradient5);
      }

      .st9 {
        fill: url(#linear-gradient4);
      }

      .st10 {
        fill: url(#linear-gradient13);
      }

      .st11 {
        fill: url(#linear-gradient12);
      }

      .st12 {
        fill: url(#linear-gradient11);
      }

      .st13 {
        fill: url(#linear-gradient10);
      }

      .st14 {
        fill: url(#linear-gradient);
      }

      .st15 {
        fill: #e2dcde;
      }

      .st16 {
        fill: #212121;
      }

      .st17 {
        fill: none;
        stroke: url(#linear-gradient14);
        stroke-miterlimit: 10;
      }

      .st18, .st19 {
        fill: #fff;
      }

      .st20 {
        fill: #b0b0b0;
      }

      .st20, .st21, .st19 {
        isolation: isolate;
        opacity: .5;
      }

      .st22 {
        fill: #646766;
      }

      .st21 {
        fill: #010101;
      }
    </style>
    <linearGradient id="linear-gradient" x1="195.9" y1="224.3" x2="268.5" y2="224.3" gradientTransform="translate(0 364) scale(1 -1)" gradientUnits="userSpaceOnUse">
      <stop offset="0" stop-color="#d97a26"/>
      <stop offset=".2" stop-color="#de8425"/>
      <stop offset=".6" stop-color="#eba225"/>
      <stop offset="1" stop-color="#ffcd25"/>
    </linearGradient>
    <linearGradient id="linear-gradient1" x1="176.7" y1="258.2" x2="265.3" y2="258.2" gradientTransform="translate(0 364) scale(1 -1)" gradientUnits="userSpaceOnUse">
      <stop offset="0" stop-color="#d66126"/>
      <stop offset=".2" stop-color="#dc7226"/>
      <stop offset=".7" stop-color="#ee9e26"/>
      <stop offset="1" stop-color="#fabc27"/>
    </linearGradient>
    <linearGradient id="linear-gradient2" x1="215.9" y1="198.3" x2="264.5" y2="198.3" gradientTransform="translate(0 364) scale(1 -1)" gradientUnits="userSpaceOnUse">
      <stop offset="0" stop-color="#a42524"/>
      <stop offset="1" stop-color="#e32f2b"/>
    </linearGradient>
    <linearGradient id="linear-gradient3" x1="216.7" y1="173.9" x2="237.7" y2="137.5" gradientTransform="translate(0 364) scale(1 -1)" gradientUnits="userSpaceOnUse">
      <stop offset="0" stop-color="#b82828"/>
      <stop offset=".2" stop-color="#c62a29"/>
      <stop offset=".7" stop-color="#e12f2c"/>
      <stop offset="1" stop-color="#eb312d"/>
    </linearGradient>
    <linearGradient id="linear-gradient4" x1="158" y1="272.1" x2="246.9" y2="272.1" gradientTransform="translate(0 364) scale(1 -1)" gradientUnits="userSpaceOnUse">
      <stop offset="0" stop-color="#6b8c24"/>
      <stop offset="0" stop-color="#719426"/>
      <stop offset=".5" stop-color="#8cb330"/>
      <stop offset=".8" stop-color="#9dc636"/>
      <stop offset="1" stop-color="#a3cd39"/>
    </linearGradient>
    <linearGradient id="linear-gradient5" x1="161.2" y1="166.6" x2="219.8" y2="166.6" gradientTransform="translate(0 364) scale(1 -1)" gradientUnits="userSpaceOnUse">
      <stop offset="0" stop-color="#e77e20"/>
      <stop offset=".3" stop-color="#e77920"/>
      <stop offset=".5" stop-color="#e86d22"/>
      <stop offset=".8" stop-color="#ea5924"/>
      <stop offset="1" stop-color="#ed4627"/>
    </linearGradient>
    <linearGradient id="linear-gradient6" x1="122.5" y1="162.9" x2="210.8" y2="162.9" gradientTransform="translate(0 364) scale(1 -1)" gradientUnits="userSpaceOnUse">
      <stop offset="0" stop-color="#f59323"/>
      <stop offset=".4" stop-color="#f27a24"/>
      <stop offset="1" stop-color="#ee4c26"/>
    </linearGradient>
    <linearGradient id="linear-gradient7" x1="147.8" y1="267.2" x2="207.8" y2="267.2" gradientTransform="translate(0 364) scale(1 -1)" gradientUnits="userSpaceOnUse">
      <stop offset="0" stop-color="#618120"/>
      <stop offset=".4" stop-color="#7da22f"/>
      <stop offset=".8" stop-color="#8fb739"/>
      <stop offset="1" stop-color="#96bf3d"/>
    </linearGradient>
    <linearGradient id="linear-gradient8" x1="102.7" y1="178.8" x2="186.8" y2="178.8" gradientTransform="translate(0 364) scale(1 -1)" gradientUnits="userSpaceOnUse">
      <stop offset="0" stop-color="#c33d94"/>
      <stop offset=".3" stop-color="#ab2b7f"/>
      <stop offset="1" stop-color="#70004d"/>
    </linearGradient>
    <linearGradient id="linear-gradient9" x1="100.4" y1="210.2" x2="175.8" y2="210.2" gradientTransform="translate(0 364) scale(1 -1)" gradientUnits="userSpaceOnUse">
      <stop offset="0" stop-color="#c33e93"/>
      <stop offset=".3" stop-color="#b12783"/>
      <stop offset=".7" stop-color="#9b0b6f"/>
      <stop offset="1" stop-color="#930168"/>
    </linearGradient>
    <linearGradient id="linear-gradient10" x1="123.4" y1="251.2" x2="166.6" y2="251.2" gradientTransform="translate(0 364) scale(1 -1)" gradientUnits="userSpaceOnUse">
      <stop offset="0" stop-color="#0e71b9"/>
      <stop offset="0" stop-color="#0c6bb0"/>
      <stop offset=".4" stop-color="#085b98"/>
      <stop offset=".7" stop-color="#065289"/>
      <stop offset="1" stop-color="#064f85"/>
    </linearGradient>
    <linearGradient id="linear-gradient11" x1="104.2" y1="234.2" x2="155.8" y2="234.2" gradientTransform="translate(0 364) scale(1 -1)" gradientUnits="userSpaceOnUse">
      <stop offset="0" stop-color="#0e6bb0"/>
      <stop offset=".3" stop-color="#0d68ac"/>
      <stop offset=".5" stop-color="#0b62a3"/>
      <stop offset=".7" stop-color="#075792"/>
      <stop offset=".9" stop-color="#02487b"/>
      <stop offset="1" stop-color="#003f6e"/>
    </linearGradient>
    <linearGradient id="linear-gradient12" x1=".2" y1="276.4" x2="167.2" y2="276.4" gradientTransform="translate(0 364) scale(1 -1)" gradientUnits="userSpaceOnUse">
      <stop offset="0" stop-color="#fafbfb"/>
      <stop offset=".1" stop-color="#ebeced"/>
      <stop offset=".4" stop-color="#c6c7c8"/>
      <stop offset=".7" stop-color="#8b8c8d"/>
      <stop offset="1" stop-color="#58595b"/>
    </linearGradient>
    <linearGradient id="linear-gradient13" x1="196.8" y1="160.6" x2="365.7" y2="160.6" gradientTransform="translate(0 364) scale(1 -1)" gradientUnits="userSpaceOnUse">
      <stop offset="0" stop-color="#58595b"/>
      <stop offset=".2" stop-color="#656668"/>
      <stop offset=".4" stop-color="#8a8b8c"/>
      <stop offset=".7" stop-color="#c5c6c6"/>
      <stop offset="1" stop-color="#fff"/>
    </linearGradient>
    <linearGradient id="linear-gradient14" x1="3.3" y1="217.6" x2="3.3" y2="217.6" gradientTransform="translate(0 364) scale(1 -1)" gradientUnits="userSpaceOnUse">
      <stop offset="0" stop-color="#701851"/>
      <stop offset="1" stop-color="#70004d"/>
      <stop offset="1" stop-color="#70004d"/>
    </linearGradient>
  </defs>
  <g id="Layer_1-2">
    <path class="st22" d="M223,146.7c0,21.2-17.2,38.5-38.5,38.5s-38.5-17.2-38.5-38.5,17.2-38.5,38.5-38.5,38.5,17.2,38.5,38.5Z"/>
    <path class="st0" d="M342.7,108.1c-2.8-3.7-4.7-6.2-7.8-9.8l20.2-18.4-20.5-19.4-16.7,20c-13.3-12.3-26.9-20.9-43.6-29.4l.2-.3,12.3-23-28.8-10-6.3,23.3v.2c-17.6-6.4-36.3-10.5-55.8-12h0L198.1,0l-33.1.2,2.6,28.5v.4c-20.4,1.3-39.9,5.8-58,12.8l-6.5-24.5-29,10.6,12.6,24.5c-16,8.7-30.6,19.4-43.4,31.8l1.2-1.2-17.8-19.6-20.7,20.8,21.5,17c-2.1,2.5-2.5,3-4.4,5.6C13.8,119.1,6.1,132.3.2,146.1c5.9,13.3,13.6,25.9,22.7,37.6,36.2,46,93.9,80.2,160.1,78.4,66.6-1.9,123.6-32.4,159.9-79.6,8.8-11.5,16.8-24.1,22.5-37.1-5.4-13.4-14.1-25.6-22.9-37.4h0ZM198.3,230.5c-.9.1-1.9.2-2.9.3-4.1.4-8.2.6-12.3.7-4.5.1-9,0-13.4-.2-.9,0-1.8-.1-2.6-.2-55.5-3.7-102.4-34.2-127-76.3-2-3.1-3.9-6.2-5.7-9.4,18.5-36.9,55.2-65.5,100.1-77.7,1.4-.4,2.9-.8,4.4-1.1,0,0,0,0,0,0,1.5-.4,3-.7,4.5-1.1,1.6-.3,3.2-.7,4.8-1,2.5-.5,5-.9,7.6-1.3,8.9-1.3,18-2,27.3-2s8.4.1,12.6.4c5,.3,9.9.9,14.8,1.6,0,0,0,0,0,0,.7.1,1.5.2,2.2.3,2.2.3,4.4.7,6.5,1.2,1,.2,2,.4,3,.6,2.9.6,5.7,1.3,8.5,2,.9.2,1.9.5,2.8.8,3.8,1.1,7.5,2.3,11.1,3.6,1.2.4,2.4.9,3.6,1.3,1.2.4,2.3.9,3.5,1.4,1.1.4,2.2.9,3.3,1.4,1.1.5,2.1.9,3.2,1.4,32.5,14.8,58.4,39,73.1,68.3-22.9,45-73.1,78.6-132.9,84.8h0Z"/>
    <circle class="st20" cx="173.9" cy="130.3" r="10.4"/>
    <circle class="st19" cx="173.9" cy="129.7" r="9"/>
    <path class="st21" d="M219,147.1c0,19-15.4,34.3-34.3,34.3s-34.3-15.4-34.3-34.3,15.4-34.3,34.3-34.3,34.3,15.4,34.3,34.3h0Z"/>
    <circle class="st15" cx="184.3" cy="145.5" r="46.4"/>
    <path class="st16" d="M220.4,146.7c0,20.3-16.2,36.7-36.2,36.7s-36.2-16.4-36.2-36.7,16.2-36.7,36.2-36.7,36.2,16.4,36.2,36.7Z"/>
    <circle class="st15" cx="174.6" cy="129.5" r="10.6"/>
    <circle class="st15" cx="174.3" cy="129.1" r="8.6"/>
    <g>
      <path class="st14" d="M265.3,123.2c2.1,7.4,3.2,15.2,3.2,23.2s-.4,9.1-1.1,13.5c-.7,4.2-1.7,8.4-3,12.4-.9-2.3-1.9-4.6-3-6.8-3.5-7.1-8-13.6-13.3-19.4-4-4.4-8.5-8.4-13.4-11.9-5.4-3.8-11.2-7-17.4-9.5-.5-.2-1-.4-1.5-.6-2.2-3.1-4.8-5.9-7.8-8.2-3.6-2.8-7.8-5-12.2-6.4,2.7-.7,5.5-1.2,8.3-1.6,3.8-.5,7.7-.8,11.6-.8,8.6,0,17,1.3,24.9,3.8,8.9,2.8,17.2,7,24.6,12.4h0Z"/>
      <path class="st2" d="M263.5,117.7c.7,1.8,1.3,3.7,1.8,5.6-7.4-5.4-15.7-9.6-24.6-12.4-7.9-2.4-16.2-3.8-24.9-3.8s-7.8.3-11.6.8c-2.8.4-5.6.9-8.3,1.6-3.6-1.1-7.4-1.7-11.4-1.7h-.5c-2.5,0-4.9.3-7.2.8,1.2-1.1,2.5-2.1,3.8-3.1,4.9-3.7,10.1-6.9,15.8-9.4,5.1-2.3,10.5-4.2,16.1-5.5,6-1.4,12.3-2.1,18.8-2.1s6.1.2,9.1.5c2.2.2,4.5.6,6.6,1,7.2,8,12.9,17.4,16.6,27.7h0Z"/>
      <path class="st1" d="M261.5,165.5c1.1,2.2,2.1,4.5,3,6.8-3.2,10.1-8.3,19.3-14.8,27.3-2.2,2.7-4.5,5.2-7,7.6.6-4.1.9-8.3.9-12.6s-.6-11.4-1.7-16.8c-2.3-11.5-7-22.1-13.4-31.4-2-2.8-4.1-5.5-6.4-8.1-.9-4.4-2.6-8.5-4.9-12.2-.4-.7-.9-1.4-1.4-2.1.5.2,1,.4,1.5.6,6.2,2.5,12,5.7,17.4,9.5,4.9,3.5,9.4,7.4,13.4,11.9,5.3,5.8,9.8,12.3,13.3,19.4h0Z"/>
      <path class="st4" d="M243.6,194.7c0,4.3-.3,8.5-.9,12.6-8,7.7-17.5,13.9-28.1,18-4.1,1.6-8.4,2.9-12.8,3.8,1.7-2.1,3.2-4.3,4.7-6.6,4.4-6.8,7.8-14.3,10-22.2,1.4-5.1,2.4-10.3,2.9-15.8.2-2.5.3-5,.3-7.5s-.1-5.5-.4-8.2c-.1-1.6-.3-3.1-.6-4.7,1.3-2.6,2.4-5.4,3.1-8.4.7-2.9,1.1-6,1.1-9.2s-.3-5.5-.9-8.1c2.3,2.6,4.4,5.2,6.4,8.1,6.5,9.3,11.1,19.9,13.4,31.4,1.1,5.4,1.7,11.1,1.7,16.8h0Z"/>
      <path class="st9" d="M246.9,89.9c-2.2-.4-4.4-.8-6.6-1-3-.3-6-.5-9.1-.5-6.5,0-12.7.7-18.8,2.1-5.6,1.3-11,3.1-16.1,5.5-5.6,2.6-10.9,5.7-15.8,9.4-1.3,1-2.6,2-3.8,3.1-2.6.5-5.1,1.3-7.4,2.3-4.2,1.8-8.1,4.4-11.4,7.5.9-2.8,1.9-5.4,3-8,4.8-11,11.8-20.7,20.6-28.7,7.6-6.9,16.5-12.5,26.3-16.3,11.6,3.3,22.1,9.1,31,16.8,2.8,2.4,5.5,5,8,7.8h0Z"/>
      <path class="st8" d="M219.8,176.9c0,2.5-.1,5.1-.3,7.5-.5,5.4-1.5,10.7-2.9,15.8-2.3,7.9-5.7,15.4-10,22.2-1.5,2.3-3,4.5-4.7,6.6-5.6,1.2-11.4,1.8-17.4,1.8s-10.6-.5-15.7-1.5c-2.6-.5-5.1-1.1-7.6-1.8,9.7-3.8,18.5-9.3,26-16.1,8-7.3,14.6-16.2,19.4-26.1,1.6-3.4,3-6.9,4.2-10.5,1.3-1.2,2.5-2.5,3.6-3.8,1.7-2.1,3.2-4.4,4.5-6.9.2,1.5.4,3.1.6,4.7.3,2.7.4,5.4.4,8.2h0Z"/>
      <path class="st5" d="M210.7,174.7c-1.2,3.6-2.6,7.1-4.2,10.5-4.7,9.9-11.4,18.8-19.4,26.1-7.6,6.9-16.4,12.4-26,16.1-9.5-2.7-18.3-7.1-26.1-12.8-4.5-3.3-8.7-7.1-12.5-11.2,3.4.4,6.8.7,10.2.7h.8c6.5,0,12.7-.7,18.8-2.1,6.6-1.5,12.9-3.8,18.8-6.8,4.7-2.4,9.2-5.2,13.3-8.4.8-.6,1.6-1.2,2.3-1.9,2.2-.1,4.4-.4,6.6-1,6.6-1.6,12.6-4.9,17.4-9.4h0Z"/>
      <path class="st7" d="M195.5,62.8c4.2.5,8.4,1.4,12.4,2.6-9.8,3.8-18.7,9.3-26.3,16.3-8.7,7.9-15.8,17.7-20.6,28.7-1.1,2.6-2.2,5.3-3,8-2.4,2.3-4.5,4.8-6.2,7.7-1.1,1.7-2,3.5-2.8,5.4-.2-1.2-.4-2.5-.6-3.8-.4-3.4-.6-6.9-.6-10.4s0-4.1.2-6.1c.4-5.9,1.5-11.7,3-17.2,2.4-8.4,6.1-16.3,10.8-23.4,1.5-2.2,3.1-4.4,4.7-6.4,5.8-1.3,11.8-1.9,17.9-1.9s7.4.2,11,.7h0Z"/>
      <path class="st6" d="M184.5,185.1c.8,0,1.5,0,2.3,0-.8.6-1.5,1.2-2.3,1.9-4.1,3.2-8.6,6-13.3,8.4-5.9,3-12.2,5.3-18.8,6.8-6,1.4-12.3,2.1-18.8,2.1h-.8c-3.5,0-6.9-.3-10.2-.7-7-7.6-12.5-16.5-16.3-26.3-1.4-3.6-2.5-7.2-3.4-11,8.5,7.3,18.5,12.9,29.5,16.3,7.9,2.4,16.2,3.8,24.9,3.8s5.2-.1,7.8-.4c3.7-.3,7.3-.9,10.9-1.7,1.9.4,4,.8,6,.9.9,0,1.7,0,2.6,0h0Z"/>
      <path class="st3" d="M160.4,176.7c4.4,3.6,9.7,6.2,15.4,7.5-3.5.8-7.2,1.4-10.9,1.7-2.6.2-5.2.4-7.8.4-8.7,0-17-1.3-24.9-3.8-11-3.4-21-9-29.5-16.3-1.5-6.3-2.3-12.9-2.3-19.7s.3-8.5.9-12.6c.6-4.3,1.6-8.5,2.8-12.6.9,2.5,1.9,5,3.1,7.4,3.6,7.6,8.3,14.6,13.9,20.8,4.6,5.1,9.8,9.5,15.5,13.3,3.3,2.2,6.8,4.2,10.4,5.9,2.8,1.3,5.6,2.5,8.6,3.5,1.4,1.6,3,3.1,4.6,4.4h0Z"/>
      <path class="st13" d="M166.6,64c-1.7,2.1-3.3,4.2-4.7,6.4-4.7,7.1-8.4,15-10.8,23.5-1.6,5.5-2.6,11.3-3,17.2-.1,2-.2,4-.2,6.1,0,3.5.2,7,.6,10.4.2,1.3.3,2.5.6,3.8-1.7,4.1-2.8,8.5-3,13.1,0,.6,0,1.3,0,1.9,0,4.6.8,8.9,2.2,13,.3.7.5,1.4.8,2.1-2.8-2.7-5.4-5.7-7.9-8.8-7.9-10.1-13.4-22-16.1-35-1.1-5.4-1.7-11.1-1.7-16.8s.4-9.1,1.1-13.5c8.3-8.5,18.4-15.2,29.6-19.6,4-1.6,8.2-2.8,12.5-3.8h0Z"/>
      <path class="st12" d="M149,161.5c1.7,3.9,4,7.6,6.8,10.7-2.9-1-5.8-2.2-8.6-3.5-3.6-1.7-7.1-3.7-10.4-5.9-5.7-3.8-10.9-8.3-15.5-13.3-5.6-6.2-10.3-13.2-13.9-20.8-1.1-2.4-2.2-4.8-3.1-7.3,3.1-9.9,7.9-19,14.2-27,1.9-2.4,3.9-4.7,6.1-6.9-.7,4.4-1.1,8.9-1.1,13.5s.6,11.4,1.7,16.8c2.6,13,8.2,24.9,16.1,35,2.4,3.1,5,6.1,7.9,8.8h0Z"/>
    </g>
    <path class="st11" d="M167.2,29.1C100.5,49.1,49.9,105.3,34.4,145.5l-34.2.6C30,76.5,95.9,33.9,167.2,29.1Z"/>
    <path class="st10" d="M196.8,261.4c64.3-25,106.4-64.2,134.6-115.7l34.4-.3c-26.9,62.7-90,108.8-168.9,115.9h0Z"/>
    <line class="st17" x1="3.3" y1="146.4" x2="3.3" y2="146.4"/>
    <path class="st18" d="M30,293.3h9.1v62.8h30v7.6H30v-70.4Z"/>
    <path class="st18" d="M154.9,330.7h-27.5v25.4h30.6v7.6h-39.8v-70.6h38.2v7.6h-29.1v22.3h27.5v7.5h0Z"/>
    <path class="st18" d="M208.6,363.9v-70.9h10l22.8,35.9c5.3,8.3,9.4,15.8,12.8,23h.2c-.9-9.6-1.1-18.2-1.1-29.2v-29.6h8.7v70.9h-9.3l-22.6-36c-5-7.9-9.7-16-13.3-23.7h-.3c.5,9,.7,17.6.7,29.3v30.3h-8.7,0Z"/>
    <path class="st18" d="M310.2,352.8c4.1,2.5,10.1,4.6,16.4,4.6,9.3,0,14.8-4.9,14.8-12s-3.8-10.4-13.3-14c-11.5-4.1-18.7-10-18.7-20s9.1-19.2,22.9-19.2,12.5,1.7,15.6,3.5l-2.5,7.4c-2.3-1.3-7-3.4-13.4-3.4-9.6,0-13.3,5.8-13.3,10.6s4.3,9.8,14.1,13.6c12,4.6,18,10.4,18,20.7s-8.1,20.3-24.8,20.3-14.3-2-18-4.5l2.3-7.6h0Z"/>
  </g>
  <path class="st18" d="M477.1,255.7l-48.8-210.9h50.3l42.5,187.1h-31.6l118.7-187.1h50.6l-133.5,210.9h-48.2ZM633.8,255.7l32.2-162.1h46.7l-32.2,162.1h-46.7ZM697.4,71c-8.2,0-14.9-2.3-19.9-6.9-5-4.8-7.5-10.6-7.5-17.5s2.8-14.7,8.4-19.9c5.8-5.4,13.4-8.1,22.6-8.1s14.9,2.3,19.9,6.9c5.2,4.4,7.8,9.9,7.8,16.6s-2.9,15.7-8.7,21.1c-5.6,5.2-13.2,7.8-22.6,7.8ZM810.3,258.1c-16.9,0-31.5-3-44-9-12.3-6-21.8-14.5-28.6-25.3-6.8-10.8-10.2-23.6-10.2-38.3s4-34.1,12-48.2c8.2-14.3,19.5-25.5,33.7-33.7,14.5-8.2,31-12.4,49.7-12.4s29.5,3,41,9c11.4,5.8,20.3,14.1,26.5,24.7,6.4,10.4,9.6,23,9.6,37.7s-.3,8.4-.9,12.7c-.4,4.2-1,8.2-1.8,12.1h-134.1l4.8-27.4h107.2l-19.3,8.4c1.6-9,1.1-16.6-1.5-22.6-2.6-6.2-6.8-10.9-12.7-14.2-5.8-3.4-12.9-5.1-21.1-5.1s-19,2.5-26.2,7.5c-7,4.8-12.4,11.5-16,20.2-3.6,8.6-5.4,18.4-5.4,29.2s3.4,21.8,10.2,28c7,6,17.6,9,31.6,9s16.2-1.3,23.8-3.9c7.6-2.6,14.2-6.3,19.6-11.1l19.6,31c-9.4,7.4-20.1,13-31.9,16.6-11.6,3.4-23.6,5.1-35.8,5.1ZM948.9,255.7l-28.6-162.1h42.8l22.9,139.5h-22l77.7-139.5h40.4l23.5,139.5h-22l77.1-139.5h44.3l-89.5,162.1h-46.4l-22-119.6h13.9l-66.3,119.6h-45.8Z"/>
</svg>