<svg width="19" height="19" viewBox="0 0 19 19" fill="none" xmlns="http://www.w3.org/2000/svg">
<path d="M9.22205 1.53711C4.97764 1.53711 1.53687 4.97788 1.53687 9.2223C1.53687 13.4667 4.97764 16.9075 9.22205 16.9075C13.4665 16.9075 16.9072 13.4667 16.9072 9.2223C16.9072 4.97788 13.4665 1.53711 9.22205 1.53711Z" fill="#E6EEEF"/>
<path fill-rule="evenodd" clip-rule="evenodd" d="M12.0712 7.14111C12.3714 7.44123 12.3714 7.92783 12.0712 8.22796L8.99717 11.302C8.69705 11.6022 8.21045 11.6022 7.91032 11.302L6.37329 9.765C6.07316 9.46487 6.07316 8.97827 6.37329 8.67815C6.67341 8.37802 7.16001 8.37802 7.46014 8.67815L8.45375 9.67176L10.9844 7.14111C11.2845 6.84098 11.7711 6.84098 12.0712 7.14111Z" fill="#015A62"/>
</svg>
