<svg width="20" height="25" viewBox="0 0 20 25" fill="none" xmlns="http://www.w3.org/2000/svg">
<path d="M7.67972 0.807678C7.76436 0.832339 7.85234 0.833005 7.93899 0.847668C8.35469 0.920455 8.75331 1.0696 9.1147 1.28756C9.45795 1.49018 9.75921 1.74278 10.0291 2.03471C10.1444 2.16001 10.2518 2.29332 10.3444 2.43595C10.3579 2.46041 10.3782 2.4805 10.4027 2.49384C10.4273 2.50718 10.4551 2.51323 10.483 2.51126C10.835 2.50878 11.1846 2.56904 11.5154 2.68922C11.9261 2.83277 12.3045 3.05561 12.6292 3.34506C12.9746 3.65022 13.2548 4.02201 13.453 4.43812C13.6089 4.76138 13.7089 5.10263 13.7536 5.45921C13.7742 5.62317 13.7896 5.7878 13.7836 5.95309C13.7662 6.74794 13.4745 7.51232 12.9578 8.11656C12.7318 8.38274 12.4642 8.61053 12.1653 8.79106C12.114 8.82172 12.0966 8.85838 12.0946 8.9157C12.0806 9.26895 12.0733 9.62219 12.0613 9.97544C12.056 10.1381 12.0553 10.3007 12.048 10.4627C12.0327 10.8006 12.0273 11.1385 12.0147 11.4757C12.0087 11.6457 12.0073 11.8163 12.0013 11.9863C11.9987 12.0609 11.9867 12.1349 11.988 12.2102C11.99 12.3062 11.9933 12.3102 12.084 12.2889C12.2126 12.2589 12.3426 12.2362 12.4752 12.2436C12.8411 12.2635 13.163 12.3882 13.4343 12.6408C13.6663 12.8574 13.8162 13.1187 13.8835 13.4286C13.8995 13.5046 13.9109 13.5806 13.9109 13.6585C13.9095 14.0151 13.9155 14.3717 13.9055 14.7276C13.8995 14.9389 13.9015 15.1508 13.8915 15.3621C13.8789 15.6481 13.8729 15.9347 13.8602 16.2206C13.8509 16.4372 13.8402 16.6531 13.8295 16.8698C13.8169 17.117 13.8036 17.3643 13.7836 17.6109C13.7602 17.8988 13.7396 18.1868 13.7129 18.474C13.6787 18.8542 13.6358 19.2335 13.5843 19.6118C13.521 20.0616 13.4463 20.5095 13.3217 20.9481C13.2693 21.1373 13.1992 21.3212 13.1124 21.4973C12.9262 21.8805 12.7138 22.2504 12.4765 22.6044C12.3432 22.7976 12.1973 22.9816 12.0413 23.1576C11.8226 23.4021 11.5758 23.6199 11.3062 23.8067C11.032 23.9966 10.7357 24.1522 10.4237 24.27C10.0295 24.4185 9.61925 24.5205 9.20134 24.5739C9.00473 24.6005 8.80744 24.6245 8.60816 24.6259C8.58216 24.6259 8.55617 24.6259 8.53284 24.6399H7.71171C7.69085 24.6295 7.66761 24.6249 7.64439 24.6265C7.55175 24.6252 7.4591 24.6185 7.36646 24.6132C7.11151 24.5971 6.85749 24.5687 6.60531 24.5279C5.82484 24.4019 5.07835 24.1726 4.38185 23.7907C3.87015 23.5093 3.39645 23.1637 2.9722 22.7623C2.84514 22.6415 2.72134 22.5172 2.60096 22.3897C2.4342 22.2134 2.27542 22.0297 2.12507 21.8392C1.9569 21.6265 1.79531 21.4087 1.64052 21.186C1.37679 20.8156 1.15672 20.4159 0.984684 19.995C0.76162 19.4437 0.625153 18.8611 0.580117 18.2681C0.57945 18.2214 0.569952 18.1753 0.552124 18.1321V17.4656C0.567454 17.4403 0.569453 17.4116 0.572785 17.3836C0.586115 17.2657 0.596113 17.1477 0.612109 17.0297C0.681877 16.4644 0.852302 15.9161 1.11532 15.4108C1.29594 15.0709 1.51989 14.7643 1.80915 14.507C2.06042 14.2831 2.32169 14.0738 2.61295 13.9038C2.66028 13.8765 2.67627 13.8432 2.67494 13.7912C2.67161 13.6752 2.66761 13.5592 2.66294 13.4433C2.65228 13.1907 2.66161 12.9374 2.64695 12.6848C2.63362 12.4582 2.64561 12.2309 2.63228 12.0036C2.61762 11.751 2.63095 11.4977 2.61562 11.2451C2.60229 11.0185 2.61029 10.7912 2.60229 10.564C2.59229 10.2648 2.58629 9.96551 2.58429 9.66618C2.58163 9.32826 2.55897 8.99035 2.56563 8.65176L2.56497 8.62843C2.5663 8.59111 2.5503 8.56578 2.51764 8.54645C2.20135 8.35467 1.91801 8.11319 1.67852 7.8313C1.49519 7.61715 1.34079 7.37984 1.21929 7.12547C1.04522 6.76673 0.938589 6.37905 0.904704 5.98175C0.850772 5.43163 0.936747 4.8768 1.15464 4.36881C1.34845 3.9103 1.64193 3.50071 2.01377 3.16977C2.37902 2.84336 2.81157 2.60126 3.28079 2.46061C3.70735 2.33064 4.14325 2.30665 4.58381 2.33131C4.64246 2.33464 4.67445 2.32064 4.70444 2.27399C4.78618 2.14841 4.87873 2.03021 4.98104 1.92074C5.22379 1.65181 5.50797 1.42343 5.82284 1.24424C6.19823 1.0292 6.61217 0.889935 7.04121 0.834338C7.10452 0.82634 7.17051 0.831672 7.23183 0.807678H7.67972ZM2.69093 14.7729C2.65028 14.7789 2.63362 14.7963 2.61629 14.8103C2.51298 14.8956 2.40767 14.9796 2.3077 15.0689C1.95845 15.3835 1.71917 15.7707 1.56188 16.2113C1.40058 16.6638 1.34326 17.1337 1.3286 17.6102C1.32527 17.7109 1.3386 17.8115 1.3406 17.9115C1.34593 18.1468 1.37459 18.3801 1.41391 18.6113C1.4779 18.9866 1.57121 19.3538 1.70651 19.7097C1.79115 19.9317 1.88646 20.149 2.00377 20.3562C2.12574 20.5729 2.2697 20.7748 2.41367 20.9761C2.64028 21.2933 2.88555 21.5966 3.15216 21.8812C3.36077 22.1031 3.58138 22.3131 3.81733 22.507C4.16191 22.7903 4.53248 23.0336 4.93239 23.2309C5.29406 23.4092 5.67336 23.5492 6.06411 23.6488C6.46268 23.7507 6.86725 23.8147 7.27715 23.8507C7.57574 23.8774 7.875 23.88 8.17359 23.8914C8.25824 23.8947 8.34355 23.88 8.42887 23.8807C8.61549 23.882 8.80011 23.8654 8.98473 23.8434C9.37798 23.8014 9.76457 23.7112 10.1358 23.5748C10.529 23.4287 10.8915 23.2105 11.2049 22.9316C11.4504 22.7096 11.6681 22.4587 11.8534 22.1845C12.0546 21.8892 12.2253 21.5773 12.3906 21.2613C12.4772 21.0961 12.5485 20.9248 12.6005 20.7455C12.7258 20.3102 12.7951 19.8637 12.8551 19.4158C12.8871 19.1752 12.9158 18.9346 12.9378 18.6933C12.9551 18.4954 12.9771 18.2981 12.9931 18.1001C13.0071 17.9282 13.0164 17.7555 13.0284 17.5829C13.0424 17.3823 13.0604 17.1817 13.0704 16.9811C13.0797 16.7851 13.0917 16.5898 13.1004 16.3939C13.1124 16.1313 13.1184 15.868 13.1324 15.6054C13.141 15.4408 13.1377 15.2755 13.1457 15.1102C13.159 14.8476 13.1484 14.5836 13.1617 14.3204C13.171 14.1298 13.165 13.9385 13.1644 13.7472C13.167 13.5949 13.1225 13.4455 13.037 13.3195C12.9514 13.1935 12.829 13.0971 12.6865 13.0434C12.5931 13.0046 12.492 12.9882 12.3912 12.9954C12.2654 13.0111 12.1428 13.0466 12.028 13.1007C11.9827 13.12 11.9587 13.1487 11.9587 13.2007C11.9587 13.3813 11.9553 13.5619 11.944 13.7425C11.936 13.8712 11.94 14.0005 11.93 14.1291C11.9271 14.1926 11.9077 14.2542 11.8737 14.3078C11.8397 14.3615 11.7922 14.4053 11.7361 14.435C11.6619 14.4789 11.5737 14.4925 11.4897 14.4732C11.4057 14.4538 11.3323 14.4029 11.2848 14.331C11.2456 14.2667 11.2257 14.1924 11.2275 14.1171C11.2295 13.9671 11.2308 13.8178 11.2408 13.6685C11.2522 13.4886 11.2435 13.3073 11.2555 13.1267C11.2682 12.9387 11.2588 12.7501 11.2715 12.5621C11.2835 12.3849 11.2735 12.2062 11.2862 12.0283C11.2995 11.843 11.2895 11.657 11.3022 11.4711C11.3148 11.2885 11.3048 11.1052 11.3175 10.9219C11.3308 10.7339 11.3202 10.5453 11.3335 10.3567C11.3462 10.1794 11.3362 10.0008 11.3488 9.82281C11.3621 9.63486 11.3515 9.44623 11.3648 9.25761C11.3781 9.07499 11.3741 8.89104 11.3788 8.70842C11.3855 8.43515 11.3975 8.16188 11.4015 7.88795C11.4061 7.5447 11.4208 7.20212 11.4308 6.85887C11.4328 6.78155 11.4308 6.70357 11.4361 6.62692C11.4508 6.40564 11.4548 6.1837 11.4468 5.96242C11.4381 5.72114 11.3308 5.51719 11.1602 5.35323C10.9043 5.10729 10.5937 5.01532 10.2464 5.08997C10.0726 5.12272 9.90998 5.19928 9.77399 5.31242C9.638 5.42555 9.53312 5.5715 9.46928 5.73647C9.42618 5.85021 9.40383 5.97076 9.40329 6.09239C9.39596 6.27034 9.39196 6.4483 9.3833 6.62626C9.37064 6.88619 9.35064 7.14613 9.34264 7.40673C9.33731 7.57469 9.32598 7.74198 9.31998 7.90928C9.31631 8.02529 9.31165 8.14126 9.30598 8.25719C9.29665 8.42715 9.28466 8.59711 9.27933 8.76707C9.27266 8.96569 9.27866 9.1643 9.26733 9.36292C9.25267 9.61486 9.246 9.86813 9.23534 10.1207L9.20468 10.8786C9.19401 11.1392 9.18268 11.3991 9.17402 11.6597C9.16802 11.8456 9.15536 12.0309 9.15269 12.2169C9.15461 12.313 9.13116 12.408 9.08471 12.4922C9.02672 12.5921 8.91675 12.6368 8.77412 12.6161C8.6888 12.6035 8.63215 12.5388 8.60616 12.4262C8.58883 12.3522 8.59483 12.2769 8.59483 12.2022V4.33082C8.59483 4.29216 8.59216 4.2535 8.58749 4.21485C8.5515 3.93758 8.41154 3.7223 8.19093 3.55701C8.07357 3.465 7.93806 3.3989 7.79331 3.36306C7.64856 3.32722 7.49786 3.32244 7.35113 3.34906C7.07814 3.39507 6.83113 3.53859 6.65597 3.75296C6.53119 3.89671 6.45718 4.07752 6.44535 4.2675C6.43669 4.4088 6.43869 4.55076 6.43002 4.69273C6.42002 4.85202 6.42269 5.01265 6.41669 5.17261C6.40803 5.39189 6.40403 5.61117 6.3967 5.83045C6.38603 6.15304 6.37337 6.47496 6.36737 6.79755C6.36204 7.06348 6.35004 7.32875 6.33804 7.59402C6.32671 7.84663 6.31805 8.09923 6.30605 8.35184C6.29605 8.56845 6.30539 8.78506 6.29139 9.00234C6.27739 9.22362 6.29006 9.44623 6.27606 9.66818C6.26206 9.88946 6.27472 10.1121 6.26073 10.334C6.24673 10.55 6.2594 10.7672 6.2454 10.9839C6.2314 11.2051 6.2354 11.4278 6.2314 11.6497C6.22474 12.0136 6.20474 12.3775 6.21008 12.7414C6.21074 12.8087 6.20741 12.8761 6.19475 12.942C6.14542 13.2013 5.91215 13.2953 5.70153 13.214C5.5449 13.154 5.47492 13.0254 5.46759 12.8621C5.46237 12.7488 5.45815 12.6355 5.45493 12.5222C5.44493 12.2176 5.4336 11.9136 5.42293 11.6097L5.39227 10.7279C5.38161 10.4213 5.37561 10.1141 5.35962 9.80748C5.35228 9.66551 5.35228 9.52355 5.34629 9.38225C5.33362 9.08099 5.32496 8.77907 5.31429 8.47714C5.30363 8.18321 5.2923 7.88928 5.2843 7.59535C5.2783 7.37074 5.26697 7.1468 5.26297 6.92218C5.25831 6.65425 5.24364 6.38565 5.23431 6.11771C5.23098 6.01441 5.23031 5.91176 5.22098 5.80846C5.20534 5.61735 5.14703 5.43218 5.05036 5.26659C4.96649 5.11987 4.84164 5.00081 4.69111 4.92401C4.5331 4.84508 4.35671 4.81031 4.18057 4.82336C4.02499 4.82965 3.87358 4.87553 3.74068 4.95666C3.51807 5.0933 3.38343 5.29525 3.31145 5.54186C3.26841 5.69864 3.25174 5.86149 3.26213 6.02374C3.27479 6.27368 3.26346 6.52428 3.27812 6.77489C3.29212 7.00683 3.27946 7.23944 3.29279 7.47138C3.30745 7.71866 3.29412 7.9666 3.30878 8.21454C3.32278 8.45115 3.31012 8.68909 3.32411 8.92636C3.33811 9.17097 3.32611 9.41624 3.34011 9.66152C3.35344 9.89612 3.34144 10.1307 3.35477 10.366C3.36944 10.6106 3.35677 10.8559 3.37077 11.1012C3.38476 11.3358 3.3721 11.5704 3.38543 11.8057C3.39943 12.0529 3.38743 12.3009 3.40143 12.5488C3.41476 12.7808 3.40276 13.0134 3.41609 13.2453C3.43009 13.4952 3.41809 13.7459 3.43275 13.9958C3.44608 14.2251 3.43809 14.455 3.44608 14.685C3.45675 14.9789 3.45541 15.2735 3.46541 15.5674C3.47141 15.7507 3.47408 15.934 3.47674 16.1166C3.48207 16.5218 3.50274 16.9271 3.49874 17.3323C3.50023 17.4118 3.47543 17.4896 3.42818 17.5536C3.38094 17.6176 3.3139 17.6642 3.23747 17.6862C3.01419 17.7575 2.76425 17.5936 2.75492 17.363C2.74959 17.2417 2.74226 17.121 2.73892 16.9997C2.73292 16.7831 2.73759 16.5665 2.72626 16.3492C2.71226 16.0839 2.72293 15.818 2.70893 15.5521C2.70027 15.3921 2.70626 15.2322 2.70426 15.0715C2.70226 14.9729 2.6856 14.8762 2.69093 14.7729ZM19.7668 4.66607C19.7481 4.77937 19.6568 4.83669 19.5795 4.90268C19.3909 5.06331 19.2009 5.2226 19.0116 5.38189C18.9842 5.40541 18.9557 5.42765 18.9263 5.44854C18.8946 5.4713 18.8572 5.48489 18.8183 5.48783C18.7794 5.49077 18.7404 5.48294 18.7057 5.46521C18.629 5.43055 18.6064 5.36323 18.6044 5.28725C18.6017 5.18927 18.6037 5.0913 18.6024 4.99266C18.6017 4.90868 18.5937 4.90068 18.5071 4.90068H17.5306C17.4493 4.90068 17.4433 4.90668 17.4433 4.98999V6.00508C17.4433 6.08306 17.4507 6.08906 17.5273 6.09039C17.6253 6.09172 17.7239 6.08839 17.8219 6.09305C17.9352 6.09772 17.9992 6.15704 18.0205 6.26368C18.0258 6.29043 18.0247 6.31803 18.0174 6.34429C18.0101 6.37055 17.9968 6.39476 17.9785 6.41498C17.9092 6.50162 17.8386 6.58693 17.7673 6.67225L17.406 7.10681C17.3713 7.1488 17.3367 7.19079 17.2927 7.22278C17.2419 7.2573 17.1804 7.2722 17.1194 7.26473C17.0585 7.25725 17.0024 7.22789 16.9614 7.18212C16.8941 7.11081 16.8341 7.03349 16.7708 6.95818C16.6395 6.80221 16.5076 6.64692 16.3769 6.49029C16.3527 6.46339 16.3313 6.43414 16.3129 6.40298C16.233 6.25768 16.3129 6.10638 16.4776 6.09305C16.5495 6.08706 16.6222 6.09039 16.6942 6.09039C16.8221 6.08972 16.8228 6.09039 16.8228 5.96375V4.97999C16.8202 4.90934 16.8142 4.90134 16.7402 4.90134H15.7564C15.6844 4.90134 15.6771 4.91001 15.6758 4.98199C15.6744 5.05197 15.6751 5.12129 15.6758 5.19127C15.6764 5.2326 15.6664 5.27325 15.6644 5.31458C15.6584 5.42988 15.4985 5.51853 15.3865 5.43588C15.2992 5.3719 15.2185 5.29925 15.1346 5.2306C14.9646 5.09197 14.7973 4.95 14.628 4.8107C14.4794 4.68873 14.4807 4.50211 14.6287 4.37881C14.8566 4.18819 15.0819 3.99557 15.3079 3.80361C15.3758 3.74563 15.4492 3.70897 15.5418 3.7383C15.6071 3.75829 15.6478 3.79895 15.6611 3.86693C15.6704 3.91492 15.6764 3.96357 15.6758 4.0129C15.6751 4.08021 15.6744 4.14753 15.6764 4.21418C15.6784 4.2675 15.6878 4.2755 15.7417 4.2795L15.7804 4.28016H16.7175L16.7642 4.2795C16.8015 4.2795 16.8221 4.2615 16.8221 4.22284L16.8228 4.16886V3.21576C16.8228 3.19776 16.8235 3.17977 16.8221 3.16177C16.8175 3.11445 16.8088 3.10378 16.7595 3.10245C16.6898 3.10023 16.62 3.10001 16.5502 3.10178C16.5012 3.10226 16.4522 3.09734 16.4043 3.08712C16.2763 3.05913 16.2203 2.92316 16.2976 2.81785C16.3616 2.73054 16.4329 2.64856 16.5022 2.56525C16.6455 2.39196 16.7888 2.21933 16.9328 2.04738C16.956 2.01864 16.9851 1.99519 17.0181 1.97861C17.0512 1.96204 17.0873 1.95271 17.1243 1.95126C17.1612 1.94981 17.198 1.95626 17.2322 1.9702C17.2664 1.98413 17.2973 2.00522 17.3227 2.03205C17.4247 2.14135 17.5186 2.25866 17.6153 2.37263C17.7219 2.4986 17.8279 2.62523 17.9352 2.75054C17.9792 2.80186 18.0059 2.85718 18.0012 2.92649C17.9945 3.01647 17.9505 3.06846 17.8619 3.08845C17.7726 3.10845 17.6819 3.10178 17.592 3.10245C17.4353 3.10312 17.444 3.09312 17.444 3.24908V4.15553C17.444 4.17619 17.4433 4.19685 17.4447 4.21751C17.4487 4.2695 17.4567 4.2775 17.5113 4.28083L17.55 4.2815H18.4951C18.5104 4.2815 18.5264 4.28216 18.5417 4.28083C18.5904 4.27683 18.6004 4.26883 18.6024 4.21951C18.605 4.14486 18.603 4.06955 18.6037 3.9949C18.6044 3.96424 18.6044 3.93225 18.611 3.90226C18.641 3.76562 18.7943 3.70364 18.9063 3.78828C19.0296 3.88159 19.1462 3.98357 19.2656 4.08221C19.3789 4.17619 19.4902 4.27283 19.6055 4.36348C19.6828 4.42413 19.7474 4.49011 19.7661 4.59075L19.7668 4.66607Z" fill="white"/>
</svg>
