<?xml version="1.0" encoding="UTF-8"?>
<svg id="Layer_1" data-name="Layer 1" xmlns="http://www.w3.org/2000/svg" viewBox="0 0 432 288">
  <defs>
    <style>
      .cls-1 {
        fill: #286391;
      }

      .cls-2 {
        fill: #e05b36;
      }

      .cls-3 {
        fill: #215688;
      }
    </style>
  </defs>
  <path class="cls-3" d="M220.11,46.31c20.13,1.1,39.53,13.51,49.37,30.99.79,1.4,2.64,4.82,2.77,6.3.17,1.97-2.06,1.89-3.58,2.14-19.23,3.07-29.8-5.45-45.95-12.82-20.98-9.58-41.44-6.67-57.18,10.48-3.93,4.28-6.77,9.14-9.76,14.08-.3.05-.22-.14-.21-.35.15-2.37,1.07-5.68,1.77-7.98,7.25-23.84,29.74-41.48,54.68-42.82,2.44-.13,5.64-.13,8.09,0Z"/>
  <path class="cls-2" d="M357.98,208.27l-9.34,31.99c-.28.15-.59.19-.9.21-2.45.2-5.27-.1-7.74-.07l-.26-.3-4.69-21.94-5.11,22.28-8.7.03-.41-.15c-3.03-10.77-6.15-21.53-8.99-32.34h9.13l5.16,22.02,4.4-22.01h8.75s4.62,21.73,4.62,21.73l5.03-21.73,9.05.13v.14Z"/>
  <path class="cls-1" d="M74.02,215.65c.61-3.29,1.21-6.49,2.67-9.53,4.16-8.65,13.86-12.13,22.98-10.06,7.3,1.66,13.27,7.37,13.52,15.12h-9.2c-1.11-3.68-2.87-6.44-6.83-7.32-18.8-4.16-17.61,35.38.94,28.96,3.67-1.27,4.53-4.41,6.09-7.57h8.99c-.87,7.39-6,13.69-13.21,15.71l-3.65.74h-3.9l-4.35-.88c-7.22-1.89-11.72-8.27-13.28-15.29-.3-1.34-.4-2.72-.77-4.04v-5.85Z"/>
  <path class="cls-1" d="M203.8,241.72c-1.14.11-3.17.09-4.32,0-19.67-1.6-19.45-32.7-.76-34.84,12.78-1.47,20.3,7.18,19.44,19.58-.53,7.7-6.52,14.54-14.36,15.26ZM200.43,214.3c-8.77.99-9.12,18.5-.28,20,11.75,1.99,12.12-21.33.28-20Z"/>
  <path class="cls-1" d="M148.18,241.72c-12.17-.78-16.56-11.88-14.12-22.69,3.48-15.47,25.07-16.36,29.63-1.39.14.46.66,2.21.66,2.55v6.48h-21.89c-1.08,7.23,9.51,11.6,12.69,4.18h8.57c.38,0,0,1.32-.08,1.59-1.44,5.55-7.76,8.94-13.09,9.28-.71.05-1.66.05-2.37,0ZM155.29,220.81c.09-8.73-12.66-8.68-12.55,0h12.55Z"/>
  <path class="cls-2" d="M293.57,241.72c-12.43-.78-16.82-12.17-14.15-23.14,3.66-15,25.17-15.76,29.52-.94.14.48.66,2.19.66,2.55v6.48h-21.89c-.9,5.08,4.85,9.54,9.57,7.55,1.8-.76,2.21-1.94,3.32-3.37h8.57c-.5,5.3-5.49,9.3-10.43,10.41-.91.21-2.07.41-2.95.46-.67.04-1.56.04-2.23,0ZM300.54,220.81c.11-8.73-12.63-8.68-12.55,0h12.55Z"/>
  <path class="cls-3" d="M276.39,118.83c.27.22.47,1.19.46,1.56-.1,11.56-7.91,25.75-15.41,34.23-25.19,28.51-72.13,26.38-94.92-3.92-1.35-1.8-5.33-7.55-5.49-9.57-.01-.15.03-.71.31-.59.17.07,1.24.98,1.47,1.18,2.53,2.23,4.54,4.42,7.34,6.46,13.86,10.09,30.96,13.66,47.16,6.78,16.45-6.99,25.14-24.44,41.31-31.87,3.86-1.77,8.72-3.41,12.92-4.09.93-.15,4.22-.67,4.84-.16Z"/>
  <path class="cls-2" d="M198.9,87.05c20.44-1.25,34.1,21.42,23.09,38.83-9.13,14.44-29.96,15.96-40.97,2.8-13.28-15.86-2.68-40.38,17.89-41.64Z"/>
  <path class="cls-2" d="M231.4,196.56l9.41,32.48,9.48-32.48h9.55l-14.76,43.82c-.1.14-1.91-.07-2.32-.06-1.29.02-2.9.3-4.18.3-.65,0-1.49-.27-2.2-.18l-.45-.53-14.51-43.06c-.11-.09.13-.29.15-.29h9.83Z"/>
  <path class="cls-1" d="M178.85,196.56v43.91h-8.43s-.21-.19-.21-.21v-43.49s.19-.21.21-.21h8.43Z"/>
  <path class="cls-1" d="M119.54,207.99h8.5s.21.19.21.21v32.06s-.19.21-.21.21h-8.5s-.21-.19-.21-.21v-32.06s.16-.14.21-.21Z"/>
  <path class="cls-2" d="M264.79,207.99h8.5s.21.19.21.21v32.06s-.19.21-.21.21h-8.5s-.21-.19-.21-.21v-32.06s.16-.14.21-.21Z"/>
</svg>