<?xml version="1.0" encoding="UTF-8"?>
<svg id="Layer_2" xmlns="http://www.w3.org/2000/svg" xmlns:xlink="http://www.w3.org/1999/xlink" version="1.1" viewBox="0 0 103.3 29.7">
  <!-- Generator: Adobe Illustrator 29.0.1, SVG Export Plug-In . SVG Version: 2.1.0 Build 192)  -->
  <defs>
    <style>
      .st0, .st1 {
        fill: none;
      }

      .st2, .st3, .st4, .st5 {
        isolation: isolate;
      }

      .st2, .st3, .st5 {
        opacity: .5;
      }

      .st2, .st6 {
        fill: #aeaeaf;
      }

      .st7 {
        fill: url(#linear-gradient2);
      }

      .st8 {
        fill: url(#linear-gradient1);
      }

      .st9 {
        fill: url(#linear-gradient9);
      }

      .st10 {
        fill: url(#linear-gradient3);
      }

      .st11 {
        fill: url(#linear-gradient6);
      }

      .st12 {
        fill: url(#linear-gradient8);
      }

      .st13 {
        fill: url(#linear-gradient7);
      }

      .st14 {
        fill: url(#linear-gradient5);
      }

      .st15 {
        fill: url(#linear-gradient4);
      }

      .st16 {
        fill: url(#linear-gradient13);
      }

      .st17 {
        fill: url(#linear-gradient12);
      }

      .st18 {
        fill: url(#linear-gradient11);
      }

      .st19 {
        fill: url(#linear-gradient10);
      }

      .st20 {
        fill: #231f20;
      }

      .st21 {
        fill: url(#linear-gradient);
      }

      .st22, .st5 {
        fill: #fff;
      }

      .st1 {
        stroke: #231f20;
        stroke-miterlimit: 10;
        stroke-width: 0px;
      }

      .st23 {
        fill: #015a62;
      }
    </style>
    <linearGradient id="linear-gradient" x1="15.8" y1="362.2" x2="21.7" y2="362.2" gradientTransform="translate(0 -350.8)" gradientUnits="userSpaceOnUse">
      <stop offset="0" stop-color="#d87a26"/>
      <stop offset=".2" stop-color="#dd8425"/>
      <stop offset=".6" stop-color="#eaa225"/>
      <stop offset="1" stop-color="#ffcd24"/>
    </linearGradient>
    <linearGradient id="linear-gradient1" x1="14.2" y1="359.4" x2="21.4" y2="359.4" gradientTransform="translate(0 -350.8)" gradientUnits="userSpaceOnUse">
      <stop offset="0" stop-color="#d56126"/>
      <stop offset=".2" stop-color="#dc7226"/>
      <stop offset=".7" stop-color="#ee9e26"/>
      <stop offset="1" stop-color="#fabb26"/>
    </linearGradient>
    <linearGradient id="linear-gradient2" x1="17.4" y1="364.3" x2="21.4" y2="364.3" gradientTransform="translate(0 -350.8)" gradientUnits="userSpaceOnUse">
      <stop offset="0" stop-color="#a32424"/>
      <stop offset="1" stop-color="#e32e2b"/>
    </linearGradient>
    <linearGradient id="linear-gradient3" x1="17.5" y1="366.3" x2="19.2" y2="369.3" gradientTransform="translate(0 -350.8)" gradientUnits="userSpaceOnUse">
      <stop offset="0" stop-color="#b72828"/>
      <stop offset=".2" stop-color="#c62a29"/>
      <stop offset=".7" stop-color="#e12e2c"/>
      <stop offset="1" stop-color="#eb302d"/>
    </linearGradient>
    <linearGradient id="linear-gradient4" x1="12.7" y1="358.3" x2="19.9" y2="358.3" gradientTransform="translate(0 -350.8)" gradientUnits="userSpaceOnUse">
      <stop offset="0" stop-color="#6b8c24"/>
      <stop offset="0" stop-color="#719326"/>
      <stop offset=".5" stop-color="#8bb230"/>
      <stop offset=".8" stop-color="#9cc536"/>
      <stop offset="1" stop-color="#a2cc39"/>
    </linearGradient>
    <linearGradient id="linear-gradient5" x1="12.9" y1="366.9" x2="17.7" y2="366.9" gradientTransform="translate(0 -350.8)" gradientUnits="userSpaceOnUse">
      <stop offset="0" stop-color="#e77e20"/>
      <stop offset=".3" stop-color="#e77920"/>
      <stop offset=".5" stop-color="#e86d22"/>
      <stop offset=".8" stop-color="#ea5924"/>
      <stop offset="1" stop-color="#ed4627"/>
    </linearGradient>
    <linearGradient id="linear-gradient6" x1="9.8" y1="367.2" x2="17" y2="367.2" gradientTransform="translate(0 -350.8)" gradientUnits="userSpaceOnUse">
      <stop offset="0" stop-color="#f59223"/>
      <stop offset=".4" stop-color="#f27924"/>
      <stop offset="1" stop-color="#ed4b26"/>
    </linearGradient>
    <linearGradient id="linear-gradient7" x1="11.8" y1="358.7" x2="16.7" y2="358.7" gradientTransform="translate(0 -350.8)" gradientUnits="userSpaceOnUse">
      <stop offset="0" stop-color="#618020"/>
      <stop offset=".4" stop-color="#7da12f"/>
      <stop offset=".8" stop-color="#8fb639"/>
      <stop offset="1" stop-color="#96be3d"/>
    </linearGradient>
    <linearGradient id="linear-gradient8" x1="8.2" y1="365.9" x2="15" y2="365.9" gradientTransform="translate(0 -350.8)" gradientUnits="userSpaceOnUse">
      <stop offset="0" stop-color="#c23c93"/>
      <stop offset=".3" stop-color="#aa2a7f"/>
      <stop offset="1" stop-color="#70004e"/>
    </linearGradient>
    <linearGradient id="linear-gradient9" x1="8" y1="363.3" x2="14.1" y2="363.3" gradientTransform="translate(0 -350.8)" gradientUnits="userSpaceOnUse">
      <stop offset="0" stop-color="#c33d92"/>
      <stop offset=".3" stop-color="#b22783"/>
      <stop offset=".7" stop-color="#9b0b6f"/>
      <stop offset="1" stop-color="#930168"/>
    </linearGradient>
    <linearGradient id="linear-gradient10" x1="9.9" y1="360" x2="13.4" y2="360" gradientTransform="translate(0 -350.8)" gradientUnits="userSpaceOnUse">
      <stop offset="0" stop-color="#0c71b8"/>
      <stop offset="0" stop-color="#0a6bb0"/>
      <stop offset=".4" stop-color="#075b98"/>
      <stop offset=".7" stop-color="#055289"/>
      <stop offset="1" stop-color="#054f85"/>
    </linearGradient>
    <linearGradient id="linear-gradient11" x1="8.3" y1="361.4" x2="12.5" y2="361.4" gradientTransform="translate(0 -350.8)" gradientUnits="userSpaceOnUse">
      <stop offset="0" stop-color="#0c6baf"/>
      <stop offset=".3" stop-color="#0b68ab"/>
      <stop offset=".5" stop-color="#0962a2"/>
      <stop offset=".7" stop-color="#065791"/>
      <stop offset=".9" stop-color="#02477a"/>
      <stop offset="1" stop-color="#003f6e"/>
    </linearGradient>
    <linearGradient id="linear-gradient12" x1="0" y1="357.9" x2="13.8" y2="357.9" gradientTransform="translate(0 -350.8)" gradientUnits="userSpaceOnUse">
      <stop offset="0" stop-color="#404041"/>
      <stop offset="1" stop-color="#58595b"/>
    </linearGradient>
    <linearGradient id="linear-gradient13" x1="16" y1="367.4" x2="29.8" y2="367.4" gradientTransform="translate(0 -350.8)" gradientUnits="userSpaceOnUse">
      <stop offset="0" stop-color="#58595b"/>
      <stop offset=".9" stop-color="#424243"/>
      <stop offset="1" stop-color="#404041"/>
    </linearGradient>
  </defs>
  <g id="Layer_2-2">
    <g>
      <path class="st1" d="M27,11.9c-1.9,3.7-6,6.4-10.8,6.9,0,0-.1,0-.2,0-.3,0-.7,0-1,0-.4,0-.7,0-1.1,0,0,0-.1,0-.2,0-4.5-.3-8.3-2.8-10.3-6.2-.2-.2-.3-.5-.4-.8,1.5-3,4.5-5.3,8.1-6.3.1,0,.2,0,.4,0h0c.1,0,.2,0,.4,0,.1,0,.3,0,.4,0,.2,0,.4,0,.6,0,.7-.1,1.5-.2,2.2-.2s.7,0,1,0c.4,0,.8,0,1.2.1h0c0,0,.1,0,.2,0,.2,0,.4,0,.5,0,0,0,.2,0,.2,0,.2,0,.5.1.7.2,0,0,.1,0,.2,0,.3,0,.6.2.9.3.1,0,.2,0,.3.1s.2,0,.3.1.2,0,.3.1.2,0,.3.1c2.6,1.2,4.8,3.2,6,5.6h0Z"/>
      <path class="st1" d="M27,11.9c-1.9,3.7-6,6.4-10.8,6.9,0,0-.1,0-.2,0-.3,0-.7,0-1,0-.4,0-.7,0-1.1,0,0,0-.1,0-.2,0-4.5-.3-8.3-2.8-10.3-6.2-.2-.2-.3-.5-.4-.8,1.5-3,4.5-5.3,8.1-6.3.1,0,.2,0,.4,0h0c.1,0,.2,0,.4,0,.1,0,.3,0,.4,0,.2,0,.4,0,.6,0,.7-.1,1.5-.2,2.2-.2s.7,0,1,0c.4,0,.8,0,1.2.1h0c0,0,.1,0,.2,0,.2,0,.4,0,.5,0,0,0,.2,0,.2,0,.2,0,.5.1.7.2,0,0,.1,0,.2,0,.3,0,.6.2.9.3.1,0,.2,0,.3.1s.2,0,.3.1.2,0,.3.1.2,0,.3.1c2.6,1.2,4.8,3.2,6,5.6h0Z"/>
      <path class="st1" d="M27,11.9c-1.9,3.7-6,6.4-10.8,6.9,0,0-.1,0-.2,0-.3,0-.7,0-1,0-.4,0-.7,0-1.1,0,0,0-.1,0-.2,0-4.5-.3-8.3-2.8-10.3-6.2-.2-.2-.3-.5-.4-.8,1.5-3,4.5-5.3,8.1-6.3.1,0,.2,0,.4,0h0c.1,0,.2,0,.4,0,.1,0,.3,0,.4,0,.2,0,.4,0,.6,0,.7-.1,1.5-.2,2.2-.2s.7,0,1,0c.4,0,.8,0,1.2.1h0c0,0,.1,0,.2,0,.2,0,.4,0,.5,0,0,0,.2,0,.2,0,.2,0,.5.1.7.2,0,0,.1,0,.2,0,.3,0,.6.2.9.3.1,0,.2,0,.3.1s.2,0,.3.1.2,0,.3.1.2,0,.3.1c2.6,1.2,4.8,3.2,6,5.6h0Z"/>
      <path class="st1" d="M11,5.5c-3.7,1-6.7,3.3-8.2,6.3.2.3.3.5.5.8-.2-.2-.3-.5-.4-.8,1.5-3,4.5-5.3,8.1-6.3h0Z"/>
      <path class="st1" d="M26.9,11.8c-1.9,3.7-5.9,6.4-10.8,6.9,0,0-.1,0-.2,0-.3,0-.7,0-1,0-.4,0-.7,0-1.1,0,0,0-.1,0-.2,0-4.5-.3-8.1-2.8-10.3-6.2-.2-.2-.3-.5-.5-.8,1.5-3,4.5-5.3,8.2-6.3.1,0,.2,0,.4,0h0c.1,0,.2,0,.4,0,.1,0,.3,0,.4,0,.2,0,.4,0,.6,0,.7-.1,1.5-.2,2.2-.2s.7,0,1,0c.4,0,.8,0,1.2.1h0c0,0,.1,0,.2,0,.2,0,.4,0,.5,0,0,0,.2,0,.2,0,.2,0,.5.1.7.2,0,0,.1,0,.2,0,.3,0,.6.2.9.3.1,0,.2,0,.3.1s.2,0,.3.1.2,0,.3.1.2,0,.3.1c2.6,1.2,4.7,3.2,5.9,5.5h0Z"/>
      <path class="st20" d="M27.9,8.8c-.2-.3-.4-.5-.6-.8l1.6-1.5-1.7-1.6-1.4,1.6c-1.1-1-2.2-1.7-3.5-2.3h0s1-1.9,1-1.9l-2.4-.8-.5,1.9h0c-1.4-.5-2.9-.8-4.5-.9h0L16.1,0h-2.7l.2,2.3h0c-1.7.1-3.2.5-4.7,1.1l-.6-2-2.3.9,1,2c-1.3.7-2.5,1.5-3.5,2.5h0s-1.5-1.6-1.5-1.6l-1.7,1.7,1.7,1.4c-.2.2-.2.3-.3.5-.7,1-1.4,2.1-1.9,3.2.5,1.1,1.1,2.1,1.9,3.1,3,3.8,7.6,6.5,13,6.4,5.4-.1,10.1-2.6,13-6.5.7-.9,1.4-2,1.8-3-.4-1.1-1.1-2.1-1.9-3,0,0,0,0,0,0ZM16.2,18.8c0,0-.1,0-.2,0-.3,0-.7,0-1,0-.4,0-.7,0-1.1,0,0,0-.1,0-.2,0-4.5-.3-8.3-2.8-10.3-6.2-.2-.2-.3-.5-.5-.8,1.5-3,4.5-5.3,8.2-6.3.1,0,.2,0,.4,0h0c.1,0,.2,0,.4,0,.1,0,.3,0,.4,0,.2,0,.4,0,.6,0,.7-.1,1.5-.2,2.2-.2s.7,0,1,0c.4,0,.8,0,1.2.1h0c0,0,.1,0,.2,0,.2,0,.4,0,.5,0,0,0,.2,0,.2,0,.2,0,.5.1.7.2,0,0,.1,0,.2,0,.3,0,.6.2.9.3.1,0,.2,0,.3.1s.2,0,.3.1.2,0,.3.1.2,0,.3.1c2.6,1.2,4.8,3.2,6,5.6-1.9,3.7-6,6.4-10.8,6.9h0s0,0,0,0Z"/>
      <path class="st3" d="M17.6,12c0,1.5-1.2,2.8-2.8,2.8s-2.8-1.2-2.8-2.8,1.2-2.8,2.8-2.8,2.8,1.2,2.8,2.8Z"/>
      <circle class="st2" cx="14" cy="10.6" r=".9"/>
      <circle class="st5" cx="14" cy="10.6" r=".7"/>
      <path d="M17.7,11.9c0,1.6-1.3,2.9-2.9,2.9s-2.9-1.3-2.9-2.9,1.3-2.9,2.9-2.9,2.9,1.3,2.9,2.9Z"/>
      <circle class="st6" cx="14" cy="10.5" r=".9"/>
      <circle class="st22" cx="14" cy="10.5" r=".7"/>
      <g>
        <path class="st21" d="M21.4,10c.2.6.3,1.2.3,1.9s0,.7,0,1.1c0,.4-.1.7-.2,1,0-.2-.2-.4-.2-.6-.3-.6-.6-1.1-1.1-1.6-.3-.4-.7-.7-1.1-1-.4-.3-.9-.6-1.4-.8,0,0,0,0-.1,0-.2-.2-.4-.5-.6-.7-.3-.2-.6-.4-1-.5.2,0,.5-.1.7-.1.3,0,.6,0,1,0,.7,0,1.4.1,2,.3.7.2,1.4.6,2,1h0Z"/>
        <path class="st8" d="M21.3,9.6c0,.1.1.3.1.4-.6-.4-1.3-.8-2-1-.6-.2-1.3-.3-2-.3s-.6,0-1,0c-.2,0-.5,0-.7.1-.3,0-.6-.1-.9-.1h0c-.2,0-.4,0-.6,0,.1,0,.2-.2.3-.2.4-.3.8-.6,1.3-.8.4-.2.8-.3,1.3-.4.5-.1,1-.2,1.5-.2s.5,0,.7,0c.2,0,.4,0,.5,0,.6.7,1,1.4,1.4,2.3h0Z"/>
        <path class="st7" d="M21.1,13.5c0,.2.2.4.2.6-.3.8-.7,1.6-1.2,2.2-.2.2-.4.4-.6.6,0-.3,0-.7,0-1s0-.9-.1-1.4c-.2-.9-.6-1.8-1.1-2.6-.2-.2-.3-.4-.5-.7,0-.4-.2-.7-.4-1,0,0,0-.1-.1-.2,0,0,0,0,.1,0,.5.2,1,.5,1.4.8.4.3.8.6,1.1,1,.4.5.8,1,1.1,1.6h0Z"/>
        <path class="st10" d="M19.6,15.8c0,.4,0,.7,0,1-.6.6-1.4,1.1-2.3,1.5-.3.1-.7.2-1,.3.1-.2.3-.4.4-.5.4-.5.6-1.2.8-1.8.1-.4.2-.8.2-1.3,0-.2,0-.4,0-.6s0-.4,0-.7c0-.1,0-.3,0-.4.1-.2.2-.4.2-.7,0-.2,0-.5,0-.8s0-.4,0-.7c.2.2.4.4.5.7.5.8.9,1.6,1.1,2.6,0,.4.1.9.1,1.4Z"/>
        <path class="st15" d="M19.9,7.3c-.2,0-.4,0-.5,0-.2,0-.5,0-.7,0-.5,0-1,0-1.5.2-.5,0-.9.3-1.3.4-.5.2-.9.5-1.3.8-.1,0-.2.2-.3.2-.2,0-.4.1-.6.2-.3.1-.7.4-.9.6,0-.2.1-.4.2-.7.4-.9,1-1.7,1.7-2.3.6-.6,1.3-1,2.1-1.3.9.3,1.8.7,2.5,1.4.2.2.5.4.6.6h0Z"/>
        <path class="st14" d="M17.7,14.4c0,.2,0,.4,0,.6,0,.4-.1.9-.2,1.3-.2.6-.5,1.3-.8,1.8-.1.2-.2.4-.4.5-.5.1-.9.1-1.4.1s-.9,0-1.3-.1c-.2,0-.4,0-.6-.1.8-.3,1.5-.8,2.1-1.3.6-.6,1.2-1.3,1.6-2.1.1-.3.2-.6.3-.9.1-.1.2-.2.3-.3.1-.2.3-.4.4-.6,0,.1,0,.2,0,.4,0,.2,0,.4,0,.7h0Z"/>
        <path class="st11" d="M17,14.2c0,.3-.2.6-.3.9-.4.8-.9,1.5-1.6,2.1-.6.6-1.3,1-2.1,1.3-.8-.2-1.5-.6-2.1-1-.4-.3-.7-.6-1-.9.3,0,.6,0,.8,0h0c.5,0,1,0,1.5-.2.5-.1,1.1-.3,1.5-.6.4-.2.8-.4,1.1-.7,0,0,.1-.1.2-.1.2,0,.4,0,.5,0,.5-.1,1-.4,1.4-.8h0s0,0,0,0Z"/>
        <path class="st13" d="M15.7,5.1c.3,0,.7.1,1,.2-.8.3-1.5.8-2.1,1.3-.7.7-1.3,1.4-1.7,2.3,0,.2-.2.4-.2.7-.2.2-.4.4-.5.6,0,.1-.2.3-.2.4,0-.1,0-.2,0-.3,0-.3,0-.6,0-.9s0-.3,0-.5c0-.5.1-.9.2-1.4.2-.7.5-1.3.9-1.9.1-.2.2-.4.4-.5.5,0,1-.2,1.5-.2s.6,0,.9,0h0Z"/>
        <path class="st12" d="M14.8,15.1h.2c0,0-.1.1-.2.1-.3.3-.7.5-1.1.7-.5.2-1,.4-1.5.6-.5.1-1,.2-1.5.2h0c-.3,0-.6,0-.8,0-.6-.6-1-1.3-1.3-2.1-.1-.3-.2-.6-.3-.9.7.6,1.5,1.1,2.4,1.3.6.2,1.3.3,2,.3s.4,0,.6,0c.3,0,.6,0,.9-.1.2,0,.3,0,.5,0h.2,0Z"/>
        <path class="st9" d="M12.9,14.4c.4.3.8.5,1.2.6-.3,0-.6.1-.9.1-.2,0-.4,0-.6,0-.7,0-1.4-.1-2-.3-.9-.3-1.7-.7-2.4-1.3-.1-.5-.2-1.1-.2-1.6s0-.7,0-1c0-.4.1-.7.2-1,0,.2.2.4.2.6.3.6.7,1.2,1.1,1.7.4.4.8.8,1.3,1.1.3.2.6.3.9.5.2.1.5.2.7.3.1.1.2.2.4.4Z"/>
        <path class="st19" d="M13.4,5.2c-.1.2-.3.3-.4.5-.4.6-.7,1.2-.9,1.9-.1.5-.2.9-.2,1.4,0,.2,0,.3,0,.5,0,.3,0,.6,0,.9,0,.1,0,.2,0,.3-.1.3-.2.7-.2,1.1v.2c0,.4,0,.7.2,1.1,0,0,0,.1,0,.2-.2-.2-.4-.5-.6-.7-.6-.8-1.1-1.8-1.3-2.8,0-.4-.1-.9-.1-1.4s0-.7,0-1.1c.7-.7,1.5-1.2,2.4-1.6.3-.1.7-.2,1-.3h0Z"/>
        <path class="st18" d="M11.9,13.1c.1.3.3.6.6.9-.2,0-.5-.2-.7-.3-.3-.1-.6-.3-.9-.5-.5-.3-.9-.7-1.3-1.1-.5-.5-.8-1.1-1.1-1.7,0-.2-.2-.4-.2-.6.2-.8.6-1.6,1.1-2.2.1-.2.3-.4.5-.6,0,.4,0,.7,0,1.1s0,.9.1,1.4c.2,1.1.7,2,1.3,2.8.2.2.4.5.6.7h0Z"/>
      </g>
      <path class="st17" d="M0,11.8S3.3,3.1,13.8,2.3c0,0-7,1.9-10.9,9.4H0c0,0,0,0,0,0Z"/>
      <g class="st4">
        <g class="st4">
          <path class="st20" d="M2.1,23.9h1.5v4.4h2.2v1.3h-3.8s0-5.7,0-5.7Z"/>
        </g>
      </g>
      <g class="st4">
        <g class="st4">
          <path class="st20" d="M12.9,27.3h-2.1v1.1h2.3v1.3h-3.9v-5.8h3.7v1.2h-2.2v.9h2.1v1.2Z"/>
        </g>
      </g>
      <g class="st4">
        <g class="st4">
          <path class="st20" d="M16.7,29.6v-5.8h1.8l.9,1.8c.3.6.6,1.3.9,2h0c0-.8-.1-1.6-.1-2.4v-1.4h1.4v5.8h-1.6l-1-1.9c-.3-.6-.7-1.4-1-2.1h0c0,.8,0,1.6,0,2.6v1.4h-1.4,0Z"/>
        </g>
      </g>
      <g class="st4">
        <g class="st4">
          <path class="st20" d="M25.2,28.1c.4.2.9.4,1.5.4s.8-.2.8-.5-.3-.4-.9-.7c-1-.3-1.6-.9-1.6-1.7s.9-1.8,2.3-1.8,1.2.1,1.6.3l-.3,1.2c-.2-.1-.7-.3-1.2-.3s-.7.2-.7.4.3.4,1,.7c1,.4,1.5.9,1.5,1.7s-.8,1.8-2.5,1.8-1.4-.2-1.7-.4l.3-1.3h0Z"/>
        </g>
      </g>
      <path class="st16" d="M26.9,11.8h2.9s-2.5,8.3-13.8,9.4c0,0,8.2-2.8,10.9-9.4Z"/>
      <line class="st0" x1="26.9" y1="12" x2="26.8" y2="11.8"/>
    </g>
  </g>
  <path class="st23" d="M39.1,19.5l-3.8-16.5h3.9l3.3,14.7h-2.5l9.3-14.7h4l-10.5,16.5h-3.8ZM51.4,19.5l2.5-12.7h3.7l-2.5,12.7h-3.7ZM56.4,5c-.6,0-1.2-.2-1.6-.5-.4-.4-.6-.8-.6-1.4s.2-1.1.7-1.6c.5-.4,1-.6,1.8-.6s1.2.2,1.6.5c.4.3.6.8.6,1.3s-.2,1.2-.7,1.7c-.4.4-1,.6-1.8.6ZM65.2,19.7c-1.3,0-2.5-.2-3.4-.7-1-.5-1.7-1.1-2.2-2-.5-.9-.8-1.8-.8-3s.3-2.7.9-3.8c.6-1.1,1.5-2,2.6-2.6,1.1-.6,2.4-1,3.9-1s2.3.2,3.2.7c.9.5,1.6,1.1,2.1,1.9.5.8.8,1.8.8,3s0,.7,0,1c0,.3,0,.6-.1.9h-10.5l.4-2.1h8.4l-1.5.7c.1-.7,0-1.3-.1-1.8-.2-.5-.5-.9-1-1.1-.5-.3-1-.4-1.7-.4s-1.5.2-2.1.6c-.6.4-1,.9-1.3,1.6-.3.7-.4,1.4-.4,2.3s.3,1.7.8,2.2c.6.5,1.4.7,2.5.7s1.3-.1,1.9-.3c.6-.2,1.1-.5,1.5-.9l1.5,2.4c-.7.6-1.6,1-2.5,1.3-.9.3-1.8.4-2.8.4ZM76.1,19.5l-2.2-12.7h3.4l1.8,10.9h-1.7l6.1-10.9h3.2l1.8,10.9h-1.7l6-10.9h3.5l-7,12.7h-3.6l-1.7-9.4h1.1l-5.2,9.4h-3.6Z"/>
</svg>