<svg width="35" height="17" viewBox="0 0 35 17" fill="none" xmlns="http://www.w3.org/2000/svg">
<path d="M2.28155 8.68281C4.96404 5.64266 7.89135 7.41608 9.01969 8.68281C9.9394 8.96384 10.0203 8.33152 9.94577 7.98024C8.4129 5.83425 5.8156 5.68097 4.70856 5.87257C3.40564 6.00031 2.35606 6.71351 1.99413 7.05414C0.05252 8.4848 -0.113538 10.9927 0.0461331 12.0678C0.48044 15.0824 3.07989 16.4109 4.32533 16.6983C7.46767 17.2859 9.38159 15.6445 9.94577 14.7503C10.2268 13.6773 9.44548 13.7497 9.01969 13.92C5.95402 16.8069 3.25024 15.1229 2.28155 13.92C0.646519 11.8762 1.60029 9.57696 2.28155 8.68281Z" fill="#115DA0"/>
<path d="M11.9257 16.2512V9.16181C12.5133 8.39538 13.0008 8.84247 13.1712 9.16181V16.2512C12.6347 17.1965 12.1173 16.6451 11.9257 16.2512Z" fill="#115DA0"/>
<path d="M17.8016 13.441C17.7505 12.2403 18.6106 12.1104 19.0471 12.1956L20.548 10.3434C19.2706 9.29593 17.7803 10.056 17.1949 10.5669C15.7131 12.0487 16.2368 13.6752 16.6839 14.3032C17.7314 15.7594 19.0364 15.7616 19.558 15.5806C20.2989 15.6062 21.1441 14.91 21.4741 14.5587C22.266 14.4054 22.3576 14.9632 22.3044 15.2613C21.3847 16.5642 19.7496 16.826 19.0471 16.7941C17.1821 16.743 15.992 15.538 15.6301 14.9419C14.5827 13.5624 15.0233 11.6633 15.3746 10.8863C16.1921 9.32787 17.8868 8.78924 18.6319 8.71473C20.3947 8.51035 21.6018 9.33212 21.985 9.76856C22.215 10.1007 22.0808 10.354 21.985 10.4392L19.8454 12.9301C19.9476 13.6198 19.5048 13.9839 19.2706 14.0797C18.3509 14.4374 17.9081 13.8029 17.8016 13.441Z" fill="#115DA0"/>
<path d="M24.0927 16.2512V6.35159C24.6803 5.45743 25.1891 5.97902 25.3701 6.35159V16.2512C24.8336 17.1454 24.2949 16.6238 24.0927 16.2512Z" fill="#115DA0"/>
<g clip-path="url(#clip0_9247_36038)">
<path fill-rule="evenodd" clip-rule="evenodd" d="M27.9503 15.4772C26.3905 13.7273 27.0884 10.8719 27.2153 8.75C29.0183 8.86002 29.0276 8.74993 31.0395 8.75C30.8491 8.97529 33.0714 10.6799 32.8917 10.8895C31.2737 9.26011 29.4202 10.1908 29.4889 10.1908C29.3567 10.1908 28.7698 10.699 28.8174 10.6623C27.6383 11.7259 27.4744 13.6277 28.6059 14.9008C29.7533 16.1897 31.7942 16.3102 33.0949 15.0213C33.2747 15.2362 33.465 15.4614 33.6607 15.6867C32.1273 17.2061 29.4836 17.1904 27.9555 15.4719L27.9503 15.4772Z" fill="#115DA0"/>
<path fill-rule="evenodd" clip-rule="evenodd" d="M34.9981 11.8774L33.9512 12.3804C34.0093 12.721 34.0093 13.0667 33.9512 13.4073L34.9981 13.9103C34.9981 12.6895 34.9981 13.1558 34.9981 11.8774Z" fill="#115DA0"/>
<path fill-rule="evenodd" clip-rule="evenodd" d="M33.8931 12.1193L34.9981 11.5325V10.1284C34.9188 10.1808 34.2209 10.9929 33.708 11.6059C33.8561 11.9255 33.8878 12.1193 33.8931 12.1193Z" fill="#115DA0"/>
<path fill-rule="evenodd" clip-rule="evenodd" d="M33.8931 13.6699L34.9981 14.2515V15.6556C34.9188 15.6032 34.2209 14.7911 33.708 14.1781C33.8561 13.8585 33.8878 13.6699 33.8931 13.6699Z" fill="#115DA0"/>
<path d="M31.716 12.9013C31.716 13.4001 31.3097 13.8095 30.8043 13.8095C30.2988 13.8095 29.8926 13.4048 29.8926 12.9013C29.8926 12.3978 30.2988 11.9932 30.8043 11.9932C31.3097 11.9932 31.716 12.3978 31.716 12.9013Z" fill="black"/>
<path d="M30.5491 12.7289C30.7008 12.7289 30.8238 12.6064 30.8238 12.4553C30.8238 12.3041 30.7008 12.1816 30.5491 12.1816C30.3974 12.1816 30.2744 12.3041 30.2744 12.4553C30.2744 12.6064 30.3974 12.7289 30.5491 12.7289Z" fill="#AEAEAF"/>
<path d="M30.54 12.6652C30.6629 12.6652 30.7626 12.5659 30.7626 12.4434C30.7626 12.321 30.6629 12.2217 30.54 12.2217C30.417 12.2217 30.3174 12.321 30.3174 12.4434C30.3174 12.5659 30.417 12.6652 30.54 12.6652Z" fill="#115DA0"/>
<path d="M32.9041 12.2898C32.9608 12.4827 32.9891 12.6803 32.9891 12.8921C32.9891 13.0097 32.9797 13.1274 32.9608 13.2403C32.9419 13.3485 32.9183 13.4567 32.8852 13.5603C32.8616 13.4991 32.8332 13.4426 32.8049 13.3862C32.7151 13.2026 32.597 13.0332 32.4601 12.8827C32.3561 12.7697 32.238 12.6662 32.1105 12.5768C31.9688 12.478 31.8176 12.3933 31.657 12.3321C31.6428 12.3274 31.6334 12.3227 31.6192 12.318C31.5625 12.238 31.4917 12.1674 31.4161 12.1062C31.3216 12.0309 31.213 11.9745 31.0996 11.9415C31.1705 11.9227 31.2413 11.9086 31.3169 11.8992C31.4161 11.8851 31.5153 11.8804 31.6192 11.8804C31.846 11.8804 32.0633 11.9133 32.2664 11.9792C32.4978 12.0498 32.7151 12.158 32.9041 12.2992V12.2898Z" fill="url(#paint0_linear_9247_36038)"/>
<path d="M32.8576 12.1433C32.8765 12.1904 32.8906 12.2375 32.9048 12.2892C32.7111 12.148 32.4986 12.0398 32.2671 11.9692C32.064 11.9081 31.8467 11.8704 31.6199 11.8704C31.516 11.8704 31.4168 11.8798 31.3176 11.8892C31.242 11.8987 31.1712 11.9128 31.1003 11.9316C31.0059 11.9034 30.9067 11.8892 30.8027 11.8892C30.8027 11.8892 30.7933 11.8892 30.7886 11.8892C30.7224 11.8892 30.661 11.8987 30.5996 11.9081C30.6327 11.8798 30.6657 11.8563 30.6988 11.8281C30.8264 11.734 30.9633 11.6493 31.1098 11.5834C31.242 11.5222 31.3838 11.4751 31.5255 11.4422C31.6814 11.4046 31.8467 11.3857 32.012 11.3857C32.0923 11.3857 32.1679 11.3857 32.2482 11.3999C32.3049 11.4046 32.3663 11.414 32.423 11.4234C32.6119 11.6304 32.7584 11.8751 32.8528 12.1386L32.8576 12.1433Z" fill="url(#paint1_linear_9247_36038)"/>
<path d="M32.8059 13.3868C32.8343 13.4433 32.8626 13.5045 32.8862 13.5609C32.8012 13.8198 32.6737 14.0597 32.5036 14.2668C32.4469 14.3374 32.3855 14.4032 32.3241 14.4644C32.3383 14.3562 32.3477 14.248 32.3477 14.1397C32.3477 13.9892 32.3336 13.8433 32.3052 13.7021C32.2438 13.4057 32.1257 13.128 31.9557 12.888C31.9037 12.8175 31.8517 12.7469 31.7903 12.681C31.7667 12.5681 31.7242 12.4598 31.6628 12.3657C31.6533 12.3469 31.6392 12.3281 31.625 12.314C31.6392 12.314 31.6486 12.3234 31.6628 12.3281C31.8234 12.394 31.9746 12.474 32.1163 12.5728C32.2438 12.6622 32.3572 12.7657 32.4658 12.8786C32.6028 13.0292 32.7209 13.1986 32.8107 13.3821L32.8059 13.3868Z" fill="url(#paint2_linear_9247_36038)"/>
<path d="M32.3435 14.135C32.3435 14.2432 32.334 14.3562 32.3198 14.4597C32.112 14.662 31.8664 14.8173 31.5924 14.9255C31.4837 14.9679 31.3751 15.0008 31.2617 15.0244C31.3042 14.9679 31.3467 14.9114 31.3845 14.855C31.4979 14.6809 31.5877 14.4832 31.6443 14.2809C31.6821 14.1491 31.7058 14.0127 31.7199 13.8715C31.7246 13.8056 31.7294 13.7444 31.7294 13.6786C31.7294 13.608 31.7294 13.5374 31.7199 13.4668C31.7199 13.4245 31.7105 13.3868 31.7058 13.3445C31.7388 13.2786 31.7672 13.2033 31.7861 13.128C31.805 13.0527 31.8144 12.9727 31.8144 12.888C31.8144 12.8174 31.805 12.7469 31.7908 12.6763C31.8522 12.7421 31.9042 12.8127 31.9561 12.8833C32.1262 13.1233 32.2443 13.4009 32.3057 13.6974C32.334 13.8386 32.3482 13.9844 32.3482 14.135H32.3435Z" fill="url(#paint3_linear_9247_36038)"/>
<path d="M32.4222 11.4352C32.3655 11.4258 32.3089 11.4164 32.2474 11.4117C32.1719 11.4023 32.0916 11.3976 32.0113 11.3976C31.8412 11.3976 31.6806 11.4164 31.5247 11.4541C31.3783 11.487 31.2413 11.5341 31.109 11.5952C30.9626 11.6611 30.8256 11.7458 30.6981 11.8399C30.665 11.8634 30.6319 11.8917 30.5989 11.9199C30.5327 11.934 30.4666 11.9529 30.4052 11.9811C30.2965 12.0281 30.1973 12.094 30.1123 12.174C30.1359 12.1034 30.1595 12.0328 30.1926 11.967C30.3154 11.6846 30.4997 11.4305 30.7264 11.2235C30.9248 11.0447 31.1563 10.8988 31.4113 10.8047C31.7137 10.8894 31.9876 11.04 32.2191 11.2376C32.2947 11.2988 32.3608 11.3694 32.427 11.4399L32.4222 11.4352Z" fill="url(#paint4_linear_9247_36038)"/>
<path d="M31.7183 13.6816C31.7183 13.7475 31.7183 13.8133 31.7089 13.8745C31.6947 14.0157 31.6711 14.1521 31.6333 14.2839C31.5766 14.4909 31.4869 14.6839 31.3735 14.858C31.3357 14.9191 31.2932 14.9756 31.2507 15.0274C31.1042 15.0603 30.9531 15.0744 30.8019 15.0744C30.6602 15.0744 30.5279 15.0603 30.3957 15.0368C30.3295 15.0227 30.2634 15.0086 30.1973 14.9897C30.4476 14.8909 30.6791 14.7497 30.8728 14.5709C31.0806 14.3827 31.2554 14.1521 31.3782 13.8933C31.4207 13.8039 31.4585 13.7145 31.4869 13.6204C31.5199 13.5875 31.553 13.5545 31.5813 13.5216C31.6286 13.4651 31.6664 13.4087 31.6994 13.3428C31.7041 13.3804 31.7089 13.4228 31.7136 13.4651C31.7183 13.5357 31.723 13.6063 31.723 13.6769L31.7183 13.6816Z" fill="url(#paint5_linear_9247_36038)"/>
<path d="M31.4852 13.6216C31.4569 13.7157 31.4191 13.8051 31.3766 13.8945C31.2537 14.1533 31.0837 14.3792 30.8711 14.5721C30.6727 14.7509 30.446 14.8921 30.1956 14.9909C29.95 14.9203 29.7185 14.8074 29.5154 14.6568C29.3973 14.5721 29.2887 14.4733 29.1895 14.3651C29.2745 14.3745 29.3642 14.3839 29.454 14.3839C29.4587 14.3839 29.4682 14.3839 29.4729 14.3839C29.6429 14.3839 29.8035 14.3651 29.9594 14.3274C30.1295 14.2898 30.2948 14.2286 30.4507 14.1533C30.5735 14.0921 30.6869 14.0216 30.7955 13.9369C30.8144 13.9227 30.838 13.9039 30.8569 13.8898C30.9136 13.8898 30.9703 13.8804 31.027 13.8663C31.1971 13.8239 31.3529 13.7392 31.4805 13.6263L31.4852 13.6216Z" fill="url(#paint6_linear_9247_36038)"/>
<path d="M31.09 10.7239C31.1987 10.738 31.3073 10.7615 31.4112 10.7898C31.1561 10.8886 30.9247 11.0298 30.7263 11.2086C30.4995 11.4156 30.3153 11.665 30.1925 11.9521C30.1641 12.0179 30.1358 12.0885 30.1122 12.1591C30.0508 12.2156 29.9941 12.2862 29.9516 12.3567C29.9232 12.3991 29.8996 12.4461 29.8807 12.4979C29.876 12.465 29.8713 12.432 29.8666 12.3991C29.8571 12.3097 29.8477 12.2203 29.8477 12.1309C29.8477 12.0791 29.8477 12.0273 29.8524 11.9756C29.8618 11.8203 29.8902 11.6744 29.9327 11.5286C29.9941 11.3121 30.0886 11.1051 30.2114 10.9215C30.2492 10.8651 30.2917 10.8086 30.3342 10.7568C30.4854 10.7239 30.6412 10.7051 30.8019 10.7051C30.9011 10.7051 30.9955 10.7098 31.0853 10.7239H31.09Z" fill="url(#paint7_linear_9247_36038)"/>
<path d="M30.8036 13.8883C30.8036 13.8883 30.8414 13.8883 30.865 13.8883C30.8461 13.9024 30.8272 13.9212 30.8036 13.9354C30.6949 14.0154 30.5816 14.0906 30.4588 14.1518C30.3029 14.2271 30.1423 14.2883 29.9675 14.3259C29.8116 14.3636 29.6463 14.3824 29.4809 14.3824C29.4762 14.3824 29.4668 14.3824 29.462 14.3824C29.3723 14.3824 29.2825 14.3777 29.1975 14.3636C29.018 14.1659 28.8716 13.9354 28.7724 13.6813C28.7346 13.5871 28.7062 13.493 28.6826 13.3989C28.9046 13.5871 29.1644 13.733 29.4479 13.8224C29.651 13.8836 29.8683 13.9212 30.095 13.9212C30.1612 13.9212 30.232 13.9212 30.2981 13.9118C30.3926 13.9024 30.4871 13.8883 30.5816 13.8648C30.6335 13.8742 30.6855 13.8836 30.7375 13.8883C30.7611 13.8883 30.7847 13.8883 30.8036 13.8883Z" fill="url(#paint8_linear_9247_36038)"/>
<path d="M30.179 13.6774C30.2923 13.7715 30.4293 13.8374 30.5805 13.8703C30.4907 13.8891 30.3963 13.908 30.2971 13.9174C30.2309 13.9221 30.1648 13.9268 30.0939 13.9268C29.8672 13.9268 29.6499 13.8939 29.4468 13.828C29.1634 13.7386 28.9035 13.5927 28.6815 13.4045C28.6437 13.2398 28.6201 13.0704 28.6201 12.8916C28.6201 12.7833 28.6296 12.6704 28.6437 12.5669C28.6579 12.4539 28.6862 12.3457 28.7193 12.2422C28.7429 12.3081 28.7713 12.3692 28.7996 12.4304C28.8941 12.628 29.0169 12.8069 29.1634 12.9668C29.2814 13.0986 29.4184 13.2115 29.5649 13.3104C29.6499 13.3668 29.7444 13.4186 29.8341 13.4656C29.905 13.4986 29.9806 13.5315 30.0561 13.555C30.0939 13.5974 30.1317 13.635 30.1742 13.668L30.179 13.6774Z" fill="url(#paint9_linear_9247_36038)"/>
<path d="M30.3384 10.7531C30.2959 10.8048 30.2534 10.8613 30.2156 10.9178C30.0928 11.1013 29.9983 11.3083 29.9369 11.5248C29.8944 11.6659 29.8708 11.8165 29.8566 11.9718C29.8566 12.0236 29.8519 12.0753 29.8519 12.1271C29.8519 12.2165 29.8566 12.3106 29.8708 12.3953C29.8708 12.4283 29.8802 12.4612 29.885 12.4941C29.8424 12.5977 29.8141 12.7153 29.8094 12.8329C29.8094 12.8471 29.8094 12.8659 29.8094 12.88C29.8094 12.9976 29.8283 13.1106 29.8661 13.2141C29.8708 13.2329 29.8802 13.2517 29.885 13.2706C29.8094 13.2 29.7432 13.1247 29.6818 13.0447C29.4787 12.7859 29.3323 12.4753 29.2661 12.1365C29.2378 11.9953 29.2236 11.8495 29.2236 11.6989C29.2236 11.5812 29.2331 11.4636 29.252 11.3507C29.4693 11.1295 29.7291 10.9554 30.0219 10.8425C30.1259 10.8001 30.2345 10.7672 30.3479 10.7437L30.3384 10.7531Z" fill="url(#paint10_linear_9247_36038)"/>
<path d="M29.8808 13.2781C29.9233 13.3817 29.9847 13.4758 30.0556 13.5558C29.98 13.5275 29.9044 13.4993 29.8336 13.4664C29.7391 13.4193 29.6493 13.3723 29.5643 13.3111C29.4179 13.2123 29.2809 13.0946 29.1628 12.9676C29.0163 12.8076 28.8935 12.6288 28.7991 12.4311C28.7707 12.37 28.7424 12.3041 28.7188 12.2429C28.7991 11.9841 28.9266 11.7488 29.0872 11.5465C29.1344 11.4853 29.1911 11.4241 29.2431 11.3677C29.2242 11.4806 29.2147 11.5982 29.2147 11.7159C29.2147 11.8665 29.2289 12.0123 29.2573 12.1535C29.3234 12.4923 29.4698 12.7982 29.673 13.0617C29.7344 13.1417 29.8052 13.217 29.8761 13.2876L29.8808 13.2781Z" fill="url(#paint11_linear_9247_36038)"/>
</g>
<path d="M4.60195 6.77056H5.75158C5.75158 6.46397 5.87931 5.89769 5.94318 5.65287C6.37749 3.76236 7.76343 2.5446 8.40212 2.17203C11.0897 0.409258 13.8224 1.43754 14.8529 2.17203C16.2324 2.81072 17.0883 4.75871 17.3437 5.65287C17.497 5.98499 17.5566 6.7067 17.5673 7.02605C17.7972 7.66473 18.323 7.52635 18.5572 7.37732L19.132 6.7067C19.2853 6.17021 20.3668 5.31224 20.8884 4.95032C22.549 3.80068 24.7099 4.02422 25.5828 4.2797C27.1923 4.61181 28.4675 6.03608 28.9039 6.7067C29.6193 7.52422 29.8833 9.19758 29.9258 9.93207C30.028 9.80433 30.7348 9.79368 31.0755 9.80433C31.1777 9.03791 30.82 7.86698 30.6284 7.37732C30.0919 5.71674 28.4036 4.34356 27.6266 3.86455C25.9149 2.63827 23.2303 2.82135 22.1019 3.06618C20.5435 3.34719 19.0895 4.73741 18.5572 5.3974C18.4806 4.8609 18.0356 3.91777 17.8227 3.51327C16.8775 1.87824 15.2361 0.894649 14.5335 0.607236C12.9751 -0.23583 10.7546 -0.0208057 9.83916 0.19209C7.79537 0.651944 6.26253 2.29975 5.75158 3.06618C4.75523 4.42019 4.57001 6.09994 4.60195 6.77056Z" fill="#115DA0"/>
<defs>
<linearGradient id="paint0_linear_9247_36038" x1="31.0996" y1="12.7133" x2="32.9844" y2="12.7133" gradientUnits="userSpaceOnUse">
<stop stop-color="#D87A26"/>
<stop offset="0.21" stop-color="#DD8425"/>
<stop offset="0.57" stop-color="#EAA225"/>
<stop offset="1" stop-color="#FFCD24"/>
</linearGradient>
<linearGradient id="paint1_linear_9247_36038" x1="30.6043" y1="11.8375" x2="32.9048" y2="11.8375" gradientUnits="userSpaceOnUse">
<stop stop-color="#D56126"/>
<stop offset="0.24" stop-color="#DC7226"/>
<stop offset="0.73" stop-color="#EE9E26"/>
<stop offset="1" stop-color="#FABB26"/>
</linearGradient>
<linearGradient id="paint2_linear_9247_36038" x1="31.6203" y1="13.3915" x2="32.8815" y2="13.3915" gradientUnits="userSpaceOnUse">
<stop stop-color="#A32424"/>
<stop offset="1" stop-color="#E32E2B"/>
</linearGradient>
<linearGradient id="paint3_linear_9247_36038" x1="31.6443" y1="14.0174" x2="32.1844" y2="14.9603" gradientUnits="userSpaceOnUse">
<stop stop-color="#B72828"/>
<stop offset="0.23" stop-color="#C62A29"/>
<stop offset="0.72" stop-color="#E12E2C"/>
<stop offset="1" stop-color="#EB302D"/>
</linearGradient>
<linearGradient id="paint4_linear_9247_36038" x1="30.117" y1="11.4823" x2="32.4222" y2="11.4823" gradientUnits="userSpaceOnUse">
<stop stop-color="#6B8C24"/>
<stop offset="0.07" stop-color="#719326"/>
<stop offset="0.45" stop-color="#8BB230"/>
<stop offset="0.78" stop-color="#9CC536"/>
<stop offset="1" stop-color="#A2CC39"/>
</linearGradient>
<linearGradient id="paint5_linear_9247_36038" x1="30.1973" y1="14.2133" x2="31.7183" y2="14.2133" gradientUnits="userSpaceOnUse">
<stop stop-color="#E77E20"/>
<stop offset="0.27" stop-color="#E77920"/>
<stop offset="0.53" stop-color="#E86D22"/>
<stop offset="0.81" stop-color="#EA5924"/>
<stop offset="1" stop-color="#ED4627"/>
</linearGradient>
<linearGradient id="paint6_linear_9247_36038" x1="29.1942" y1="14.3039" x2="31.4852" y2="14.3039" gradientUnits="userSpaceOnUse">
<stop stop-color="#F59223"/>
<stop offset="0.39" stop-color="#F27924"/>
<stop offset="1" stop-color="#ED4B26"/>
</linearGradient>
<linearGradient id="paint7_linear_9247_36038" x1="29.8477" y1="11.6038" x2="31.4112" y2="11.6038" gradientUnits="userSpaceOnUse">
<stop stop-color="#618020"/>
<stop offset="0.41" stop-color="#7DA12F"/>
<stop offset="0.77" stop-color="#8FB639"/>
<stop offset="1" stop-color="#96BE3D"/>
</linearGradient>
<linearGradient id="paint8_linear_9247_36038" x1="28.6826" y1="13.893" x2="30.865" y2="13.893" gradientUnits="userSpaceOnUse">
<stop stop-color="#C23C93"/>
<stop offset="0.33" stop-color="#AA2A7F"/>
<stop offset="1" stop-color="#70004E"/>
</linearGradient>
<linearGradient id="paint9_linear_9247_36038" x1="28.6201" y1="13.0845" x2="30.5805" y2="13.0845" gradientUnits="userSpaceOnUse">
<stop stop-color="#C33D92"/>
<stop offset="0.28" stop-color="#B22783"/>
<stop offset="0.74" stop-color="#9B0B6F"/>
<stop offset="1" stop-color="#930168"/>
</linearGradient>
<linearGradient id="paint10_linear_9247_36038" x1="29.2142" y1="12.0142" x2="30.3384" y2="12.0142" gradientUnits="userSpaceOnUse">
<stop stop-color="#0C71B8"/>
<stop offset="0.09" stop-color="#0A6BB0"/>
<stop offset="0.43" stop-color="#075B98"/>
<stop offset="0.74" stop-color="#055289"/>
<stop offset="1" stop-color="#054F85"/>
</linearGradient>
<linearGradient id="paint11_linear_9247_36038" x1="28.7188" y1="12.4547" x2="30.0603" y2="12.4547" gradientUnits="userSpaceOnUse">
<stop stop-color="#0C6BAF"/>
<stop offset="0.3" stop-color="#0B68AB"/>
<stop offset="0.52" stop-color="#0962A2"/>
<stop offset="0.73" stop-color="#065791"/>
<stop offset="0.92" stop-color="#02477A"/>
<stop offset="1" stop-color="#003F6E"/>
</linearGradient>
<clipPath id="clip0_9247_36038">
<rect width="8.04745" height="8.04745" fill="white" transform="translate(26.9521 8.75)"/>
</clipPath>
</defs>
</svg>
