<svg width="1024" height="801" viewBox="0 0 1024 801" fill="none" xmlns="http://www.w3.org/2000/svg">
<g opacity="0.4">
<mask id="mask0_1068_4173" style="mask-type:alpha" maskUnits="userSpaceOnUse" x="155" y="-134" width="764" height="924">
<rect x="234.859" y="-133.33" width="686.278" height="862.894" transform="rotate(5.30217 234.859 -133.33)" fill="url(#paint0_linear_1068_4173)"/>
</mask>
<g mask="url(#mask0_1068_4173)">
<path d="M774.867 473.406C761.947 612.619 638.62 714.999 499.408 702.079C360.195 689.16 257.815 565.832 270.735 426.62C283.654 287.408 389.573 372.612 528.785 385.531C667.997 398.451 787.786 334.194 774.867 473.406Z" fill="#579AFF"/>
<g filter="url(#filter0_f_1068_4173)">
<path d="M774.399 478.432C764.398 586.195 643.437 663.08 504.224 650.16C365.012 637.241 260.266 539.409 270.267 431.646C280.268 323.884 401.229 246.999 540.441 259.918C679.653 272.838 784.4 370.67 774.399 478.432Z" fill="#579AFF"/>
</g>
<g filter="url(#filter1_f_1068_4173)">
<ellipse cx="523.264" cy="444.992" rx="253.149" ry="195.959" transform="rotate(5.30217 523.264 444.992)" fill="#579AFF"/>
</g>
<g filter="url(#filter2_f_1068_4173)">
<ellipse cx="525.831" cy="417.353" rx="253.149" ry="196.8" transform="rotate(5.30217 525.831 417.353)" fill="#579AFF"/>
</g>
<g filter="url(#filter3_f_1068_4173)">
<ellipse cx="533.524" cy="334.45" rx="253.149" ry="195.959" transform="rotate(5.30217 533.524 334.45)" fill="#579AFF"/>
</g>
<g filter="url(#filter4_f_1068_4173)">
<ellipse cx="543.939" cy="222.235" rx="212.78" ry="195.959" transform="rotate(5.30217 543.939 222.235)" fill="#579AFF"/>
</g>
</g>
<mask id="mask1_1068_4173" style="mask-type:alpha" maskUnits="userSpaceOnUse" x="225" y="-63" width="1077" height="995">
<rect x="1002.48" y="-62.0898" width="686.278" height="862.894" transform="rotate(64.2136 1002.48 -62.0898)" fill="url(#paint1_linear_1068_4173)"/>
</mask>
<g mask="url(#mask1_1068_4173)">
<path d="M761.727 713.654C635.838 774.474 484.481 721.726 423.661 595.837C362.841 469.949 415.59 318.592 541.478 257.772C667.367 196.952 649.093 331.653 709.913 457.542C770.733 583.43 887.615 652.834 761.727 713.654Z" fill="#FF4DED"/>
<g filter="url(#filter5_f_1068_4173)">
<path d="M757.183 715.851C659.734 762.931 531.433 699.044 470.613 573.155C409.793 447.267 439.486 307.048 536.935 259.968C634.383 212.888 762.685 276.775 823.505 402.664C884.325 528.552 854.632 668.771 757.183 715.851Z" fill="#FF4DED"/>
</g>
<g filter="url(#filter6_f_1068_4173)">
<ellipse cx="656.147" cy="483.517" rx="253.149" ry="195.959" transform="rotate(64.2136 656.147 483.517)" fill="#FF4DED"/>
</g>
<g filter="url(#filter7_f_1068_4173)">
<ellipse cx="681.136" cy="471.446" rx="253.149" ry="196.8" transform="rotate(64.2136 681.136 471.446)" fill="#FF4DED"/>
</g>
<g filter="url(#filter8_f_1068_4173)">
<ellipse cx="756.108" cy="435.225" rx="253.149" ry="195.959" transform="rotate(64.2136 756.108 435.225)" fill="#FF4DED"/>
</g>
<g filter="url(#filter9_f_1068_4173)">
<ellipse cx="857.583" cy="386.199" rx="212.78" ry="195.959" transform="rotate(64.2136 857.583 386.199)" fill="#FF4DED"/>
</g>
</g>
</g>
<g opacity="0.4">
<mask id="mask2_1068_4173" style="mask-type:alpha" maskUnits="userSpaceOnUse" x="241" y="368" width="1068" height="379">
<rect x="1308.16" y="467.279" width="280.722" height="1045.01" transform="rotate(95.4175 1308.16 467.279)" fill="url(#paint2_linear_1068_4173)"/>
</mask>
<g mask="url(#mask2_1068_4173)">
<path d="M617.017 645.704C448.455 629.718 316.186 570.605 321.586 513.671C326.985 456.737 468.008 423.542 636.57 439.528C805.132 455.513 710.269 493.086 704.87 550.02C699.471 606.954 785.579 661.689 617.017 645.704Z" fill="#57AEFF"/>
<g filter="url(#filter10_f_1068_4173)">
<path d="M610.932 645.126C480.451 632.752 379.052 576.566 384.451 519.632C389.85 462.698 500.004 426.576 630.485 438.95C760.966 451.324 862.365 507.51 856.966 564.444C851.566 621.378 741.413 657.5 610.932 645.126Z" fill="#57AEFF"/>
</g>
<g filter="url(#filter11_f_1068_4173)">
<ellipse cx="632.874" cy="543.191" rx="103.551" ry="237.317" transform="rotate(95.4175 632.874 543.191)" fill="#57AEFF"/>
</g>
<g filter="url(#filter12_f_1068_4173)">
<ellipse cx="666.339" cy="546.366" rx="103.551" ry="238.336" transform="rotate(95.4175 666.339 546.366)" fill="#57AEFF"/>
</g>
<g filter="url(#filter13_f_1068_4173)">
<ellipse cx="766.72" cy="555.886" rx="103.551" ry="237.317" transform="rotate(95.4175 766.72 555.886)" fill="#57AEFF"/>
</g>
<g filter="url(#filter14_f_1068_4173)">
<ellipse cx="902.594" cy="568.77" rx="87.0376" ry="237.317" transform="rotate(95.4175 902.594 568.77)" fill="#57AEFF"/>
</g>
</g>
<mask id="mask3_1068_4173" style="mask-type:alpha" maskUnits="userSpaceOnUse" x="47" y="429" width="1232" height="430">
<rect width="726.248" height="618.295" transform="matrix(-0.994335 0.106288 -0.822244 -0.569136 1278.39 781.213)" fill="url(#paint3_linear_1068_4173)"/>
</mask>
<g mask="url(#mask3_1068_4173)">
<path d="M326.788 621.924C244.373 564.914 296.843 505.962 443.982 490.254C591.121 474.545 777.212 508.027 859.627 565.038C942.042 622.049 778.521 604.179 631.381 619.888C484.242 635.597 409.203 678.935 326.788 621.924Z" fill="#4A46FF"/>
<g filter="url(#filter15_f_1068_4173)">
<path d="M323.812 619.867C260.016 575.735 327.579 527.225 474.718 511.516C621.857 495.807 792.854 518.848 856.651 562.98C920.447 607.111 852.884 655.621 705.745 671.33C558.606 687.039 387.608 663.998 323.812 619.867Z" fill="#4A46FF"/>
</g>
<g filter="url(#filter16_f_1068_4173)">
<ellipse cx="267.893" cy="140.412" rx="267.893" ry="140.412" transform="matrix(-0.994499 0.106175 -0.822675 -0.569089 978.115 647.002)" fill="#4A46FF"/>
</g>
<g filter="url(#filter17_f_1068_4173)">
<ellipse cx="267.893" cy="141.015" rx="267.893" ry="141.015" transform="matrix(-0.994499 0.106175 -0.822675 -0.569089 994.969 658.662)" fill="#4A46FF"/>
</g>
<g filter="url(#filter18_f_1068_4173)">
<ellipse cx="267.893" cy="140.412" rx="267.893" ry="140.412" transform="matrix(-0.994499 0.106175 -0.822675 -0.569089 1043.55 692.271)" fill="#4A46FF"/>
</g>
<g filter="url(#filter19_f_1068_4173)">
<ellipse cx="225.172" cy="140.412" rx="225.172" ry="140.412" transform="matrix(-0.994499 0.106175 -0.822675 -0.569089 1067.5 742.763)" fill="#4A46FF"/>
</g>
</g>
</g>
<g opacity="0.4">
<mask id="mask4_1068_4173" style="mask-type:alpha" maskUnits="userSpaceOnUse" x="-175" y="-282" width="1035" height="1133">
<rect x="-174.24" y="6.86621" width="730.344" height="918.3" transform="rotate(-23.2549 -174.24 6.86621)" fill="url(#paint4_linear_1068_4173)"/>
</mask>
<g mask="url(#mask4_1068_4173)">
<path d="M639.191 299.288C697.936 435.988 634.741 594.427 498.041 653.171C361.341 711.916 202.902 648.721 144.158 512.021C85.4128 375.322 227.764 401.081 364.464 342.336C501.164 283.592 580.446 162.588 639.191 299.288Z" fill="#2C67FF"/>
<g filter="url(#filter20_f_1068_4173)">
<path d="M641.314 304.218C686.787 410.036 612.834 543.44 476.134 602.184C339.435 660.929 191.754 622.769 146.28 516.952C100.807 411.134 174.76 277.73 311.46 218.986C448.16 160.241 595.84 198.401 641.314 304.218Z" fill="#2C67FF"/>
</g>
<g filter="url(#filter21_f_1068_4173)">
<ellipse cx="389.555" cy="400.72" rx="269.404" ry="208.542" transform="rotate(-23.2549 389.555 400.72)" fill="#2C67FF"/>
</g>
<g filter="url(#filter22_f_1068_4173)">
<ellipse cx="377.897" cy="373.585" rx="269.404" ry="209.437" transform="rotate(-23.2549 377.897 373.585)" fill="#2C67FF"/>
</g>
<g filter="url(#filter23_f_1068_4173)">
<ellipse cx="342.91" cy="292.173" rx="269.404" ry="208.542" transform="rotate(-23.2549 342.91 292.173)" fill="#2C67FF"/>
</g>
<g filter="url(#filter24_f_1068_4173)">
<ellipse cx="295.556" cy="181.984" rx="226.442" ry="208.542" transform="rotate(-23.2549 295.556 181.984)" fill="#2C67FF"/>
</g>
</g>
<mask id="mask5_1068_4173" style="mask-type:alpha" maskUnits="userSpaceOnUse" x="-103" y="177" width="626" height="527">
<rect x="-102.52" y="625.887" width="452.334" height="568.743" transform="rotate(-82.1664 -102.52 625.887)" fill="url(#paint5_linear_1068_4173)"/>
</mask>
<g mask="url(#mask5_1068_4173)">
<path d="M312.715 287.972C404.006 300.532 467.83 384.72 455.27 476.01C442.711 567.301 358.523 631.125 267.232 618.565C175.942 606.006 235.129 538.742 247.689 447.451C260.249 356.16 221.425 275.413 312.715 287.972Z" fill="#094EFF"/>
<g filter="url(#filter25_f_1068_4173)">
<path d="M316.011 288.426C386.678 298.148 433.783 380.036 421.223 471.326C408.664 562.617 341.195 628.741 270.528 619.019C199.861 609.297 152.756 527.409 165.316 436.119C177.876 344.828 245.344 278.704 316.011 288.426Z" fill="#094EFF"/>
</g>
<g filter="url(#filter26_f_1068_4173)">
<ellipse cx="286.68" cy="452.815" rx="166.854" ry="129.159" transform="rotate(-82.1664 286.68 452.815)" fill="#094EFF"/>
</g>
<g filter="url(#filter27_f_1068_4173)">
<ellipse cx="268.555" cy="450.323" rx="166.854" ry="129.713" transform="rotate(-82.1664 268.555 450.323)" fill="#094EFF"/>
</g>
<g filter="url(#filter28_f_1068_4173)">
<ellipse cx="214.189" cy="442.843" rx="166.854" ry="129.159" transform="rotate(-82.1664 214.189 442.843)" fill="#094EFF"/>
</g>
<g filter="url(#filter29_f_1068_4173)">
<ellipse cx="140.604" cy="432.719" rx="140.246" ry="129.159" transform="rotate(-82.1664 140.604 432.719)" fill="#094EFF"/>
</g>
</g>
</g>
<g opacity="0.4">
<mask id="mask6_1068_4173" style="mask-type:alpha" maskUnits="userSpaceOnUse" x="70" y="195" width="828" height="824">
<rect x="426.75" y="1018.54" width="516.947" height="649.985" transform="rotate(-133.6 426.75 1018.54)" fill="url(#paint6_linear_1068_4173)"/>
</mask>
<g mask="url(#mask6_1068_4173)">
<path d="M420.645 406.741C496.911 334.114 617.611 337.065 690.238 413.33C762.864 489.596 759.913 610.297 683.648 682.923C607.382 755.549 589.447 654.737 516.821 578.472C444.195 502.206 344.379 479.367 420.645 406.741Z" fill="#0066FF"/>
<g filter="url(#filter30_f_1068_4173)">
<path d="M423.395 404.118C482.432 347.899 589.165 364.15 661.791 440.415C734.418 516.681 745.435 624.081 686.398 680.3C627.362 736.519 520.629 720.268 448.002 644.002C375.376 567.737 364.359 460.337 423.395 404.118Z" fill="#0066FF"/>
</g>
<g filter="url(#filter31_f_1068_4173)">
<ellipse cx="549.393" cy="547.452" rx="190.688" ry="147.609" transform="rotate(-133.6 549.393 547.452)" fill="#0066FF"/>
</g>
<g filter="url(#filter32_f_1068_4173)">
<ellipse cx="534.254" cy="561.867" rx="190.688" ry="148.242" transform="rotate(-133.6 534.254 561.867)" fill="#0066FF"/>
</g>
<g filter="url(#filter33_f_1068_4173)">
<ellipse cx="488.834" cy="605.12" rx="190.688" ry="147.609" transform="rotate(-133.6 488.834 605.12)" fill="#0066FF"/>
</g>
<g filter="url(#filter34_f_1068_4173)">
<ellipse cx="427.359" cy="663.663" rx="160.279" ry="147.609" transform="rotate(-133.6 427.359 663.663)" fill="#0066FF"/>
</g>
</g>
<mask id="mask7_1068_4173" style="mask-type:alpha" maskUnits="userSpaceOnUse" x="420" y="425" width="400" height="463">
<rect x="819.918" y="818.612" width="320.168" height="402.564" transform="rotate(167.489 819.918 818.612)" fill="url(#paint7_linear_1068_4173)"/>
</mask>
<g mask="url(#mask7_1068_4173)">
<path d="M493.475 626.193C479.345 562.516 519.511 499.442 583.187 485.312C646.864 471.182 709.938 511.347 724.068 575.024C738.198 638.701 678.993 615.973 615.316 630.103C551.64 644.233 507.605 689.87 493.475 626.193Z" fill="#096BFF"/>
<g filter="url(#filter35_f_1068_4173)">
<path d="M492.963 623.895C482.026 574.604 524.779 523.191 588.455 509.061C652.132 494.931 712.619 523.435 723.557 572.726C734.495 622.017 691.741 673.43 628.065 687.56C564.388 701.69 503.901 673.186 492.963 623.895Z" fill="#096BFF"/>
</g>
<g filter="url(#filter36_f_1068_4173)">
<ellipse cx="609.28" cy="602.906" rx="118.101" ry="91.4206" transform="rotate(167.489 609.28 602.906)" fill="#096BFF"/>
</g>
<g filter="url(#filter37_f_1068_4173)">
<ellipse cx="612.087" cy="615.548" rx="118.101" ry="91.8129" transform="rotate(167.489 612.087 615.548)" fill="#096BFF"/>
</g>
<g filter="url(#filter38_f_1068_4173)">
<ellipse cx="620.5" cy="653.469" rx="118.101" ry="91.4206" transform="rotate(167.489 620.5 653.469)" fill="#096BFF"/>
</g>
<g filter="url(#filter39_f_1068_4173)">
<ellipse cx="631.89" cy="704.797" rx="99.2678" ry="91.4206" transform="rotate(167.489 631.89 704.797)" fill="#096BFF"/>
</g>
</g>
</g>
<defs>
<filter id="filter0_f_1068_4173" x="265.261" y="254.158" width="514.141" height="401.764" filterUnits="userSpaceOnUse" color-interpolation-filters="sRGB">
<feFlood flood-opacity="0" result="BackgroundImageFix"/>
<feBlend mode="normal" in="SourceGraphic" in2="BackgroundImageFix" result="shape"/>
<feGaussianBlur stdDeviation="2.17209" result="effect1_foregroundBlur_1068_4173"/>
</filter>
<filter id="filter1_f_1068_4173" x="255.332" y="233.249" width="535.862" height="423.484" filterUnits="userSpaceOnUse" color-interpolation-filters="sRGB">
<feFlood flood-opacity="0" result="BackgroundImageFix"/>
<feBlend mode="normal" in="SourceGraphic" in2="BackgroundImageFix" result="shape"/>
<feGaussianBlur stdDeviation="7.60231" result="effect1_foregroundBlur_1068_4173"/>
</filter>
<filter id="filter2_f_1068_4173" x="236.174" y="183.059" width="579.314" height="468.589" filterUnits="userSpaceOnUse" color-interpolation-filters="sRGB">
<feFlood flood-opacity="0" result="BackgroundImageFix"/>
<feBlend mode="normal" in="SourceGraphic" in2="BackgroundImageFix" result="shape"/>
<feGaussianBlur stdDeviation="18.4628" result="effect1_foregroundBlur_1068_4173"/>
</filter>
<filter id="filter3_f_1068_4173" x="200.43" y="57.5448" width="666.188" height="553.81" filterUnits="userSpaceOnUse" color-interpolation-filters="sRGB">
<feFlood flood-opacity="0" result="BackgroundImageFix"/>
<feBlend mode="normal" in="SourceGraphic" in2="BackgroundImageFix" result="shape"/>
<feGaussianBlur stdDeviation="40.1837" result="effect1_foregroundBlur_1068_4173"/>
</filter>
<filter id="filter4_f_1068_4173" x="190.099" y="-115.075" width="707.68" height="674.62" filterUnits="userSpaceOnUse" color-interpolation-filters="sRGB">
<feFlood flood-opacity="0" result="BackgroundImageFix"/>
<feBlend mode="normal" in="SourceGraphic" in2="BackgroundImageFix" result="shape"/>
<feGaussianBlur stdDeviation="70.5929" result="effect1_foregroundBlur_1068_4173"/>
</filter>
<filter id="filter5_f_1068_4173" x="434.695" y="240.139" width="424.727" height="495.54" filterUnits="userSpaceOnUse" color-interpolation-filters="sRGB">
<feFlood flood-opacity="0" result="BackgroundImageFix"/>
<feBlend mode="normal" in="SourceGraphic" in2="BackgroundImageFix" result="shape"/>
<feGaussianBlur stdDeviation="2.17209" result="effect1_foregroundBlur_1068_4173"/>
</filter>
<filter id="filter6_f_1068_4173" x="432.922" y="224.886" width="446.448" height="517.261" filterUnits="userSpaceOnUse" color-interpolation-filters="sRGB">
<feFlood flood-opacity="0" result="BackgroundImageFix"/>
<feBlend mode="normal" in="SourceGraphic" in2="BackgroundImageFix" result="shape"/>
<feGaussianBlur stdDeviation="7.60232" result="effect1_foregroundBlur_1068_4173"/>
</filter>
<filter id="filter7_f_1068_4173" x="435.547" y="190.966" width="491.177" height="560.959" filterUnits="userSpaceOnUse" color-interpolation-filters="sRGB">
<feFlood flood-opacity="0" result="BackgroundImageFix"/>
<feBlend mode="normal" in="SourceGraphic" in2="BackgroundImageFix" result="shape"/>
<feGaussianBlur stdDeviation="18.4628" result="effect1_foregroundBlur_1068_4173"/>
</filter>
<filter id="filter8_f_1068_4173" x="467.721" y="111.431" width="576.774" height="647.586" filterUnits="userSpaceOnUse" color-interpolation-filters="sRGB">
<feFlood flood-opacity="0" result="BackgroundImageFix"/>
<feBlend mode="normal" in="SourceGraphic" in2="BackgroundImageFix" result="shape"/>
<feGaussianBlur stdDeviation="40.1837" result="effect1_foregroundBlur_1068_4173"/>
</filter>
<filter id="filter9_f_1068_4173" x="517.105" y="35.2605" width="680.956" height="701.877" filterUnits="userSpaceOnUse" color-interpolation-filters="sRGB">
<feFlood flood-opacity="0" result="BackgroundImageFix"/>
<feBlend mode="normal" in="SourceGraphic" in2="BackgroundImageFix" result="shape"/>
<feGaussianBlur stdDeviation="70.5929" result="effect1_foregroundBlur_1068_4173"/>
</filter>
<filter id="filter10_f_1068_4173" x="381.202" y="433.478" width="479.012" height="217.118" filterUnits="userSpaceOnUse" color-interpolation-filters="sRGB">
<feFlood flood-opacity="0" result="BackgroundImageFix"/>
<feBlend mode="normal" in="SourceGraphic" in2="BackgroundImageFix" result="shape"/>
<feGaussianBlur stdDeviation="1.52104" result="effect1_foregroundBlur_1068_4173"/>
</filter>
<filter id="filter11_f_1068_4173" x="385.763" y="427.027" width="494.222" height="232.329" filterUnits="userSpaceOnUse" color-interpolation-filters="sRGB">
<feFlood flood-opacity="0" result="BackgroundImageFix"/>
<feBlend mode="normal" in="SourceGraphic" in2="BackgroundImageFix" result="shape"/>
<feGaussianBlur stdDeviation="5.32363" result="effect1_foregroundBlur_1068_4173"/>
</filter>
<filter id="filter12_f_1068_4173" x="403.006" y="414.971" width="526.666" height="262.79" filterUnits="userSpaceOnUse" color-interpolation-filters="sRGB">
<feFlood flood-opacity="0" result="BackgroundImageFix"/>
<feBlend mode="normal" in="SourceGraphic" in2="BackgroundImageFix" result="shape"/>
<feGaussianBlur stdDeviation="12.9288" result="effect1_foregroundBlur_1068_4173"/>
</filter>
<filter id="filter13_f_1068_4173" x="473.978" y="394.09" width="585.484" height="323.591" filterUnits="userSpaceOnUse" color-interpolation-filters="sRGB">
<feFlood flood-opacity="0" result="BackgroundImageFix"/>
<feBlend mode="normal" in="SourceGraphic" in2="BackgroundImageFix" result="shape"/>
<feGaussianBlur stdDeviation="28.1392" result="effect1_foregroundBlur_1068_4173"/>
</filter>
<filter id="filter14_f_1068_4173" x="567.324" y="380.382" width="670.539" height="376.776" filterUnits="userSpaceOnUse" color-interpolation-filters="sRGB">
<feFlood flood-opacity="0" result="BackgroundImageFix"/>
<feBlend mode="normal" in="SourceGraphic" in2="BackgroundImageFix" result="shape"/>
<feGaussianBlur stdDeviation="49.4337" result="effect1_foregroundBlur_1068_4173"/>
</filter>
<filter id="filter15_f_1068_4173" x="296.731" y="503.54" width="587" height="175.767" filterUnits="userSpaceOnUse" color-interpolation-filters="sRGB">
<feFlood flood-opacity="0" result="BackgroundImageFix"/>
<feBlend mode="normal" in="SourceGraphic" in2="BackgroundImageFix" result="shape"/>
<feGaussianBlur stdDeviation="1.52104" result="effect1_foregroundBlur_1068_4173"/>
</filter>
<filter id="filter16_f_1068_4173" x="295.077" y="500.05" width="602.211" height="190.977" filterUnits="userSpaceOnUse" color-interpolation-filters="sRGB">
<feFlood flood-opacity="0" result="BackgroundImageFix"/>
<feBlend mode="normal" in="SourceGraphic" in2="BackgroundImageFix" result="shape"/>
<feGaussianBlur stdDeviation="5.32363" result="effect1_foregroundBlur_1068_4173"/>
</filter>
<filter id="filter17_f_1068_4173" x="296.027" y="495.834" width="633.026" height="222.044" filterUnits="userSpaceOnUse" color-interpolation-filters="sRGB">
<feFlood flood-opacity="0" result="BackgroundImageFix"/>
<feBlend mode="normal" in="SourceGraphic" in2="BackgroundImageFix" result="shape"/>
<feGaussianBlur stdDeviation="12.9288" result="effect1_foregroundBlur_1068_4173"/>
</filter>
<filter id="filter18_f_1068_4173" x="314.886" y="499.688" width="693.473" height="282.239" filterUnits="userSpaceOnUse" color-interpolation-filters="sRGB">
<feFlood flood-opacity="0" result="BackgroundImageFix"/>
<feBlend mode="normal" in="SourceGraphic" in2="BackgroundImageFix" result="shape"/>
<feGaussianBlur stdDeviation="28.1392" result="effect1_foregroundBlur_1068_4173"/>
</filter>
<filter id="filter19_f_1068_4173" x="377.164" y="504.468" width="701.782" height="364.592" filterUnits="userSpaceOnUse" color-interpolation-filters="sRGB">
<feFlood flood-opacity="0" result="BackgroundImageFix"/>
<feBlend mode="normal" in="SourceGraphic" in2="BackgroundImageFix" result="shape"/>
<feGaussianBlur stdDeviation="49.4337" result="effect1_foregroundBlur_1068_4173"/>
</filter>
<filter id="filter20_f_1068_4173" x="127.843" y="186.368" width="531.911" height="448.434" filterUnits="userSpaceOnUse" color-interpolation-filters="sRGB">
<feFlood flood-opacity="0" result="BackgroundImageFix"/>
<feBlend mode="normal" in="SourceGraphic" in2="BackgroundImageFix" result="shape"/>
<feGaussianBlur stdDeviation="2.51622" result="effect1_foregroundBlur_1068_4173"/>
</filter>
<filter id="filter21_f_1068_4173" x="111.019" y="163.922" width="557.073" height="473.596" filterUnits="userSpaceOnUse" color-interpolation-filters="sRGB">
<feFlood flood-opacity="0" result="BackgroundImageFix"/>
<feBlend mode="normal" in="SourceGraphic" in2="BackgroundImageFix" result="shape"/>
<feGaussianBlur stdDeviation="8.80679" result="effect1_foregroundBlur_1068_4173"/>
</filter>
<filter id="filter22_f_1068_4173" x="74.0855" y="110.905" width="607.622" height="525.36" filterUnits="userSpaceOnUse" color-interpolation-filters="sRGB">
<feFlood flood-opacity="0" result="BackgroundImageFix"/>
<feBlend mode="normal" in="SourceGraphic" in2="BackgroundImageFix" result="shape"/>
<feGaussianBlur stdDeviation="21.3879" result="effect1_foregroundBlur_1068_4173"/>
</filter>
<filter id="filter23_f_1068_4173" x="-11.112" y="-20.112" width="708.046" height="624.57" filterUnits="userSpaceOnUse" color-interpolation-filters="sRGB">
<feFlood flood-opacity="0" result="BackgroundImageFix"/>
<feBlend mode="normal" in="SourceGraphic" in2="BackgroundImageFix" result="shape"/>
<feGaussianBlur stdDeviation="46.5502" result="effect1_foregroundBlur_1068_4173"/>
</filter>
<filter id="filter24_f_1068_4173" x="-91.8046" y="-193.054" width="774.722" height="750.074" filterUnits="userSpaceOnUse" color-interpolation-filters="sRGB">
<feFlood flood-opacity="0" result="BackgroundImageFix"/>
<feBlend mode="normal" in="SourceGraphic" in2="BackgroundImageFix" result="shape"/>
<feGaussianBlur stdDeviation="81.7773" result="effect1_foregroundBlur_1068_4173"/>
</filter>
<filter id="filter25_f_1068_4173" x="158.257" y="282.445" width="270.026" height="342.555" filterUnits="userSpaceOnUse" color-interpolation-filters="sRGB">
<feFlood flood-opacity="0" result="BackgroundImageFix"/>
<feBlend mode="normal" in="SourceGraphic" in2="BackgroundImageFix" result="shape"/>
<feGaussianBlur stdDeviation="2.51622" result="effect1_foregroundBlur_1068_4173"/>
</filter>
<filter id="filter26_f_1068_4173" x="139.086" y="268.957" width="295.188" height="367.717" filterUnits="userSpaceOnUse" color-interpolation-filters="sRGB">
<feFlood flood-opacity="0" result="BackgroundImageFix"/>
<feBlend mode="normal" in="SourceGraphic" in2="BackgroundImageFix" result="shape"/>
<feGaussianBlur stdDeviation="8.80679" result="effect1_foregroundBlur_1068_4173"/>
</filter>
<filter id="filter27_f_1068_4173" x="95.2574" y="241.294" width="346.595" height="418.057" filterUnits="userSpaceOnUse" color-interpolation-filters="sRGB">
<feFlood flood-opacity="0" result="BackgroundImageFix"/>
<feBlend mode="normal" in="SourceGraphic" in2="BackgroundImageFix" result="shape"/>
<feGaussianBlur stdDeviation="21.3879" result="effect1_foregroundBlur_1068_4173"/>
</filter>
<filter id="filter28_f_1068_4173" x="-8.89133" y="183.497" width="446.162" height="518.691" filterUnits="userSpaceOnUse" color-interpolation-filters="sRGB">
<feFlood flood-opacity="0" result="BackgroundImageFix"/>
<feBlend mode="normal" in="SourceGraphic" in2="BackgroundImageFix" result="shape"/>
<feGaussianBlur stdDeviation="46.5502" result="effect1_foregroundBlur_1068_4173"/>
</filter>
<filter id="filter29_f_1068_4173" x="-152.342" y="129.102" width="585.892" height="607.234" filterUnits="userSpaceOnUse" color-interpolation-filters="sRGB">
<feFlood flood-opacity="0" result="BackgroundImageFix"/>
<feBlend mode="normal" in="SourceGraphic" in2="BackgroundImageFix" result="shape"/>
<feGaussianBlur stdDeviation="81.7773" result="effect1_foregroundBlur_1068_4173"/>
</filter>
<filter id="filter30_f_1068_4173" x="380.391" y="365.61" width="349.01" height="353.197" filterUnits="userSpaceOnUse" color-interpolation-filters="sRGB">
<feFlood flood-opacity="0" result="BackgroundImageFix"/>
<feBlend mode="normal" in="SourceGraphic" in2="BackgroundImageFix" result="shape"/>
<feGaussianBlur stdDeviation="2.51622" result="effect1_foregroundBlur_1068_4173"/>
</filter>
<filter id="filter31_f_1068_4173" x="362.306" y="358.272" width="374.172" height="378.359" filterUnits="userSpaceOnUse" color-interpolation-filters="sRGB">
<feFlood flood-opacity="0" result="BackgroundImageFix"/>
<feBlend mode="normal" in="SourceGraphic" in2="BackgroundImageFix" result="shape"/>
<feGaussianBlur stdDeviation="8.80679" result="effect1_foregroundBlur_1068_4173"/>
</filter>
<filter id="filter32_f_1068_4173" x="321.716" y="347.266" width="425.075" height="429.203" filterUnits="userSpaceOnUse" color-interpolation-filters="sRGB">
<feFlood flood-opacity="0" result="BackgroundImageFix"/>
<feBlend mode="normal" in="SourceGraphic" in2="BackgroundImageFix" result="shape"/>
<feGaussianBlur stdDeviation="21.3879" result="effect1_foregroundBlur_1068_4173"/>
</filter>
<filter id="filter33_f_1068_4173" x="226.261" y="340.453" width="525.146" height="529.333" filterUnits="userSpaceOnUse" color-interpolation-filters="sRGB">
<feFlood flood-opacity="0" result="BackgroundImageFix"/>
<feBlend mode="normal" in="SourceGraphic" in2="BackgroundImageFix" result="shape"/>
<feGaussianBlur stdDeviation="46.5502" result="effect1_foregroundBlur_1068_4173"/>
</filter>
<filter id="filter34_f_1068_4173" x="110.039" y="345.723" width="634.64" height="635.88" filterUnits="userSpaceOnUse" color-interpolation-filters="sRGB">
<feFlood flood-opacity="0" result="BackgroundImageFix"/>
<feBlend mode="normal" in="SourceGraphic" in2="BackgroundImageFix" result="shape"/>
<feGaussianBlur stdDeviation="81.7773" result="effect1_foregroundBlur_1068_4173"/>
</filter>
<filter id="filter35_f_1068_4173" x="486.223" y="500.41" width="244.073" height="195.801" filterUnits="userSpaceOnUse" color-interpolation-filters="sRGB">
<feFlood flood-opacity="0" result="BackgroundImageFix"/>
<feBlend mode="normal" in="SourceGraphic" in2="BackgroundImageFix" result="shape"/>
<feGaussianBlur stdDeviation="2.51622" result="effect1_foregroundBlur_1068_4173"/>
</filter>
<filter id="filter36_f_1068_4173" x="474.662" y="492.425" width="269.235" height="220.963" filterUnits="userSpaceOnUse" color-interpolation-filters="sRGB">
<feFlood flood-opacity="0" result="BackgroundImageFix"/>
<feBlend mode="normal" in="SourceGraphic" in2="BackgroundImageFix" result="shape"/>
<feGaussianBlur stdDeviation="8.80679" result="effect1_foregroundBlur_1068_4173"/>
</filter>
<filter id="filter37_f_1068_4173" x="452.293" y="479.536" width="319.589" height="272.025" filterUnits="userSpaceOnUse" color-interpolation-filters="sRGB">
<feFlood flood-opacity="0" result="BackgroundImageFix"/>
<feBlend mode="normal" in="SourceGraphic" in2="BackgroundImageFix" result="shape"/>
<feGaussianBlur stdDeviation="21.3879" result="effect1_foregroundBlur_1068_4173"/>
</filter>
<filter id="filter38_f_1068_4173" x="410.396" y="467.5" width="420.208" height="371.937" filterUnits="userSpaceOnUse" color-interpolation-filters="sRGB">
<feFlood flood-opacity="0" result="BackgroundImageFix"/>
<feBlend mode="normal" in="SourceGraphic" in2="BackgroundImageFix" result="shape"/>
<feGaussianBlur stdDeviation="46.5502" result="effect1_foregroundBlur_1068_4173"/>
</filter>
<filter id="filter39_f_1068_4173" x="369.402" y="449.417" width="524.976" height="510.76" filterUnits="userSpaceOnUse" color-interpolation-filters="sRGB">
<feFlood flood-opacity="0" result="BackgroundImageFix"/>
<feBlend mode="normal" in="SourceGraphic" in2="BackgroundImageFix" result="shape"/>
<feGaussianBlur stdDeviation="81.7773" result="effect1_foregroundBlur_1068_4173"/>
</filter>
<linearGradient id="paint0_linear_1068_4173" x1="738.635" y1="553.789" x2="738.635" y2="-133.33" gradientUnits="userSpaceOnUse">
<stop stop-color="white"/>
<stop offset="1" stop-color="white" stop-opacity="0"/>
</linearGradient>
<linearGradient id="paint1_linear_1068_4173" x1="1506.25" y1="625.029" x2="1506.25" y2="-62.0898" gradientUnits="userSpaceOnUse">
<stop stop-color="white"/>
<stop offset="1" stop-color="white" stop-opacity="0"/>
</linearGradient>
<linearGradient id="paint2_linear_1068_4173" x1="1514.23" y1="1299.42" x2="1514.23" y2="467.279" gradientUnits="userSpaceOnUse">
<stop stop-color="white"/>
<stop offset="1" stop-color="white" stop-opacity="0"/>
</linearGradient>
<linearGradient id="paint3_linear_1068_4173" x1="533.116" y1="492.346" x2="533.116" y2="3.83037e-06" gradientUnits="userSpaceOnUse">
<stop stop-color="white"/>
<stop offset="1" stop-color="white" stop-opacity="0"/>
</linearGradient>
<linearGradient id="paint4_linear_1068_4173" x1="361.882" y1="738.105" x2="361.882" y2="6.86622" gradientUnits="userSpaceOnUse">
<stop stop-color="white"/>
<stop offset="1" stop-color="white" stop-opacity="0"/>
</linearGradient>
<linearGradient id="paint5_linear_1068_4173" x1="229.525" y1="1078.77" x2="229.525" y2="625.887" gradientUnits="userSpaceOnUse">
<stop stop-color="white"/>
<stop offset="1" stop-color="white" stop-opacity="0"/>
</linearGradient>
<linearGradient id="paint6_linear_1068_4173" x1="806.225" y1="1536.12" x2="806.225" y2="1018.54" gradientUnits="userSpaceOnUse">
<stop stop-color="white"/>
<stop offset="1" stop-color="white" stop-opacity="0"/>
</linearGradient>
<linearGradient id="paint7_linear_1068_4173" x1="1054.94" y1="1139.17" x2="1054.94" y2="818.612" gradientUnits="userSpaceOnUse">
<stop stop-color="white"/>
<stop offset="1" stop-color="white" stop-opacity="0"/>
</linearGradient>
</defs>
</svg>
