<svg width="975" height="547" viewBox="0 0 975 547" fill="none" xmlns="http://www.w3.org/2000/svg">
<g filter="url(#filter0_d_1411_35180)">
<path d="M209.282 419.323C145.463 419.323 138.124 419.535 42.188 420.004L35.8008 422.244C45.9829 425.143 76.5364 433.32 87.2383 433.32H762.304C768.461 433.32 780.927 430.663 792.045 427.951C803.625 425.126 813.745 422.244 813.745 422.244L807.356 420.004C415.535 419.569 278.849 419.323 209.282 419.323Z" fill="#E8ECF7"/>
</g>
<path d="M720.379 0H128.82C124.055 0.00576003 119.487 1.90428 116.121 5.27777C112.756 8.65125 110.868 13.2232 110.873 17.9885V409.041C110.869 411.756 111.481 414.436 112.662 416.88H736.535C737.718 414.436 738.331 411.756 738.328 409.041V17.9843C738.331 13.2196 736.443 8.64856 733.077 5.27607C729.711 1.90357 725.144 0.00576028 720.379 0Z" fill="#F2F6FE"/>
<path d="M424.6 11.9299C425.761 11.9299 426.703 10.992 426.703 9.83508C426.703 8.67813 425.761 7.74023 424.6 7.74023C423.438 7.74023 422.496 8.67813 422.496 9.83508C422.496 10.992 423.438 11.9299 424.6 11.9299Z" fill="#C5CCDD"/>
<path d="M209.282 419.324C145.463 419.324 138.124 419.536 42.188 420.005L35.8008 422.245C45.9829 425.144 76.5364 433.321 87.2383 433.321H762.304C768.461 433.321 780.927 430.664 792.045 427.952C803.625 425.127 813.745 422.245 813.745 422.245L807.356 420.005C415.535 419.57 278.849 419.324 209.282 419.324Z" fill="url(#paint0_linear_1411_35180)"/>
<path d="M812.44 416.525H37.2495C36.9537 416.526 36.6608 416.584 36.3877 416.698C36.1145 416.811 35.8664 416.977 35.6574 417.187C35.4485 417.396 35.283 417.645 35.1702 417.918C35.0574 418.191 34.9995 418.484 35 418.78V420.22C34.9995 420.516 35.0574 420.809 35.1702 421.082C35.283 421.356 35.4485 421.604 35.6574 421.814C35.8664 422.023 36.1145 422.19 36.3877 422.303C36.6608 422.417 36.9537 422.475 37.2495 422.475H812.44C812.736 422.475 813.029 422.417 813.302 422.303C813.575 422.19 813.824 422.024 814.033 421.814C814.242 421.605 814.407 421.356 814.52 421.083C814.633 420.809 814.69 420.516 814.69 420.22V418.78C814.69 418.484 814.633 418.191 814.52 417.918C814.407 417.644 814.242 417.396 814.033 417.186C813.824 416.977 813.575 416.811 813.302 416.697C813.029 416.584 812.736 416.526 812.44 416.525Z" fill="white"/>
<path d="M480.691 416.434H368.561C374.531 419.018 380.967 420.353 387.472 420.356H461.785C468.29 420.35 474.724 419.016 480.694 416.434" fill="url(#paint1_linear_1411_35180)"/>
<path d="M721.767 21.4707H127.396C125.243 21.4707 123.498 23.2161 123.498 25.3691V404.065C123.498 406.218 125.243 407.964 127.396 407.964H721.767C723.92 407.964 725.665 406.218 725.665 404.065V25.3692C725.665 23.2161 723.92 21.4707 721.767 21.4707Z" fill="white"/>
<defs>
<filter id="filter0_d_1411_35180" x="0.848515" y="335.889" width="974.129" height="210.18" filterUnits="userSpaceOnUse" color-interpolation-filters="sRGB">
<feFlood flood-opacity="0" result="BackgroundImageFix"/>
<feColorMatrix in="SourceAlpha" type="matrix" values="0 0 0 0 0 0 0 0 0 0 0 0 0 0 0 0 0 0 127 0" result="hardAlpha"/>
<feOffset dx="63.1396" dy="14.6574"/>
<feGaussianBlur stdDeviation="49.0459"/>
<feColorMatrix type="matrix" values="0 0 0 0 0.0911979 0 0 0 0 0.117884 0 0 0 0 0.2125 0 0 0 1 0"/>
<feBlend mode="normal" in2="BackgroundImageFix" result="effect1_dropShadow_1411_35180"/>
<feBlend mode="normal" in="SourceGraphic" in2="effect1_dropShadow_1411_35180" result="shape"/>
</filter>
<linearGradient id="paint0_linear_1411_35180" x1="424.773" y1="436.82" x2="424.773" y2="415.825" gradientUnits="userSpaceOnUse">
<stop stop-color="#BBBECD"/>
<stop offset="0.27" stop-color="#D2D4DE"/>
<stop offset="1" stop-color="white"/>
</linearGradient>
<linearGradient id="paint1_linear_1411_35180" x1="424.628" y1="421.337" x2="424.628" y2="415.453" gradientUnits="userSpaceOnUse">
<stop stop-color="#C5DAE6"/>
<stop offset="0.27" stop-color="#D9E2F2"/>
<stop offset="1" stop-color="white"/>
</linearGradient>
</defs>
</svg>
