<?xml version="1.0" encoding="utf-8"?>
<!-- Generator: Adobe Illustrator 28.1.0, SVG Export Plug-In . SVG Version: 6.00 Build 0)  -->
<svg version="1.1" id="Layer_1" xmlns="http://www.w3.org/2000/svg" xmlns:xlink="http://www.w3.org/1999/xlink" x="0px" y="0px"
	 viewBox="0 0 494 277" style="enable-background:new 0 0 494 277;" xml:space="preserve">
<style type="text/css">
	.st0{fill:#E8ECF7;}
	.st1{fill:#F2F6FE;}
	.st2{fill:#C5CCDD;}
	.st3{fill:url(#SVGID_1_);}
	.st4{fill:#FFFFFF;}
	.st5{fill:url(#SVGID_00000129188852444376581340000001407534458444135351_);}
	.st6{fill:none;stroke:#CCD5E2;stroke-miterlimit:10;}
	.st7{fill:#1A91FF;fill-opacity:0.7;}
	.st8{opacity:0.4;fill:none;stroke:#1A91FF;stroke-width:0.5468;enable-background:new    ;}
	.st9{opacity:0.3;fill:none;stroke:#1A91FF;stroke-width:0.4101;enable-background:new    ;}
	.st10{opacity:0.3;fill:none;stroke:#1A91FF;stroke-width:0.2734;enable-background:new    ;}
</style>
<g>
	<g>
		<path class="st0" d="M147.5,232.1c-29.5,0-32.9,0.1-77.2,0.3l-2.9,1c4.7,1.3,18.8,5.1,23.7,5.1h311.7c2.8,0,8.6-1.2,13.7-2.5
			c5.3-1.3,10-2.6,10-2.6l-3-1C242.7,232.2,179.6,232.1,147.5,232.1z"/>
	</g>
	<path class="st1" d="M383.5,38.5H110.3c-2.2,0-4.3,0.9-5.9,2.4c-1.6,1.6-2.4,3.7-2.4,5.9v180.6c0,1.3,0.3,2.5,0.8,3.6h288.1
		c0.5-1.1,0.8-2.4,0.8-3.6V46.8c0-2.2-0.9-4.3-2.4-5.9C387.8,39.3,385.7,38.5,383.5,38.5z"/>
	<path class="st2" d="M246.9,44c0.5,0,1-0.4,1-1c0-0.5-0.4-1-1-1c-0.5,0-1,0.4-1,1C245.9,43.5,246.3,44,246.9,44z"/>
	
		<linearGradient id="SVGID_1_" gradientUnits="userSpaceOnUse" x1="246.967" y1="37.8482" x2="246.967" y2="47.5412" gradientTransform="matrix(1 0 0 -1 0 278)">
		<stop  offset="0" style="stop-color:#BBBECD"/>
		<stop  offset="0.27" style="stop-color:#D2D4DE"/>
		<stop  offset="1" style="stop-color:#FFFFFF"/>
	</linearGradient>
	<path class="st3" d="M147.5,232.1c-29.5,0-32.9,0.1-77.2,0.3l-2.9,1c4.7,1.3,18.8,5.1,23.7,5.1h311.7c2.8,0,8.6-1.2,13.7-2.5
		c5.3-1.3,10-2.6,10-2.6l-3-1C242.7,232.2,179.6,232.1,147.5,232.1z"/>
	<path class="st4" d="M426,230.8H68c-0.1,0-0.3,0-0.4,0.1c-0.1,0.1-0.2,0.1-0.3,0.2c-0.1,0.1-0.2,0.2-0.2,0.3
		c-0.1,0.1-0.1,0.3-0.1,0.4v0.7c0,0.1,0,0.3,0.1,0.4c0.1,0.1,0.1,0.2,0.2,0.3c0.1,0.1,0.2,0.2,0.3,0.2c0.1,0.1,0.3,0.1,0.4,0.1H426
		c0.1,0,0.3,0,0.4-0.1c0.1-0.1,0.2-0.1,0.3-0.2c0.1-0.1,0.2-0.2,0.2-0.3c0.1-0.1,0.1-0.3,0.1-0.4v-0.7c0-0.1,0-0.3-0.1-0.4
		s-0.1-0.2-0.2-0.3c-0.1-0.1-0.2-0.2-0.3-0.2C426.2,230.8,426.1,230.8,426,230.8"/>
	
		<linearGradient id="SVGID_00000016771817048838187120000015604091972931401401_" gradientUnits="userSpaceOnUse" x1="246.8991" y1="44.9965" x2="246.8991" y2="47.7129" gradientTransform="matrix(1 0 0 -1 0 278)">
		<stop  offset="0" style="stop-color:#C5DAE6"/>
		<stop  offset="0.27" style="stop-color:#D9E2F2"/>
		<stop  offset="1" style="stop-color:#FFFFFF"/>
	</linearGradient>
	<path style="fill:url(#SVGID_00000016771817048838187120000015604091972931401401_);" d="M272.8,230.7H221c2.8,1.2,5.7,1.8,8.7,1.8
		h34.3C267.1,232.5,270,231.9,272.8,230.7"/>
	<path class="st6" d="M109.2,48.5h274.4c1,0,1.8,0.8,1.8,1.8v175.2c0,1-0.8,1.8-1.8,1.8H109.2c-1,0-1.8-0.8-1.8-1.8V50.3
		C107.4,49.3,108.2,48.5,109.2,48.5z"/>
	<g>
		<path shape-rendering="crispEdges" class="st7" d="M247.1,151.6c8.4,0,15.2-6.8,15.2-15.2c0-8.4-6.8-15.2-15.2-15.2
			c-8.4,0-15.2,6.8-15.2,15.2C231.8,144.8,238.7,151.6,247.1,151.6z"/>
	</g>
	<path class="st8" d="M269.4,136.4c0,12.3-10,22.3-22.3,22.3c-12.3,0-22.3-10-22.3-22.3c0-12.3,10-22.3,22.3-22.3
		C259.4,114.1,269.4,124.1,269.4,136.4z"/>
	<path class="st9" d="M277.7,136.4c0,16.9-13.7,30.6-30.6,30.6c-16.9,0-30.6-13.7-30.6-30.6c0-16.9,13.7-30.6,30.6-30.6
		C264,105.8,277.7,119.5,277.7,136.4z"/>
	<path class="st10" d="M286.5,136.4c0,21.7-17.6,39.3-39.3,39.3c-21.7,0-39.3-17.6-39.3-39.3c0-21.7,17.6-39.3,39.3-39.3
		C268.8,97.1,286.5,114.7,286.5,136.4z"/>
	<path class="st4" d="M251.9,137.6l-6.2,3.7c-0.8,0.5-1.8-0.1-1.8-1v-7.6c0-0.9,1-1.5,1.8-1l6.2,3.7
		C252.7,135.8,252.7,137.1,251.9,137.6z"/>
</g>
</svg>
