<svg width="74" height="37" viewBox="0 0 74 37" fill="none" xmlns="http://www.w3.org/2000/svg">
<path d="M13.0645 26.0596C18.182 18.6258 25.1525 11.6713 33.7373 8.45793C36.3454 7.47706 39.9234 6.72558 42.3639 8.53182C45.4886 10.9095 44.3321 18.0511 40.024 18.4251C37.6862 18.6096 36.3583 16.0832 37.0774 14.0821C37.4394 12.8977 38.3171 11.9582 39.3225 11.1718C47.7631 4.23726 60.258 1.29318 70.3971 6.23118" stroke="black" stroke-width="1.94922" stroke-miterlimit="10" stroke-linecap="round" stroke-linejoin="round"/>
<path d="M19.9417 29.203C17.1905 29.5765 7.64173 35.3067 4.95685 35.573C5.472 34.261 5.79316 32.9031 6.20109 31.5247C6.6549 29.9524 6.82796 28.3547 6.91424 26.7773" stroke="black" stroke-width="1.94922" stroke-miterlimit="10" stroke-linecap="round" stroke-linejoin="round"/>
</svg>
